<svg width="32" height="32" viewBox="0 0 32 32" fill="none" xmlns="http://www.w3.org/2000/svg">
<path d="M2.3816 15.7666L2.78869 16.1851L2.38143 16.6035C1.28971 17.7249 0.6 19.321 0.6 21.1039C0.6 24.3397 2.85813 26.9339 5.66182 27.2437L6.02453 27.2838L6.15576 27.6243C7.02024 29.8674 9.03848 31.4 11.3497 31.4C12.9437 31.4 14.3919 30.6731 15.4253 29.4873L15.8776 28.9682L16.3299 29.4873C17.3633 30.6731 18.8115 31.4 20.4055 31.4C22.7098 31.4 24.7242 29.8759 25.5922 27.6431L25.7306 27.2871L26.1117 27.2618C29.0206 27.0688 31.4 24.4269 31.4 21.1028C31.4 19.3211 30.7103 17.7248 29.6194 16.6033L29.2126 16.1851L29.6192 15.7668C30.7104 14.644 31.4 13.0487 31.4 11.2671C31.4 7.99051 29.085 5.37491 26.2318 5.1177L25.8373 5.08214L25.715 4.70545C24.9293 2.28631 22.8277 0.6 20.4055 0.6C18.8115 0.6 17.3633 1.32694 16.3299 2.51274L15.8776 3.03178L15.4253 2.51274C14.3919 1.32694 12.9437 0.6 11.3497 0.6C8.9187 0.6 6.8106 2.29783 6.03215 4.73184L5.91665 5.09301L5.54086 5.14368C2.79449 5.51404 0.600985 8.07875 0.600985 11.2671C0.600985 13.0488 1.29069 14.645 2.3816 15.7666Z" fill="white" stroke="#0025CB" stroke-width="1.2"/>
<path d="M15.5 16.5C15.5 18.4861 14.9624 20.2616 14.1195 21.526C13.2743 22.7938 12.1615 23.5 11 23.5C9.83848 23.5 8.72572 22.7938 7.88049 21.526C7.03759 20.2616 6.5 18.4861 6.5 16.5C6.5 14.5139 7.03759 12.7384 7.88049 11.474C8.72572 10.2062 9.83848 9.5 11 9.5C12.1615 9.5 13.2743 10.2062 14.1195 11.474C14.9624 12.7384 15.5 14.5139 15.5 16.5Z" fill="white" stroke="#0025CB"/>
<path d="M26.5 16.5C26.5 18.4759 25.912 20.2448 24.9859 21.5076C24.0596 22.7708 22.8212 23.5 21.5 23.5C20.1788 23.5 18.9404 22.7708 18.0141 21.5076C17.088 20.2448 16.5 18.4759 16.5 16.5C16.5 14.5241 17.088 12.7552 18.0141 11.4924C18.9404 10.2292 20.1788 9.5 21.5 9.5C22.8212 9.5 24.0596 10.2292 24.9859 11.4924C25.912 12.7552 26.5 14.5241 26.5 16.5Z" fill="white" stroke="#0025CB"/>
<ellipse cx="13" cy="16.5" rx="3" ry="5.5" fill="#0025CB"/>
<ellipse cx="24" cy="16.5" rx="3" ry="5.5" fill="#0025CB"/>
<path d="M13 16.5L10 18.6651L10 14.3349L13 16.5Z" fill="white"/>
<path d="M24 16.5L21 18.6651L21 14.3349L24 16.5Z" fill="white"/>
<path d="M20.449 7.82555C22.043 6.49351 24.8771 8.24028 24.9951 7.97134C25.1132 7.7024 23.0547 5.80378 21.4512 6.0166C19.8477 6.22942 19.6678 8.47843 20.449 7.82555Z" fill="#0025CB"/>
<path d="M13.551 7.82555C11.957 6.49351 9.12291 8.24028 9.00486 7.97134C8.8868 7.7024 10.9453 5.80378 12.5488 6.0166C14.1523 6.22942 14.3322 8.47843 13.551 7.82555Z" fill="#0025CB"/>
</svg>
