<svg width="248" height="184" viewBox="0 0 248 184" fill="none" xmlns="http://www.w3.org/2000/svg">
<path d="M210.387 75.3321C208.636 75.0234 206.9 74.8803 205.179 74.8734C207.165 71.6502 208.594 68.0076 209.292 64.0483C212.24 47.3291 201.136 31.3941 184.493 28.4594C174.811 26.7523 165.388 29.8256 158.62 35.9816C154.256 28.3916 146.71 22.7216 137.439 21.0868C127.499 19.3342 117.833 22.6167 111.032 29.1028C106.854 20.6807 98.8981 14.291 88.9587 12.5385C72.3152 9.60375 56.4307 20.7799 53.4827 37.4991C52.831 41.1948 52.8697 44.854 53.4996 48.3408C51.912 47.7742 50.2586 47.3294 48.5408 47.0265C31.8972 44.0918 16.0128 55.268 13.0647 71.9872C10.1167 88.7064 21.2207 104.641 37.8642 107.576C39.8588 107.928 41.8459 108.071 43.8006 108.035C41.4229 111.53 39.7209 115.574 38.9382 120.013C35.9902 136.732 47.0942 152.667 63.7377 155.602C73.6771 157.354 83.3432 154.072 90.144 147.59C94.3219 156.012 102.278 162.397 112.218 164.15C121.899 165.857 131.322 162.784 138.09 156.628C142.454 164.218 150 169.888 159.272 171.523C175.915 174.457 191.8 163.281 194.748 146.562C195.478 142.42 195.343 138.329 194.479 134.47C196.152 135.081 197.897 135.567 199.71 135.887C216.354 138.821 232.238 127.645 235.186 110.926C238.135 94.2018 227.031 78.2668 210.387 75.3321Z" fill="white" stroke="#0025CB" stroke-width="2" stroke-miterlimit="10"/>
<path d="M79.6401 56.3398L79.8295 55.2655C79.8855 54.9484 80.004 54.625 80.1852 54.2954C80.3664 53.9658 80.5916 53.6594 80.8608 53.3761C81.13 53.0927 81.4283 52.8626 81.7556 52.6857L82.4792 53.4249C82.1931 53.7167 81.9379 54.0295 81.7137 54.363C81.4895 54.6966 81.3399 55.076 81.265 55.5012L81.0726 56.5924L79.6401 56.3398ZM82.4938 56.843L82.6833 55.7686C82.7392 55.4516 82.8577 55.1282 83.0389 54.7986C83.2201 54.469 83.4453 54.1626 83.7145 53.8792C83.9837 53.5959 84.282 53.3658 84.6093 53.1889L85.3329 53.9281C85.0468 54.2199 84.7917 54.5327 84.5674 54.8662C84.3432 55.1998 84.1936 55.5792 84.1187 56.0044L83.9263 57.0956L82.4938 56.843ZM84.932 65.3963L86.9526 53.9367L94.1372 55.2036L93.8748 56.692L88.4192 55.73L87.8035 59.2216L92.8842 60.1175L92.6227 61.6003L87.542 60.7044L86.9234 64.2128L92.4462 65.1866L92.1837 66.675L84.932 65.3963ZM97.9855 55.8821L95.9649 67.3417L94.2918 67.0467L96.3125 55.5871L97.9855 55.8821ZM113.485 64.523C113.269 65.7465 112.86 66.759 112.257 67.5604C111.655 68.3581 110.922 68.9251 110.059 69.2614C109.2 69.5946 108.276 69.6741 107.288 69.4998C106.295 69.3248 105.451 68.9336 104.754 68.3261C104.062 67.7155 103.569 66.9306 103.277 65.9713C102.985 65.012 102.946 63.9225 103.161 62.7026C103.377 61.4791 103.786 60.4685 104.388 59.6708C104.991 58.8693 105.722 58.302 106.58 57.9688C107.444 57.6325 108.371 57.5519 109.364 57.7268C110.352 57.9011 111.193 58.2936 111.885 58.9041C112.582 59.5116 113.076 60.295 113.369 61.2543C113.662 62.2099 113.7 63.2994 113.485 64.523ZM111.772 64.2211C111.937 63.2885 111.924 62.4766 111.735 61.7855C111.549 61.0912 111.225 60.5339 110.76 60.1136C110.3 59.6901 109.742 59.4205 109.085 59.3048C108.425 59.1883 107.806 59.2504 107.229 59.491C106.653 59.7278 106.157 60.1404 105.742 60.7288C105.331 61.314 105.043 62.073 104.879 63.0055C104.714 63.9381 104.725 64.7515 104.91 65.4458C105.1 66.1369 105.425 66.6942 105.885 67.1177C106.345 67.5374 106.906 67.8054 107.566 67.9218C108.222 68.0376 108.839 67.9771 109.415 67.7402C109.996 67.5003 110.492 67.0877 110.903 66.5025C111.318 65.9141 111.608 65.1537 111.772 64.2211ZM114.496 70.6092L116.011 62.0145L117.628 62.2997L117.388 63.665L117.477 63.6807C117.715 63.2458 118.056 62.9308 118.498 62.7356C118.944 62.5374 119.419 62.4827 119.923 62.5715C120.027 62.5899 120.15 62.6154 120.29 62.6478C120.434 62.681 120.546 62.7103 120.627 62.736L120.344 64.3363C120.28 64.3058 120.165 64.2643 119.997 64.2116C119.83 64.1552 119.661 64.1119 119.489 64.0817C119.094 64.012 118.726 64.0337 118.387 64.147C118.052 64.2572 117.77 64.4439 117.538 64.707C117.308 64.9664 117.16 65.2826 117.094 65.6556L116.169 70.9042L114.496 70.6092ZM123.239 75.6587C122.556 75.5383 121.985 75.3452 121.524 75.0793C121.067 74.8141 120.709 74.5068 120.452 74.1576C120.194 73.8083 120.02 73.4448 119.928 73.0672L121.471 72.7276C121.543 72.9095 121.647 73.1067 121.782 73.3191C121.921 73.5358 122.124 73.7351 122.392 73.917C122.664 74.0995 123.031 74.2316 123.494 74.3131C124.128 74.425 124.679 74.3626 125.148 74.126C125.616 73.8931 125.909 73.4409 126.027 72.7695L126.325 71.0796L126.219 71.0609C126.086 71.2259 125.905 71.4035 125.675 71.5938C125.449 71.7848 125.157 71.9333 124.8 72.0396C124.443 72.1459 124.001 72.1526 123.475 72.0599C122.797 71.9401 122.213 71.6737 121.724 71.2606C121.24 70.8444 120.894 70.2969 120.687 69.618C120.484 68.9361 120.463 68.1382 120.624 67.2242C120.785 66.3103 121.078 65.5542 121.503 64.956C121.931 64.3584 122.449 63.9342 123.054 63.6833C123.661 63.4287 124.309 63.3623 124.999 63.4839C125.533 63.578 125.948 63.7435 126.244 63.9804C126.542 64.2136 126.761 64.4639 126.902 64.7311C127.047 64.999 127.155 65.2314 127.224 65.4282L127.347 65.4499L127.593 64.0566L129.232 64.3457L127.683 73.1306C127.553 73.8692 127.274 74.4452 126.848 74.8584C126.421 75.2716 125.895 75.5404 125.269 75.6647C124.647 75.7896 123.97 75.7876 123.239 75.6587ZM124.089 70.7373C124.571 70.8221 124.997 70.7819 125.368 70.6167C125.744 70.4483 126.055 70.1685 126.301 69.7772C126.551 69.3829 126.729 68.8891 126.833 68.296C126.935 67.7178 126.939 67.1935 126.845 66.7231C126.751 66.2526 126.56 65.865 126.272 65.5603C125.984 65.2518 125.595 65.0545 125.107 64.9683C124.603 64.8795 124.16 64.9361 123.779 65.138C123.398 65.3362 123.082 65.6421 122.832 66.0558C122.586 66.4701 122.415 66.9514 122.318 67.4998C122.219 68.0631 122.217 68.5725 122.314 69.028C122.41 69.4835 122.606 69.8602 122.899 70.1582C123.197 70.4568 123.593 70.6498 124.089 70.7373ZM136.033 70.7317L136.92 65.7013L138.599 65.9973L137.083 74.592L135.438 74.3019L135.701 72.8135L135.611 72.7977C135.333 73.2217 134.948 73.5482 134.458 73.7771C133.972 74.003 133.406 74.059 132.761 73.9452C132.209 73.8478 131.741 73.6404 131.359 73.323C130.981 73.0025 130.713 72.5802 130.555 72.0562C130.401 71.5329 130.387 70.9169 130.512 70.2081L131.476 64.7413L133.149 65.0363L132.22 70.3017C132.117 70.8874 132.197 71.3823 132.461 71.7864C132.724 72.1906 133.115 72.4383 133.633 72.5298C133.947 72.585 134.272 72.5616 134.609 72.4595C134.95 72.3581 135.251 72.1669 135.512 71.886C135.777 71.6058 135.951 71.221 136.033 70.7317ZM143.025 63.8238L141.004 75.2834L139.331 74.9884L141.352 63.5288L143.025 63.8238ZM146.949 64.5157L144.928 75.9753L143.255 75.6803L145.276 64.2207L146.949 64.5157ZM150.769 77.184C149.963 77.0419 149.292 76.7332 148.757 76.258C148.221 75.7828 147.846 75.184 147.631 74.4614C147.416 73.7389 147.387 72.9337 147.544 72.0459C147.701 71.1543 148.004 70.404 148.454 69.7948C148.904 69.1856 149.462 68.7493 150.127 68.4859C150.793 68.2225 151.529 68.1618 152.335 68.3039C153.14 68.446 153.811 68.7546 154.346 69.2298C154.882 69.705 155.257 70.3058 155.471 71.032C155.685 71.7583 155.714 72.5672 155.557 73.4588C155.4 74.3466 155.097 75.0932 154.648 75.6987C154.199 76.3041 153.642 76.7386 152.976 77.002C152.31 77.2654 151.575 77.326 150.769 77.184ZM151.022 75.7805C151.544 75.8726 152.001 75.8108 152.393 75.5953C152.785 75.3798 153.104 75.0571 153.349 74.6272C153.597 74.1979 153.77 73.7073 153.868 73.1552C153.964 72.6068 153.969 72.0884 153.882 71.6C153.8 71.1085 153.612 70.6926 153.318 70.3523C153.024 70.012 152.616 69.7959 152.094 69.7038C151.568 69.611 151.106 69.674 150.71 69.8926C150.318 70.1118 149.997 70.4379 149.747 70.8709C149.502 71.3008 149.331 71.7899 149.235 72.3383C149.137 72.8904 149.13 73.4103 149.213 73.8981C149.3 74.3865 149.491 74.799 149.786 75.1355C150.084 75.4728 150.496 75.6877 151.022 75.7805ZM164.517 79.6081C163.67 79.4588 162.973 79.1493 162.425 78.6796C161.881 78.2068 161.502 77.611 161.286 76.8922C161.075 76.1703 161.048 75.3636 161.205 74.472C161.36 73.5917 161.661 72.8447 162.108 72.2311C162.558 71.6182 163.113 71.1757 163.773 70.9035C164.436 70.632 165.167 70.5666 165.965 70.7074C166.45 70.7929 166.906 70.9559 167.333 71.1966C167.76 71.4372 168.124 71.7611 168.425 72.1681C168.726 72.5751 168.933 73.0711 169.045 73.6563C169.158 74.2378 169.146 74.9184 169.008 75.698L168.904 76.2911L162.072 75.0864L162.293 73.833L167.485 74.7486C167.563 74.3085 167.542 73.9029 167.423 73.5318C167.304 73.1571 167.1 72.8422 166.811 72.5873C166.525 72.333 166.165 72.1677 165.733 72.0914C165.263 72.0085 164.832 72.0518 164.441 72.2213C164.053 72.3877 163.732 72.6387 163.477 72.9745C163.226 73.3072 163.063 73.688 162.987 74.117L162.814 75.0962C162.713 75.6707 162.728 76.1771 162.858 76.6155C162.992 77.0546 163.223 77.4126 163.551 77.6897C163.88 77.9631 164.289 78.1428 164.777 78.229C165.094 78.2849 165.391 78.2911 165.668 78.2476C165.946 78.2004 166.196 78.1022 166.418 77.953C166.641 77.8037 166.826 77.6037 166.974 77.3529L168.507 77.9174C168.298 78.3614 167.999 78.7297 167.609 79.0225C167.223 79.3122 166.767 79.5106 166.24 79.6178C165.718 79.7218 165.144 79.7186 164.517 79.6081ZM177.677 75.0514L176.113 75.0526C176.084 74.8475 176.016 74.6451 175.909 74.4454C175.806 74.2464 175.648 74.0705 175.437 73.9179C175.225 73.7652 174.946 73.6582 174.599 73.5971C174.125 73.5135 173.711 73.5501 173.356 73.7068C173.002 73.8598 172.796 74.1023 172.738 74.4343C172.687 74.7216 172.753 74.9716 172.934 75.1844C173.116 75.3972 173.434 75.6014 173.888 75.7968L175.198 76.3509C175.957 76.6731 176.496 77.0587 176.817 77.5076C177.138 77.9565 177.245 78.485 177.138 79.093C177.047 79.6078 176.817 80.0403 176.447 80.3906C176.082 80.7377 175.615 80.9784 175.045 81.1126C174.479 81.2474 173.849 81.2536 173.155 81.1313C172.193 80.9615 171.443 80.6179 170.908 80.1004C170.373 79.5791 170.103 78.9258 170.099 78.1405L171.76 78.1794C171.786 78.6187 171.937 78.9741 172.212 79.2457C172.488 79.5136 172.878 79.692 173.382 79.7808C173.93 79.8775 174.388 79.841 174.757 79.6713C175.126 79.4979 175.34 79.2452 175.398 78.9132C175.445 78.6446 175.385 78.4012 175.215 78.1829C175.05 77.9652 174.77 77.7736 174.376 77.608L172.978 77.0325C172.208 76.7083 171.666 76.3128 171.352 75.8459C171.042 75.3796 170.941 74.8406 171.049 74.2288C171.138 73.7215 171.358 73.3026 171.709 72.9721C172.06 72.6416 172.503 72.4141 173.041 72.2896C173.579 72.1614 174.171 72.1542 174.816 72.268C175.745 72.4318 176.44 72.7621 176.903 73.259C177.366 73.7522 177.624 74.3497 177.677 75.0514ZM44.9176 84.0033L47.0013 72.1856L48.6352 72.4737L48.3895 73.867L48.5294 73.8916C48.658 73.7297 48.8344 73.5473 49.0586 73.3445C49.2828 73.1417 49.5727 72.9813 49.9281 72.8632C50.2842 72.7414 50.729 72.7275 51.2624 72.8215C51.9563 72.9439 52.5446 73.2284 53.0274 73.6751C53.5102 74.1218 53.8482 74.7025 54.0414 75.4174C54.2383 76.1329 54.2549 76.9551 54.0911 77.884C53.9273 78.8128 53.6321 79.582 53.2054 80.1914C52.7794 80.797 52.2643 81.2312 51.6603 81.494C51.0569 81.753 50.4083 81.8213 49.7144 81.699C49.1922 81.6069 48.7805 81.4439 48.4794 81.21C48.1821 80.9768 47.9609 80.7263 47.8158 80.4584C47.6707 80.1905 47.5639 79.9563 47.4954 79.7557L47.3947 79.738L46.5906 84.2983L44.9176 84.0033ZM47.8831 76.772C47.7765 77.3763 47.7708 77.9215 47.8659 78.4075C47.9609 78.8935 48.1518 79.2945 48.4384 79.6104C48.7257 79.9226 49.1099 80.1212 49.5911 80.206C50.091 80.2942 50.5321 80.2354 50.9146 80.0297C51.2977 79.8204 51.6154 79.5014 51.8679 79.0728C52.1242 78.6449 52.3029 78.1437 52.4042 77.5692C52.5042 77.0022 52.5082 76.4779 52.4162 75.9963C52.3279 75.5153 52.1371 75.1143 51.8437 74.7933C51.554 74.473 51.1573 74.2685 50.6537 74.1797C50.1688 74.0942 49.7364 74.1468 49.3566 74.3375C48.9805 74.5289 48.6673 74.8333 48.4167 75.2507C48.1662 75.668 47.9883 76.1752 47.8831 76.772ZM55.2108 82.495L56.7263 73.9004L58.3434 74.1855L58.1027 75.5508L58.1922 75.5666C58.4304 75.1317 58.7706 74.8166 59.2127 74.6215C59.6592 74.4233 60.1343 74.3686 60.6379 74.4574C60.7423 74.4758 60.8648 74.5012 61.0052 74.5337C61.1494 74.5668 61.2615 74.5962 61.3416 74.6219L61.0594 76.2222C60.9956 76.1917 60.8798 76.1501 60.7122 76.0975C60.5452 76.0411 60.3759 75.9978 60.2043 75.9675C59.8089 75.8978 59.4415 75.9196 59.1023 76.0329C58.7675 76.1431 58.4846 76.3297 58.2536 76.5928C58.0232 76.8522 57.8751 77.1684 57.8094 77.5415L56.8839 82.7901L55.2108 82.495ZM64.624 84.3337C63.7773 84.1844 63.0799 83.8749 62.5319 83.4052C61.9883 82.9324 61.6087 82.3366 61.3932 81.6178C61.182 80.8959 61.155 80.0892 61.3122 79.1976C61.4674 78.3173 61.7684 77.5703 62.215 76.9567C62.6654 76.3438 63.2204 75.9013 63.88 75.6291C64.5433 75.3576 65.274 75.2922 66.0723 75.4329C66.5573 75.5184 67.0132 75.6815 67.44 75.9222C67.8668 76.1628 68.2309 76.4866 68.5322 76.8936C68.8335 77.3006 69.0403 77.7967 69.1525 78.3819C69.2654 78.9634 69.2531 79.6439 69.1156 80.4236L69.011 81.0167L62.1789 79.812L62.3999 78.5586L67.5925 79.4742C67.6701 79.034 67.6494 78.6284 67.5302 78.2574C67.4116 77.8826 67.2075 77.5678 66.9178 77.3129C66.6319 77.0586 66.2725 76.8933 65.8398 76.817C65.3698 76.7341 64.9391 76.7774 64.5476 76.9469C64.1606 77.1132 63.8394 77.3643 63.584 77.7001C63.3331 78.0327 63.1697 78.4136 63.0941 78.8426L62.9214 79.8218C62.8201 80.3962 62.8347 80.9027 62.9651 81.3411C63.0992 81.7801 63.3303 82.1382 63.6584 82.4153C63.9872 82.6886 64.3959 82.8684 64.8845 82.9546C65.2016 83.0105 65.4986 83.0167 65.7755 82.9732C66.0531 82.926 66.3031 82.8278 66.5256 82.6785C66.7481 82.5293 66.9333 82.3293 67.0814 82.0784L68.6146 82.643C68.4056 83.087 68.106 83.4553 67.7159 83.7481C67.3302 84.0378 66.874 84.2362 66.3474 84.3433C65.8252 84.4474 65.2507 84.4442 64.624 84.3337ZM77.7843 79.777L76.2205 79.7782C76.1913 79.573 76.1232 79.3706 76.0161 79.171C75.9127 78.972 75.7552 78.7961 75.5437 78.6434C75.3321 78.4907 75.0529 78.3838 74.706 78.3226C74.2322 78.2391 73.8181 78.2757 73.4635 78.4324C73.1096 78.5854 72.9033 78.8279 72.8448 79.1599C72.7942 79.4471 72.8597 79.6972 73.0414 79.91C73.2231 80.1228 73.541 80.3269 73.995 80.5224L75.3051 81.0765C76.0637 81.3987 76.6034 81.7843 76.9243 82.2332C77.2451 82.6821 77.3519 83.2105 77.2447 83.8186C77.154 84.3334 76.9238 84.7659 76.5544 85.1161C76.1893 85.4633 75.7218 85.704 75.152 85.8381C74.5859 85.9729 73.9559 85.9792 73.2621 85.8568C72.2997 85.6871 71.5506 85.3435 71.0149 84.8259C70.4799 84.3047 70.2105 83.6514 70.2066 82.866L71.8671 82.905C71.8935 83.3443 72.0443 83.6997 72.3195 83.9713C72.5954 84.2392 72.9851 84.4175 73.4887 84.5063C74.037 84.603 74.4954 84.5665 74.8638 84.3969C75.2329 84.2235 75.4467 83.9708 75.5052 83.6388C75.5526 83.3702 75.4916 83.1267 75.3224 82.9084C75.1569 82.6908 74.8773 82.4992 74.4834 82.3336L73.0848 81.7581C72.315 81.4339 71.7732 81.0383 71.4593 80.5714C71.1492 80.1052 71.0481 79.5662 71.156 78.9544C71.2454 78.4471 71.4654 78.0282 71.816 77.6977C72.1666 77.3672 72.6106 77.1397 73.148 77.0152C73.686 76.887 74.2777 76.8798 74.923 76.9935C75.8519 77.1573 76.5475 77.4877 77.0099 77.9846C77.473 78.4778 77.7311 79.0753 77.7843 79.777ZM84.7191 84.023L85.6061 78.9926L87.2847 79.2886L85.7692 87.8833L84.1242 87.5933L84.3866 86.1048L84.2971 86.0891C84.0185 86.513 83.634 86.8395 83.1436 87.0684C82.6576 87.2943 82.0919 87.3503 81.4466 87.2365C80.8945 87.1392 80.4272 86.9318 80.0447 86.6143C79.6666 86.2938 79.3987 85.8715 79.2411 85.3476C79.0872 84.8242 79.0727 84.2082 79.1977 83.4994L80.1617 78.0326L81.8347 78.3277L80.9063 83.593C80.803 84.1787 80.8831 84.6736 81.1464 85.0777C81.4098 85.4819 81.8007 85.7297 82.3193 85.8211C82.6326 85.8763 82.9579 85.8529 83.2951 85.7508C83.6361 85.6494 83.9371 85.4583 84.1982 85.1774C84.463 84.8971 84.6366 84.5123 84.7191 84.023ZM88.0172 88.2797L89.5327 79.685L91.1386 79.9682L90.892 81.3671L90.9983 81.3858C91.2609 80.9436 91.6188 80.626 92.0721 80.4328C92.5261 80.2359 93.0366 80.1875 93.6036 80.2874C94.1781 80.3887 94.6356 80.6079 94.9762 80.9449C95.3205 81.2825 95.5445 81.7028 95.6481 82.2057L95.7377 82.2215C96.0237 81.7988 96.4146 81.4908 96.9103 81.2974C97.4066 81.1003 97.9643 81.0564 98.5836 81.1655C99.3632 81.303 99.9562 81.6595 100.362 82.235C100.772 82.8111 100.891 83.5916 100.717 84.5764L99.7006 90.3398L98.0276 90.0448L99.0162 84.4381C99.1188 83.8562 99.0346 83.4067 98.7636 83.0897C98.4925 82.7726 98.1369 82.5753 97.6967 82.4977C97.1521 82.4017 96.6991 82.4949 96.3378 82.7773C95.9771 83.056 95.7507 83.4565 95.6586 83.9788L94.6927 89.4568L93.0252 89.1627L94.0326 83.4497C94.1148 82.9834 94.0354 82.5829 93.7944 82.2481C93.5535 81.9133 93.1998 81.7048 92.7335 81.6225C92.4165 81.5666 92.1088 81.5989 91.8106 81.7194C91.5168 81.8369 91.2619 82.0285 91.0458 82.2942C90.8334 82.5606 90.693 82.8878 90.6246 83.2758L89.6903 88.5747L88.0172 88.2797ZM101.943 90.7352L103.459 82.1405L105.132 82.4355L103.616 91.0302L101.943 90.7352ZM104.537 80.9634C104.246 80.9121 104.013 80.771 103.839 80.5402C103.668 80.3063 103.607 80.0532 103.655 79.7809C103.704 79.5048 103.848 79.2879 104.087 79.1301C104.331 78.9692 104.599 78.9145 104.889 78.9658C105.18 79.0171 105.411 79.1597 105.581 79.3936C105.756 79.6244 105.819 79.8778 105.77 80.1538C105.722 80.4262 105.577 80.6427 105.333 80.8036C105.093 80.9614 104.828 81.0147 104.537 80.9634ZM105.867 91.4271L107.382 82.8324L108.999 83.1175L108.759 84.4828L108.848 84.4986C109.086 84.0637 109.427 83.7486 109.869 83.5535C110.315 83.3553 110.79 83.3006 111.294 83.3894C111.398 83.4078 111.521 83.4333 111.661 83.4657C111.805 83.4988 111.918 83.5282 111.998 83.5539L111.715 85.1542C111.652 85.1237 111.536 85.0821 111.368 85.0295C111.201 84.9731 111.032 84.9298 110.86 84.8996C110.465 84.8298 110.098 84.8516 109.758 84.9649C109.424 85.0751 109.141 85.2617 108.91 85.5249C108.679 85.7843 108.531 86.1005 108.465 86.4735L107.54 91.7221L105.867 91.4271ZM119.272 93.9639C118.578 93.8415 117.99 93.5551 117.508 93.1047C117.03 92.6512 116.695 92.0671 116.502 91.3522C116.313 90.6343 116.3 89.8109 116.464 88.882C116.628 87.9532 116.923 87.1859 117.349 86.5802C117.779 85.9752 118.297 85.5454 118.903 85.2908C119.51 85.0362 120.158 84.9697 120.848 85.0914C121.382 85.1854 121.795 85.3506 122.088 85.5869C122.385 85.8201 122.603 86.07 122.74 86.3366C122.881 86.6038 122.987 86.8358 123.056 87.0327L123.157 87.0504L123.907 82.7922L125.58 83.0872L123.56 94.5468L121.926 94.2587L122.162 92.9214L122.022 92.8967C121.889 93.0618 121.707 93.245 121.475 93.4465C121.247 93.6486 120.953 93.8084 120.594 93.9258C120.235 94.0433 119.794 94.0559 119.272 93.9639ZM119.893 92.6021C120.374 92.687 120.803 92.6318 121.18 92.4367C121.561 92.2385 121.877 91.927 122.129 91.5022C122.385 91.078 122.566 90.5637 122.673 89.9594C122.778 89.3626 122.784 88.8252 122.691 88.3473C122.599 87.8694 122.408 87.4762 122.12 87.1677C121.833 86.8593 121.444 86.6619 120.956 86.5758C120.452 86.487 120.009 86.5435 119.628 86.7455C119.246 86.9474 118.929 87.2589 118.678 87.68C118.431 88.1018 118.257 88.5962 118.157 89.1632C118.056 89.7377 118.05 90.2694 118.141 90.7585C118.232 91.2476 118.421 91.6561 118.71 91.9838C119.002 92.3085 119.397 92.5146 119.893 92.6021ZM129.621 95.7945C128.775 95.6452 128.077 95.3357 127.529 94.8659C126.986 94.3932 126.606 93.7974 126.39 93.0786C126.179 92.3567 126.152 91.55 126.31 90.6584C126.465 89.778 126.766 89.0311 127.212 88.4175C127.663 87.8046 128.218 87.362 128.877 87.0899C129.541 86.8183 130.271 86.753 131.07 86.8937C131.555 86.9792 132.01 87.1423 132.437 87.3829C132.864 87.6236 133.228 87.9474 133.53 88.3544C133.831 88.7614 134.038 89.2575 134.15 89.8427C134.263 90.4242 134.25 91.1047 134.113 91.8843L134.008 92.4775L127.176 91.2728L127.397 90.0194L132.59 90.935C132.667 90.4948 132.647 90.0892 132.527 89.7182C132.409 89.3434 132.205 89.0286 131.915 88.7736C131.629 88.5194 131.27 88.3541 130.837 88.2778C130.367 88.1949 129.936 88.2382 129.545 88.4076C129.158 88.574 128.837 88.8251 128.581 89.1608C128.33 89.4935 128.167 89.8744 128.091 90.3033L127.919 91.2826C127.817 91.857 127.832 92.3635 127.962 92.8019C128.097 93.2409 128.328 93.599 128.656 93.8761C128.984 94.1494 129.393 94.3292 129.882 94.4154C130.199 94.4713 130.496 94.4775 130.773 94.434C131.05 94.3868 131.3 94.2886 131.523 94.1393C131.745 93.9901 131.931 93.79 132.079 93.5392L133.612 94.1038C133.403 94.5477 133.103 94.9161 132.713 95.2088C132.327 95.4985 131.871 95.697 131.345 95.8041C130.823 95.9082 130.248 95.905 129.621 95.7945ZM141.833 97.9651C141.289 97.8691 140.814 97.6815 140.409 97.4025C140.005 97.1197 139.709 96.7616 139.52 96.3283C139.335 95.8956 139.292 95.3976 139.391 94.8343C139.477 94.3494 139.64 93.9667 139.882 93.6862C140.124 93.4058 140.419 93.2021 140.769 93.0752C141.118 92.9484 141.497 92.8728 141.905 92.8486C142.313 92.8244 142.725 92.8239 143.14 92.8471C143.665 92.8782 144.091 92.9034 144.419 92.9227C144.747 92.9382 144.991 92.914 145.153 92.8502C145.314 92.7863 145.412 92.6536 145.448 92.4522L145.455 92.413C145.541 91.9243 145.47 91.5214 145.241 91.2041C145.016 90.8875 144.633 90.6815 144.092 90.5862C143.529 90.4868 143.063 90.5335 142.694 90.7262C142.33 90.9159 142.06 91.1509 141.883 91.4314L140.374 90.796C140.653 90.3066 141 89.9331 141.414 89.6755C141.833 89.4147 142.291 89.2531 142.786 89.1905C143.283 89.1241 143.79 89.1367 144.309 89.2281C144.652 89.2886 145.008 89.3938 145.378 89.5436C145.752 89.6903 146.088 89.8996 146.387 90.1714C146.689 90.4439 146.913 90.797 147.059 91.2305C147.207 91.6604 147.225 92.1886 147.115 92.8153L146.108 98.5227L144.474 98.2346L144.682 97.0596L144.614 97.0477C144.468 97.245 144.268 97.429 144.015 97.5998C143.762 97.7705 143.453 97.895 143.09 97.9732C142.726 98.0513 142.307 98.0486 141.833 97.9651ZM142.434 96.6863C142.896 96.7679 143.308 96.7462 143.668 96.6213C144.033 96.4971 144.327 96.3027 144.55 96.0383C144.778 95.7708 144.922 95.4673 144.982 95.1278L145.177 94.0199C145.107 94.0691 144.981 94.1046 144.801 94.1266C144.624 94.1455 144.425 94.1545 144.202 94.1537C143.979 94.1491 143.763 94.1436 143.553 94.1373C143.343 94.1272 143.167 94.1194 143.026 94.1137C142.694 94.0975 142.385 94.1142 142.1 94.1638C141.818 94.2141 141.581 94.3165 141.388 94.471C141.2 94.6225 141.079 94.8474 141.027 95.1458C140.954 95.5599 141.051 95.9002 141.32 96.1668C141.589 96.4296 141.96 96.6028 142.434 96.6863ZM152.03 87.7511L150.01 99.2107L148.337 98.9157L150.357 87.4561L152.03 87.7511ZM155.264 103.645C154.582 103.525 154.01 103.331 153.549 103.066C153.092 102.8 152.734 102.493 152.477 102.144C152.219 101.795 152.045 101.431 151.954 101.053L153.496 100.714C153.568 100.896 153.672 101.093 153.807 101.305C153.946 101.522 154.149 101.721 154.417 101.903C154.689 102.086 155.056 102.218 155.519 102.299C156.153 102.411 156.704 102.349 157.173 102.112C157.641 101.879 157.934 101.427 158.053 100.756L158.351 99.0659L158.244 99.0472C158.111 99.2122 157.93 99.3898 157.7 99.5801C157.474 99.771 157.183 99.9196 156.825 100.026C156.468 100.132 156.027 100.139 155.501 100.046C154.822 99.9264 154.238 99.66 153.749 99.2469C153.265 98.8307 152.919 98.2832 152.712 97.6043C152.509 96.9224 152.488 96.1244 152.649 95.2105C152.81 94.2966 153.103 93.5405 153.528 92.9423C153.957 92.3447 154.474 91.9205 155.08 91.6696C155.686 91.415 156.334 91.3485 157.024 91.4702C157.558 91.5643 157.973 91.7298 158.27 91.9667C158.567 92.1999 158.786 92.4502 158.928 92.7174C159.073 92.9853 159.18 93.2177 159.249 93.4145L159.372 93.4362L159.618 92.0429L161.257 92.332L159.708 101.117C159.578 101.856 159.299 102.431 158.873 102.845C158.446 103.258 157.92 103.527 157.294 103.651C156.672 103.776 155.995 103.774 155.264 103.645ZM156.115 98.7236C156.596 98.8084 157.022 98.7682 157.394 98.6029C157.77 98.4346 158.08 98.1548 158.326 97.7635C158.577 97.3692 158.754 96.8754 158.859 96.2823C158.961 95.7041 158.965 95.1798 158.871 94.7094C158.777 94.2389 158.585 93.8513 158.297 93.5466C158.009 93.2381 157.621 93.0408 157.132 92.9546C156.628 92.8658 156.186 92.9224 155.804 93.1243C155.423 93.3225 155.107 93.6284 154.857 94.0421C154.611 94.4564 154.44 94.9377 154.343 95.4861C154.244 96.0494 154.242 96.5588 154.339 97.0143C154.436 97.4698 154.631 97.8465 154.924 98.1445C155.222 98.4431 155.619 98.6361 156.115 98.7236ZM165.575 102.134C164.769 101.992 164.099 101.683 163.563 101.208C163.028 100.733 162.653 100.134 162.438 99.4116C162.223 98.6891 162.194 97.8839 162.35 96.9961C162.507 96.1045 162.811 95.3541 163.261 94.7449C163.71 94.1358 164.268 93.6995 164.934 93.4361C165.6 93.1727 166.335 93.112 167.141 93.2541C167.947 93.3961 168.617 93.7048 169.153 94.18C169.688 94.6552 170.063 95.2559 170.277 95.9822C170.492 96.7085 170.52 97.5174 170.363 98.4089C170.206 99.2967 169.904 100.043 169.455 100.649C169.006 101.254 168.448 101.689 167.782 101.952C167.117 102.216 166.381 102.276 165.575 102.134ZM165.828 100.731C166.351 100.823 166.808 100.761 167.2 100.545C167.592 100.33 167.91 100.007 168.155 99.5773C168.404 99.1481 168.577 98.6575 168.674 98.1054C168.771 97.557 168.776 97.0386 168.689 96.5502C168.606 96.0587 168.418 95.6428 168.124 95.3025C167.83 94.9622 167.422 94.746 166.9 94.6539C166.374 94.5612 165.913 94.6241 165.517 94.8427C165.124 95.062 164.803 95.3881 164.554 95.8211C164.309 96.2509 164.138 96.7401 164.041 97.2884C163.944 97.8405 163.937 98.3604 164.02 98.8482C164.107 99.3366 164.298 99.7491 164.592 100.086C164.89 100.423 165.302 100.638 165.828 100.731ZM180.884 107.978L181.688 103.417L181.587 103.4C181.454 103.565 181.272 103.748 181.04 103.949C180.812 104.152 180.519 104.311 180.16 104.429C179.801 104.546 179.36 104.559 178.838 104.467C178.144 104.345 177.556 104.058 177.074 103.608C176.596 103.154 176.26 102.57 176.067 101.855C175.878 101.137 175.866 100.314 176.03 99.385C176.193 98.4562 176.488 97.6889 176.914 97.0832C177.344 96.4782 177.862 96.0484 178.469 95.7938C179.075 95.5392 179.723 95.4727 180.414 95.5944C180.947 95.6884 181.36 95.8536 181.653 96.0899C181.951 96.3231 182.168 96.573 182.306 96.8396C182.447 97.1068 182.552 97.3388 182.621 97.5357L182.761 97.5603L183.007 96.167L184.641 96.4551L182.557 108.273L180.884 107.978ZM179.458 103.105C179.94 103.19 180.369 103.135 180.745 102.94C181.126 102.742 181.443 102.43 181.695 102.005C181.95 101.581 182.131 101.067 182.238 100.462C182.343 99.8656 182.35 99.3282 182.257 98.8503C182.164 98.3724 181.974 97.9792 181.686 97.6707C181.398 97.3623 181.01 97.1649 180.521 97.0788C180.017 96.99 179.575 97.0465 179.193 97.2485C178.811 97.4504 178.495 97.7619 178.244 98.183C177.996 98.6048 177.822 99.0992 177.722 99.6662C177.621 100.241 177.616 100.772 177.707 101.262C177.797 101.751 177.987 102.159 178.275 102.487C178.568 102.812 178.962 103.018 179.458 103.105ZM191.448 102.842L192.335 97.8118L194.013 98.1078L192.498 106.702L190.853 106.412L191.115 104.924L191.026 104.908C190.747 105.332 190.363 105.659 189.872 105.888C189.386 106.113 188.82 106.169 188.175 106.056C187.623 105.958 187.156 105.751 186.773 105.433C186.395 105.113 186.127 104.691 185.97 104.167C185.816 103.643 185.801 103.027 185.926 102.319L186.89 96.8518L188.563 97.1468L187.635 102.412C187.532 102.998 187.612 103.493 187.875 103.897C188.138 104.301 188.529 104.549 189.048 104.64C189.361 104.695 189.686 104.672 190.024 104.57C190.365 104.469 190.666 104.277 190.927 103.996C191.192 103.716 191.365 103.331 191.448 102.842ZM198.419 107.925C197.573 107.776 196.875 107.467 196.327 106.997C195.784 106.524 195.404 105.928 195.189 105.21C194.977 104.488 194.95 103.681 195.108 102.789C195.263 101.909 195.564 101.162 196.01 100.548C196.461 99.9355 197.016 99.493 197.675 99.2208C198.339 98.9493 199.069 98.8839 199.868 99.0247C200.353 99.1102 200.809 99.2733 201.235 99.5139C201.662 99.7546 202.026 100.078 202.328 100.485C202.629 100.892 202.836 101.388 202.948 101.974C203.061 102.555 203.048 103.236 202.911 104.015L202.806 104.608L195.974 103.404L196.195 102.15L201.388 103.066C201.466 102.626 201.445 102.22 201.326 101.849C201.207 101.474 201.003 101.16 200.713 100.905C200.427 100.65 200.068 100.485 199.635 100.409C199.165 100.326 198.734 100.369 198.343 100.539C197.956 100.705 197.635 100.956 197.379 101.292C197.128 101.624 196.965 102.005 196.889 102.434L196.717 103.414C196.616 103.988 196.63 104.494 196.76 104.933C196.895 105.372 197.126 105.73 197.454 106.007C197.783 106.28 198.191 106.46 198.68 106.546C198.997 106.602 199.294 106.608 199.571 106.565C199.848 106.518 200.098 106.42 200.321 106.27C200.543 106.121 200.729 105.921 200.877 105.67L202.41 106.235C202.201 106.679 201.901 107.047 201.511 107.34C201.126 107.629 200.669 107.828 200.143 107.935C199.621 108.039 199.046 108.036 198.419 107.925ZM60.6148 106.982C59.768 106.832 59.0706 106.523 58.5226 106.053C57.979 105.58 57.5995 104.984 57.3839 104.266C57.1727 103.544 57.1457 102.737 57.3029 101.845C57.4581 100.965 57.7591 100.218 58.2057 99.6046C58.6561 98.9917 59.2111 98.5491 59.8707 98.2769C60.534 98.0054 61.2647 97.94 62.063 98.0808C62.548 98.1663 63.0039 98.3294 63.4307 98.57C63.8575 98.8107 64.2216 99.1345 64.5229 99.5415C64.8242 99.9485 65.031 100.445 65.1432 101.03C65.2561 101.611 65.2438 102.292 65.1063 103.071L65.0017 103.665L58.1696 102.46L58.3906 101.206L63.5832 102.122C63.6609 101.682 63.6401 101.276 63.5209 100.905C63.4023 100.53 63.1982 100.216 62.9085 99.9607C62.6226 99.7064 62.2632 99.5412 61.8305 99.4649C61.3605 99.382 60.9298 99.4253 60.5384 99.5947C60.1513 99.7611 59.8301 100.012 59.5747 100.348C59.3238 100.681 59.1604 101.061 59.0848 101.49L58.9121 102.47C58.8109 103.044 58.8254 103.551 58.9558 103.989C59.0899 104.428 59.321 104.786 59.6491 105.063C59.9779 105.337 60.3866 105.516 60.8752 105.602C61.1923 105.658 61.4893 105.665 61.7662 105.621C62.0438 105.574 62.2938 105.476 62.5163 105.326C62.7388 105.177 62.924 104.977 63.0721 104.726L64.6053 105.291C64.3963 105.735 64.0967 106.103 63.7066 106.396C63.3209 106.686 62.8647 106.884 62.3381 106.991C61.8159 107.095 61.2414 107.092 60.6148 106.982ZM73.775 102.425L72.2112 102.426C72.182 102.221 72.1139 102.019 72.0068 101.819C71.9034 101.62 71.7459 101.444 71.5344 101.291C71.3228 101.139 71.0436 101.032 70.6967 100.971C70.2229 100.887 69.8088 100.924 69.4542 101.08C69.1003 101.233 68.894 101.476 68.8355 101.808C68.7849 102.095 68.8504 102.345 69.0321 102.558C69.2138 102.771 69.5317 102.975 69.9857 103.17L71.2958 103.724C72.0544 104.047 72.5941 104.432 72.915 104.881C73.2358 105.33 73.3426 105.858 73.2354 106.466C73.1447 106.981 72.9145 107.414 72.5451 107.764C72.18 108.111 71.7125 108.352 71.1427 108.486C70.5766 108.621 69.9466 108.627 69.2528 108.505C68.2904 108.335 67.5413 107.991 67.0056 107.474C66.4706 106.953 66.2012 106.299 66.1973 105.514L67.8578 105.553C67.8842 105.992 68.035 106.348 68.3102 106.619C68.5861 106.887 68.9758 107.065 69.4794 107.154C70.0277 107.251 70.4861 107.214 70.8545 107.045C71.2236 106.871 71.4374 106.619 71.4959 106.287C71.5433 106.018 71.4823 105.775 71.3131 105.556C71.1477 105.339 70.868 105.147 70.4741 104.981L69.0755 104.406C68.3057 104.082 67.7639 103.686 67.45 103.219C67.1399 102.753 67.0388 102.214 67.1467 101.602C67.2361 101.095 67.4561 100.676 67.8067 100.346C68.1573 100.015 68.6013 99.7875 69.1387 99.663C69.6767 99.5348 70.2684 99.5276 70.9137 99.6414C71.8426 99.8052 72.5382 100.136 73.0006 100.632C73.4637 101.126 73.7218 101.723 73.775 102.425ZM84.8798 107.406L85.7668 102.376L87.4455 102.672L85.93 111.266L84.2849 110.976L84.5474 109.488L84.4578 109.472C84.1792 109.896 83.7947 110.223 83.3043 110.452C82.8183 110.677 82.2527 110.733 81.6073 110.62C81.0552 110.522 80.5879 110.315 80.2054 109.997C79.8273 109.677 79.5595 109.255 79.4018 108.731C79.2479 108.207 79.2335 107.591 79.3585 106.883L80.3224 101.416L81.9955 101.711L81.067 106.976C80.9638 107.562 81.0438 108.057 81.3072 108.461C81.5705 108.865 81.9615 109.113 82.48 109.204C82.7934 109.259 83.1186 109.236 83.4559 109.134C83.7969 109.033 84.0979 108.841 84.359 108.561C84.6238 108.28 84.7974 107.895 84.8798 107.406ZM90.7509 106.855L89.851 111.958L88.178 111.663L89.6935 103.068L91.2994 103.351L91.0527 104.75L91.159 104.769C91.437 104.349 91.8111 104.038 92.2813 103.836C92.7552 103.635 93.3148 103.591 93.9602 103.705C94.5458 103.808 95.0371 104.022 95.4338 104.346C95.8312 104.666 96.1088 105.088 96.2664 105.612C96.424 106.136 96.4403 106.752 96.3154 107.461L95.3514 112.928L93.6784 112.633L94.6068 107.367C94.7166 106.744 94.6402 106.229 94.3775 105.821C94.1154 105.409 93.7009 105.154 93.1339 105.054C92.7459 104.985 92.3861 105.008 92.0543 105.123C91.7263 105.238 91.446 105.443 91.2135 105.736C90.9853 106.027 90.8311 106.4 90.7509 106.855ZM100.063 113.955C99.5182 113.859 99.0436 113.671 98.6389 113.392C98.2349 113.109 97.9384 112.751 97.7494 112.318C97.5642 111.885 97.5212 111.387 97.6205 110.824C97.706 110.339 97.8697 109.956 98.1115 109.676C98.3532 109.395 98.6488 109.192 98.9981 109.065C99.3474 108.938 99.7261 108.862 100.134 108.838C100.542 108.814 100.954 108.813 101.369 108.837C101.894 108.868 102.321 108.893 102.648 108.912C102.976 108.928 103.221 108.904 103.382 108.84C103.543 108.776 103.642 108.643 103.677 108.442L103.684 108.403C103.77 107.914 103.699 107.511 103.47 107.194C103.246 106.877 102.863 106.671 102.322 106.576C101.758 106.476 101.292 106.523 100.924 106.716C100.56 106.905 100.289 107.14 100.113 107.421L98.6038 106.786C98.8824 106.296 99.229 105.923 99.6437 105.665C100.063 105.404 100.52 105.243 101.016 105.18C101.512 105.114 102.02 105.126 102.538 105.218C102.881 105.278 103.238 105.383 103.607 105.533C103.982 105.68 104.318 105.889 104.616 106.161C104.918 106.433 105.142 106.786 105.289 107.22C105.436 107.65 105.455 108.178 105.344 108.805L104.338 114.512L102.704 114.224L102.911 113.049L102.844 113.037C102.698 113.235 102.498 113.419 102.245 113.589C101.991 113.76 101.683 113.885 101.319 113.963C100.955 114.041 100.537 114.038 100.063 113.955ZM100.663 112.676C101.126 112.757 101.537 112.736 101.898 112.611C102.262 112.487 102.556 112.292 102.78 112.028C103.008 111.76 103.151 111.457 103.211 111.117L103.407 110.009C103.336 110.059 103.211 110.094 103.03 110.116C102.854 110.135 102.654 110.144 102.431 110.143C102.209 110.139 101.993 110.133 101.782 110.127C101.572 110.117 101.397 110.109 101.255 110.103C100.924 110.087 100.615 110.104 100.329 110.153C100.047 110.204 99.81 110.306 99.6174 110.461C99.4291 110.612 99.3087 110.837 99.2561 111.135C99.1831 111.549 99.2808 111.89 99.5491 112.156C99.8182 112.419 100.19 112.592 100.663 112.676ZM113.204 116.272C112.659 116.176 112.185 115.988 111.78 115.709C111.376 115.426 111.079 115.068 110.89 114.635C110.705 114.202 110.662 113.704 110.762 113.141C110.847 112.656 111.011 112.273 111.252 111.993C111.494 111.712 111.79 111.509 112.139 111.382C112.488 111.255 112.867 111.179 113.275 111.155C113.683 111.131 114.095 111.131 114.51 111.154C115.035 111.185 115.462 111.21 115.789 111.229C116.117 111.245 116.362 111.221 116.523 111.157C116.684 111.093 116.783 110.96 116.818 110.759L116.825 110.72C116.911 110.231 116.84 109.828 116.612 109.511C116.387 109.194 116.004 108.988 115.463 108.893C114.899 108.793 114.433 108.84 114.065 109.033C113.701 109.223 113.43 109.458 113.254 109.738L111.745 109.103C112.023 108.613 112.37 108.24 112.785 107.982C113.204 107.721 113.661 107.56 114.157 107.497C114.653 107.431 115.161 107.443 115.679 107.535C116.022 107.595 116.379 107.7 116.749 107.85C117.123 107.997 117.459 108.206 117.757 108.478C118.059 108.751 118.283 109.104 118.43 109.537C118.577 109.967 118.596 110.495 118.485 111.122L117.479 116.829L115.845 116.541L116.052 115.366L115.985 115.354C115.839 115.552 115.639 115.736 115.386 115.906C115.132 116.077 114.824 116.202 114.46 116.28C114.096 116.358 113.678 116.355 113.204 116.272ZM113.804 114.993C114.267 115.075 114.678 115.053 115.039 114.928C115.403 114.804 115.697 114.609 115.921 114.345C116.149 114.077 116.293 113.774 116.352 113.434L116.548 112.327C116.478 112.376 116.352 112.411 116.171 112.433C115.995 112.452 115.795 112.461 115.572 112.46C115.35 112.456 115.134 112.45 114.923 112.444C114.713 112.434 114.538 112.426 114.396 112.42C114.065 112.404 113.756 112.421 113.47 112.47C113.188 112.521 112.951 112.623 112.758 112.778C112.57 112.929 112.45 113.154 112.397 113.452C112.324 113.867 112.422 114.207 112.69 114.473C112.959 114.736 113.331 114.909 113.804 114.993ZM122.28 112.414L121.38 117.517L119.707 117.222L121.223 108.628L122.829 108.911L122.582 110.31L122.688 110.328C122.966 109.908 123.34 109.597 123.81 109.395C124.284 109.194 124.844 109.151 125.489 109.265C126.075 109.368 126.566 109.581 126.963 109.905C127.36 110.225 127.638 110.647 127.796 111.171C127.953 111.695 127.97 112.312 127.845 113.02L126.881 118.487L125.208 118.192L126.136 112.927C126.246 112.304 126.169 111.788 125.907 111.381C125.645 110.969 125.23 110.713 124.663 110.613C124.275 110.545 123.915 110.568 123.584 110.682C123.256 110.798 122.975 111.002 122.743 111.296C122.515 111.586 122.36 111.959 122.28 112.414ZM132.714 119.695C131.908 119.553 131.238 119.244 130.702 118.769C130.167 118.294 129.792 117.695 129.577 116.972C129.362 116.25 129.333 115.444 129.489 114.557C129.646 113.665 129.95 112.915 130.4 112.305C130.849 111.696 131.407 111.26 132.073 110.997C132.738 110.733 133.474 110.673 134.28 110.815C135.086 110.957 135.756 111.265 136.292 111.741C136.827 112.216 137.202 112.816 137.416 113.543C137.631 114.269 137.659 115.078 137.502 115.969C137.345 116.857 137.043 117.604 136.594 118.209C136.144 118.815 135.587 119.249 134.921 119.513C134.256 119.776 133.52 119.837 132.714 119.695ZM132.967 118.291C133.49 118.383 133.947 118.322 134.339 118.106C134.73 117.89 135.049 117.568 135.294 117.138C135.543 116.709 135.716 116.218 135.813 115.666C135.91 115.118 135.915 114.599 135.828 114.111C135.745 113.619 135.557 113.203 135.263 112.863C134.969 112.523 134.561 112.307 134.039 112.214C133.513 112.122 133.052 112.185 132.656 112.403C132.263 112.622 131.942 112.949 131.693 113.382C131.448 113.811 131.277 114.301 131.18 114.849C131.083 115.401 131.076 115.921 131.159 116.409C131.246 116.897 131.437 117.31 131.731 117.646C132.029 117.983 132.441 118.198 132.967 118.291ZM138.619 120.557L140.134 111.962L141.74 112.245L141.493 113.644L141.6 113.663C141.862 113.221 142.22 112.903 142.673 112.71C143.127 112.513 143.638 112.465 144.205 112.565C144.779 112.666 145.237 112.885 145.578 113.222C145.922 113.56 146.146 113.98 146.25 114.483L146.339 114.499C146.625 114.076 147.016 113.768 147.512 113.575C148.008 113.378 148.566 113.334 149.185 113.443C149.965 113.58 150.558 113.937 150.964 114.512C151.374 115.088 151.492 115.869 151.318 116.854L150.302 122.617L148.629 122.322L149.618 116.715C149.72 116.133 149.636 115.684 149.365 115.367C149.094 115.05 148.738 114.853 148.298 114.775C147.753 114.679 147.3 114.772 146.939 115.055C146.578 115.333 146.352 115.734 146.26 116.256L145.294 121.734L143.627 121.44L144.634 115.727C144.716 115.261 144.637 114.86 144.396 114.525C144.155 114.19 143.801 113.982 143.335 113.9C143.018 113.844 142.71 113.876 142.412 113.997C142.118 114.114 141.863 114.306 141.647 114.571C141.435 114.838 141.294 115.165 141.226 115.553L140.292 120.852L138.619 120.557ZM155.012 123.644C154.467 123.548 153.993 123.36 153.588 123.081C153.184 122.798 152.888 122.44 152.699 122.007C152.513 121.574 152.47 121.076 152.57 120.513C152.655 120.028 152.819 119.645 153.061 119.365C153.302 119.084 153.598 118.881 153.947 118.754C154.297 118.627 154.675 118.551 155.083 118.527C155.492 118.503 155.903 118.503 156.318 118.526C156.844 118.557 157.27 118.582 157.597 118.601C157.925 118.617 158.17 118.593 158.331 118.529C158.493 118.465 158.591 118.332 158.627 118.131L158.633 118.092C158.72 117.603 158.648 117.2 158.42 116.883C158.195 116.566 157.812 116.36 157.271 116.265C156.708 116.165 156.242 116.212 155.873 116.405C155.509 116.594 155.239 116.829 155.062 117.11L153.553 116.475C153.832 115.985 154.178 115.612 154.593 115.354C155.012 115.093 155.469 114.932 155.965 114.869C156.461 114.803 156.969 114.815 157.487 114.907C157.83 114.967 158.187 115.072 158.557 115.222C158.931 115.369 159.267 115.578 159.565 115.85C159.867 116.122 160.092 116.476 160.238 116.909C160.385 117.339 160.404 117.867 160.293 118.494L159.287 124.201L157.653 123.913L157.86 122.738L157.793 122.726C157.647 122.924 157.447 123.108 157.194 123.278C156.941 123.449 156.632 123.574 156.268 123.652C155.905 123.73 155.486 123.727 155.012 123.644ZM155.613 122.365C156.075 122.446 156.487 122.425 156.847 122.3C157.211 122.176 157.505 121.981 157.729 121.717C157.957 121.449 158.101 121.146 158.161 120.806L158.356 119.698C158.286 119.748 158.16 119.783 157.979 119.805C157.803 119.824 157.603 119.833 157.38 119.832C157.158 119.828 156.942 119.822 156.731 119.816C156.521 119.806 156.346 119.798 156.205 119.792C155.873 119.776 155.564 119.793 155.278 119.842C154.996 119.893 154.759 119.995 154.567 120.15C154.378 120.301 154.258 120.526 154.205 120.824C154.132 121.238 154.23 121.579 154.498 121.845C154.767 122.108 155.139 122.281 155.613 122.365ZM165.209 113.43L163.188 124.889L161.515 124.594L163.536 113.135L165.209 113.43ZM165.439 125.286L166.955 116.691L168.628 116.986L167.112 125.581L165.439 125.286ZM167.314 115.572L169.078 113.223L170.84 113.534L168.651 115.808L167.314 115.572ZM171.831 126.609C171.286 126.513 170.811 126.326 170.407 126.047C170.003 125.764 169.706 125.406 169.517 124.972C169.332 124.54 169.289 124.042 169.388 123.478C169.474 122.994 169.638 122.611 169.879 122.33C170.121 122.05 170.417 121.846 170.766 121.719C171.115 121.593 171.494 121.517 171.902 121.493C172.31 121.469 172.722 121.468 173.137 121.491C173.662 121.522 174.089 121.548 174.416 121.567C174.744 121.582 174.989 121.558 175.15 121.494C175.311 121.43 175.41 121.298 175.445 121.096L175.452 121.057C175.538 120.568 175.467 120.166 175.238 119.848C175.013 119.532 174.63 119.326 174.09 119.23C173.526 119.131 173.06 119.178 172.692 119.37C172.327 119.56 172.057 119.795 171.881 120.076L170.372 119.44C170.65 118.951 170.997 118.577 171.412 118.32C171.831 118.059 172.288 117.897 172.784 117.835C173.28 117.768 173.787 117.781 174.306 117.872C174.649 117.933 175.006 118.038 175.375 118.188C175.749 118.334 176.086 118.544 176.384 118.816C176.686 119.088 176.91 119.441 177.057 119.875C177.204 120.305 177.223 120.833 177.112 121.459L176.106 127.167L174.472 126.879L174.679 125.704L174.612 125.692C174.465 125.889 174.266 126.073 174.013 126.244C173.759 126.415 173.451 126.539 173.087 126.617C172.723 126.695 172.304 126.693 171.831 126.609ZM172.431 125.33C172.894 125.412 173.305 125.39 173.666 125.265C174.03 125.141 174.324 124.947 174.547 124.682C174.775 124.415 174.919 124.111 174.979 123.772L175.175 122.664C175.104 122.713 174.979 122.749 174.798 122.771C174.622 122.79 174.422 122.799 174.199 122.798C173.977 122.793 173.76 122.788 173.55 122.781C173.34 122.771 173.165 122.764 173.023 122.758C172.692 122.742 172.383 122.758 172.097 122.808C171.815 122.858 171.578 122.961 171.385 123.115C171.197 123.267 171.077 123.492 171.024 123.79C170.951 124.204 171.049 124.544 171.317 124.811C171.586 125.074 171.957 125.247 172.431 125.33ZM181.793 116.354L181.603 117.428C181.547 117.745 181.429 118.069 181.248 118.398C181.071 118.725 180.848 119.03 180.579 119.313C180.309 119.596 180.011 119.828 179.683 120.009L178.959 119.27C179.236 118.988 179.486 118.68 179.711 118.346C179.938 118.013 180.091 117.629 180.168 117.192L180.36 116.101L181.793 116.354ZM184.641 116.856L184.451 117.93C184.395 118.247 184.277 118.571 184.096 118.9C183.919 119.227 183.696 119.532 183.427 119.815C183.158 120.098 182.859 120.33 182.531 120.511L181.807 119.772C182.084 119.49 182.334 119.182 182.559 118.849C182.787 118.516 182.939 118.131 183.016 117.695L183.208 116.603L184.641 116.856Z" fill="#0025CB"/>
</svg>
