<svg width="210" height="210" viewBox="0 0 210 210" fill="none" xmlns="http://www.w3.org/2000/svg">
<path d="M82.7693 23.9135C85.7407 20.6357 90.5128 19.7 94.5019 21.6129L112.851 30.4118C114.97 31.4279 117.341 31.7995 119.67 31.4803L139.831 28.7162C144.214 28.1153 148.471 30.4659 150.297 34.4955L158.698 53.0304C159.668 55.171 161.245 56.9796 163.234 58.2317L180.455 69.0737C184.199 71.4308 185.949 75.9678 184.758 80.2286L179.279 99.8269C178.647 102.09 178.692 104.49 179.411 106.727L185.634 126.102C186.987 130.314 185.411 134.915 181.76 137.413L164.965 148.905C163.026 150.232 161.519 152.099 160.631 154.275L152.944 173.117C151.273 177.214 147.109 179.725 142.706 179.292L122.454 177.3C120.115 177.07 117.76 177.531 115.681 178.628L97.6812 188.121C93.7679 190.184 88.9637 189.431 85.8693 186.27L71.6361 171.726C69.9923 170.046 67.8914 168.886 65.5943 168.389L45.7036 164.091C41.3793 163.157 38.183 159.492 37.845 155.081L36.2904 134.791C36.1109 132.447 35.2472 130.208 33.8065 128.351L21.3322 112.273C18.6203 108.778 18.5274 103.916 21.104 100.319L32.9554 83.7769C34.3242 81.8664 35.1017 79.596 35.1917 77.2475L35.9706 56.9127C36.14 52.4919 39.1941 48.7077 43.4796 47.6088L63.1916 42.5545C65.4682 41.9708 67.5232 40.7314 69.1017 38.9902L82.7693 23.9135Z" fill="white" stroke="#0025CB" stroke-width="2"/>
<path d="M77.9173 87.7466L77.5689 85.1459C77.4754 84.4481 77.1961 84.1304 76.7309 84.1927C76.2446 84.2579 76.0482 84.6393 76.1416 85.3371L76.3626 86.9864C76.3994 87.2612 76.4532 87.5016 76.5238 87.7074C76.5916 87.892 76.7228 88.0681 76.9174 88.2358C77.1332 88.4006 77.4259 88.5766 77.7953 88.7639C78.1831 88.9271 78.7049 89.1263 79.3605 89.3613L80.3715 89.6778C80.9821 89.8974 81.5018 90.1614 81.9305 90.4698C82.3564 90.7571 82.7077 91.1298 82.9843 91.5878C83.2792 92.0218 83.5129 92.5609 83.6853 93.205C83.8788 93.8463 84.0365 94.6216 84.1583 95.5308L84.2178 95.9748C84.4699 97.8567 84.146 99.3745 83.2459 100.528C82.3669 101.679 80.9865 102.381 79.1047 102.633C77.244 102.882 75.7501 102.576 74.6232 101.716C73.5174 100.852 72.8356 99.4585 72.5778 97.5344L72.2846 95.3459L77.3593 94.666L77.7035 97.2351C77.7998 97.954 78.1017 98.2794 78.6092 98.2115C79.0955 98.1463 79.2919 97.7648 79.1984 97.0671L78.9689 95.3544C78.9293 95.0584 78.8755 94.818 78.8078 94.6334C78.74 94.4488 78.6102 94.2832 78.4184 94.1367C78.2237 93.9691 77.955 93.8113 77.6124 93.6635C77.2669 93.4946 76.7889 93.3004 76.1783 93.0808L74.996 92.6904C74.3854 92.4708 73.8658 92.2068 73.437 91.8984C73.0082 91.5899 72.6436 91.1975 72.343 90.7212C72.0424 90.2449 71.7953 89.6861 71.6018 89.0448C71.4266 88.3795 71.2795 87.6028 71.1605 86.7148L71.118 86.3976C70.8602 84.4735 71.1524 82.9599 71.9948 81.857C72.8343 80.7329 74.1844 80.0462 76.0451 79.7969C77.9058 79.5476 79.4116 79.8624 80.5625 80.7413C81.7346 81.6175 82.4452 82.9859 82.6945 84.8466L82.992 87.0667L77.9173 87.7466ZM89.0175 78.3817L91.3037 95.4452C91.3547 95.8258 91.455 96.0922 91.6045 96.2443C91.7724 96.3725 91.9514 96.4238 92.1417 96.3983C92.332 96.3728 92.4807 96.2776 92.5877 96.1126C92.7131 95.9236 92.7503 95.6388 92.6993 95.2582L90.4131 78.1947L95.4877 77.5148L97.7187 94.166C97.9765 96.0901 97.6539 97.6185 96.751 98.7511C95.8481 99.8837 94.4768 100.573 92.6373 100.82C90.8188 101.063 89.3476 100.765 88.2235 99.9259C87.1177 99.0624 86.4345 97.6581 86.1738 95.7128L83.9429 79.0616L89.0175 78.3817ZM87.8961 77.2405L88.3605 72.7551L92.0397 72.2621L91.036 76.8198L87.8961 77.2405ZM103.155 76.4875C105.016 76.2382 106.538 76.6799 107.723 77.8126C108.905 78.9241 109.679 80.8437 110.045 83.5713L110.053 83.6347C110.24 85.0303 110.271 86.2208 110.144 87.2063C110.039 88.1889 109.783 89.0089 109.376 89.6661C108.966 90.3021 108.408 90.7966 107.702 91.1495C106.996 91.5024 106.146 91.7454 105.152 91.8785L104.613 91.9508L105.527 98.7698L100.452 99.4498L97.4777 77.2481L103.155 76.4875ZM104.023 87.5422L104.562 87.4699C104.9 87.4246 105.111 87.3103 105.194 87.127C105.295 86.9197 105.318 86.6046 105.261 86.1817L104.704 82.0268C104.642 81.5616 104.536 81.253 104.386 81.1008C104.255 80.9247 104.02 80.8593 103.682 80.9046L103.143 80.9768L104.023 87.5422ZM116.491 79.1884L117.018 83.1213L120.063 82.7133L120.654 87.1219L117.609 87.5299L118.284 92.5728L121.424 92.1521L122.015 96.5607L113.801 97.6613L110.826 75.4597L119.009 74.3634L119.599 78.772L116.491 79.1884ZM126.626 73.3105C128.487 73.0612 129.991 73.3655 131.139 74.2233C132.284 75.0599 132.992 76.4826 133.261 78.4913L133.278 78.6182C133.399 79.5274 133.401 80.3451 133.283 81.0712C133.184 81.7733 133.007 82.3782 132.752 82.8858C132.494 83.3724 132.192 83.768 131.845 84.0727C131.496 84.3563 131.143 84.5328 130.786 84.6021L130.833 84.9509C131.195 84.9239 131.585 85.0224 132.003 85.2462C132.417 85.449 132.814 85.7617 133.194 86.1844C133.573 86.6071 133.903 87.144 134.184 87.7951C134.484 88.4222 134.688 89.1481 134.799 89.9727L134.833 90.2265C134.955 91.1357 135.074 91.9483 135.192 92.6644C135.331 93.3777 135.519 94.0627 135.758 94.7195L130.715 95.3951C130.476 94.7383 130.286 94.0427 130.145 93.3084C130.022 92.55 129.902 91.7373 129.786 90.8704L129.442 88.3014C129.388 87.8996 129.287 87.6333 129.141 87.5022C128.991 87.3501 128.758 87.2953 128.441 87.3378L127.902 87.41L129.002 95.6246L123.928 96.3045L120.949 74.0712L126.626 73.3105ZM127.311 83.0014L127.85 82.9291C128.167 82.8867 128.378 82.7723 128.482 82.5862C128.586 82.4 128.612 82.1061 128.558 81.7043L128.154 78.6913C128.103 78.3107 128.003 78.0443 127.853 77.8921C127.704 77.74 127.47 77.6851 127.153 77.7276L126.614 77.7999L127.311 83.0014ZM43.1804 122.08C42.9481 120.346 43.6566 119.368 45.3059 119.147C46.1094 119.04 46.7537 119.19 47.2389 119.599C47.7213 119.986 48.0206 120.613 48.1367 121.48C48.2472 122.305 48.1208 122.967 47.7574 123.468C47.394 123.969 46.8105 124.273 46.007 124.381C44.3578 124.602 43.4156 123.835 43.1804 122.08ZM53.2295 135.875C53.4788 137.736 53.1534 139.243 52.2533 140.397C51.3743 141.548 49.9939 142.249 48.1121 142.502C46.2725 142.748 44.7893 142.441 43.6623 141.58C42.5594 140.738 41.879 139.355 41.6212 137.431L41.5787 137.113C41.4625 136.247 41.4268 135.498 41.4715 134.868C41.5374 134.235 41.6449 133.672 41.794 133.178C41.9431 132.685 42.1219 132.252 42.3303 131.879C42.557 131.483 42.776 131.109 42.9872 130.758L43.0147 130.722C43.1921 130.44 43.3498 130.171 43.4878 129.916C43.647 129.658 43.7716 129.383 43.8616 129.091C43.9728 128.797 44.0494 128.485 44.0915 128.156C44.1336 127.828 44.1263 127.452 44.0696 127.029L43.8487 125.38L48.6379 124.738L48.8163 126.071C48.924 126.874 48.9526 127.57 48.9023 128.158C48.873 128.743 48.7916 129.259 48.6579 129.708C48.5215 130.135 48.3462 130.514 48.1321 130.844C47.9364 131.15 47.7392 131.445 47.5406 131.73L47.5131 131.766C47.3512 132.003 47.1892 132.24 47.0272 132.477C46.8836 132.69 46.7667 132.942 46.6767 133.234C46.5866 133.526 46.5234 133.857 46.487 134.228C46.4477 134.578 46.4607 134.996 46.5259 135.482L46.7468 137.131C46.8403 137.829 47.1302 138.145 47.6165 138.08C48.1029 138.015 48.2993 137.634 48.2058 136.936L47.7299 133.384L52.8045 132.704L53.2295 135.875ZM63.6712 111.004L66.6501 133.238L61.6071 133.913L60.3748 124.716L59.011 124.898L60.2433 134.096L55.1687 134.776L52.1898 112.543L57.2644 111.863L58.4203 120.49L59.7841 120.307L58.6283 111.68L63.6712 111.004ZM66.3738 116.292C66.1132 114.347 66.4146 112.822 67.2781 111.716C68.1627 110.607 69.5142 109.931 71.3326 109.687C73.1722 109.441 74.6766 109.745 75.8458 110.6C77.0334 111.431 77.756 112.809 78.0138 114.733L79.5054 125.865C79.7632 127.789 79.4301 129.319 78.506 130.455C77.6031 131.587 76.2318 132.277 74.3922 132.523C72.5738 132.767 71.092 132.47 69.9468 131.634C68.8198 130.773 68.126 129.37 67.8654 127.425L66.3738 116.292ZM72.9953 127.157C73.0463 127.538 73.1571 127.803 73.3278 127.952C73.4956 128.08 73.6747 128.132 73.865 128.106C74.0765 128.078 74.2463 127.98 74.3744 127.812C74.4998 127.623 74.537 127.338 74.486 126.958L72.8882 115.032C72.8344 114.63 72.7235 114.365 72.5557 114.237C72.3878 114.109 72.1982 114.059 71.9868 114.087C71.7965 114.113 71.6372 114.21 71.509 114.377C71.3809 114.545 71.3437 114.83 71.3975 115.232L72.9953 127.157ZM85.7958 108.072L88.2234 121.372L88.5723 121.325L87.4133 107.856L93.9152 106.985L96.8898 129.186L92.2275 129.811L91.0179 116.445L90.669 116.492L91.1491 129.955L87.9775 130.38L84.8649 117.27L84.516 117.316L86.8991 130.525L82.2368 131.149L79.2622 108.948L85.7958 108.072ZM96.6322 112.238C96.3716 110.293 96.673 108.767 97.5365 107.662C98.4211 106.553 99.7726 105.877 101.591 105.633C103.431 105.387 104.935 105.691 106.104 106.546C107.292 107.377 108.014 108.755 108.272 110.679L109.764 121.811C110.022 123.735 109.688 125.265 108.764 126.401C107.861 127.533 106.49 128.223 104.651 128.469C102.832 128.713 101.35 128.416 100.205 127.58C99.0782 126.719 98.3844 125.316 98.1238 123.371L96.6322 112.238ZM103.254 123.103C103.305 123.484 103.415 123.749 103.586 123.898C103.754 124.026 103.933 124.078 104.123 124.052C104.335 124.024 104.505 123.926 104.633 123.758C104.758 123.569 104.795 123.284 104.744 122.904L103.147 110.978C103.093 110.576 102.982 110.311 102.814 110.183C102.646 110.055 102.457 110.005 102.245 110.033C102.055 110.059 101.896 110.156 101.767 110.323C101.639 110.491 101.602 110.776 101.656 111.178L103.254 123.103ZM99.846 104.899L100.31 100.413L103.99 99.9202L102.986 104.478L99.846 104.899ZM115.186 108.622L115.789 113.126L118.707 112.735L119.298 117.144L116.38 117.535L117.57 126.415L112.495 127.095L109.521 104.894L117.703 103.797L118.294 108.206L115.186 108.622ZM120.2 109.081C119.94 107.135 120.241 105.61 121.105 104.504C121.989 103.395 123.341 102.719 125.159 102.476C126.999 102.229 128.503 102.533 129.672 103.388C130.86 104.219 131.583 105.597 131.84 107.521L133.332 118.654C133.59 120.578 133.257 122.108 132.333 123.243C131.43 124.376 130.058 125.065 128.219 125.312C126.4 125.555 124.919 125.259 123.773 124.422C122.646 123.561 121.953 122.158 121.692 120.213L120.2 109.081ZM126.822 119.946C126.873 120.326 126.984 120.591 127.154 120.74C127.322 120.869 127.501 120.92 127.692 120.894C127.903 120.866 128.073 120.768 128.201 120.6C128.326 120.411 128.363 120.126 128.313 119.746L126.715 107.82C126.661 107.419 126.55 107.154 126.382 107.025C126.214 106.897 126.025 106.847 125.813 106.876C125.623 106.901 125.464 106.998 125.336 107.166C125.207 107.334 125.17 107.618 125.224 108.02L126.822 119.946ZM138.703 100.984C140.584 100.732 142.095 101.003 143.235 101.797C144.374 102.592 145.063 103.877 145.301 105.653L145.322 105.812C145.433 106.636 145.434 107.368 145.326 108.007C145.218 108.645 145.035 109.208 144.777 109.694C144.538 110.157 144.243 110.53 143.894 110.814C143.542 111.076 143.177 111.243 142.799 111.315L142.846 111.664C143.208 111.637 143.617 111.722 144.074 111.919C144.528 112.095 144.966 112.392 145.388 112.809C145.81 113.226 146.181 113.747 146.501 114.371C146.819 114.974 147.032 115.677 147.139 116.481L147.19 116.861C147.422 118.595 147.054 120.022 146.085 121.142C145.113 122.241 143.654 122.921 141.709 123.181L136.063 123.938L133.089 101.736L138.703 100.984ZM139.323 109.715L139.799 109.651C140.138 109.606 140.35 109.502 140.435 109.34C140.54 109.154 140.565 108.86 140.511 108.458L140.226 106.333C140.173 105.931 140.072 105.665 139.926 105.534C139.797 105.379 139.564 105.324 139.226 105.369L138.75 105.433L139.323 109.715ZM140.547 118.849L141.086 118.777C141.425 118.732 141.647 118.626 141.754 118.461C141.862 118.296 141.887 118.002 141.83 117.58L141.486 115.011C141.432 114.609 141.332 114.342 141.185 114.211C141.036 114.059 140.781 114.007 140.422 114.055L139.914 114.123L140.547 118.849ZM147.516 105.421C147.256 103.475 147.557 101.95 148.421 100.844C149.305 99.7355 150.657 99.0594 152.475 98.8158C154.315 98.5693 155.819 98.8735 156.988 99.7285C158.176 100.56 158.898 101.937 159.156 103.861L160.648 114.994C160.906 116.918 160.572 118.448 159.648 119.583C158.745 120.716 157.374 121.405 155.535 121.652C153.716 121.895 152.234 121.599 151.089 120.762C149.962 119.902 149.268 118.499 149.008 116.553L147.516 105.421ZM154.138 116.286C154.189 116.666 154.3 116.931 154.47 117.081C154.638 117.209 154.817 117.26 155.007 117.235C155.219 117.206 155.389 117.108 155.517 116.94C155.642 116.751 155.679 116.467 155.628 116.086L154.031 104.161C153.977 103.759 153.866 103.494 153.698 103.366C153.53 103.237 153.341 103.188 153.129 103.216C152.939 103.241 152.78 103.338 152.651 103.506C152.523 103.674 152.486 103.959 152.54 104.36L154.138 116.286ZM161.176 103.591C160.926 101.73 161.241 100.224 162.12 99.0732C163.02 97.9195 164.411 97.2165 166.293 96.9644C168.133 96.7179 169.605 97.0264 170.711 97.8899C171.835 98.7294 172.526 100.111 172.784 102.035L172.826 102.353C172.94 103.198 172.965 103.948 172.902 104.602C172.857 105.233 172.76 105.794 172.611 106.288C172.462 106.781 172.274 107.226 172.047 107.623C171.839 107.995 171.629 108.357 171.418 108.708L171.391 108.744C171.21 109.005 171.041 109.264 170.881 109.522C170.743 109.778 170.619 110.053 170.508 110.347C170.396 110.642 170.321 110.964 170.282 111.314C170.24 111.642 170.247 112.018 170.304 112.441L170.482 113.773L165.693 114.415L165.553 113.368C165.445 112.564 165.418 111.879 165.471 111.313C165.522 110.725 165.615 110.217 165.751 109.79C165.885 109.342 166.048 108.954 166.241 108.627C166.455 108.297 166.662 107.989 166.86 107.704L166.888 107.668C167.05 107.431 167.203 107.206 167.346 106.993C167.508 106.756 167.636 106.503 167.728 106.232C167.84 105.937 167.904 105.616 167.922 105.27C167.959 104.899 167.944 104.47 167.879 103.984L167.658 102.335C167.565 101.637 167.275 101.321 166.789 101.386C166.302 101.451 166.106 101.832 166.199 102.53L166.675 106.082L161.601 106.762L161.176 103.591ZM165.997 117.409C165.765 115.675 166.474 114.697 168.123 114.477C168.926 114.369 169.571 114.519 170.056 114.928C170.538 115.315 170.836 115.932 170.949 116.778C171.182 118.511 170.473 119.489 168.824 119.71C167.175 119.931 166.233 119.164 165.997 117.409Z" fill="#0025CB"/>
</svg>
