<svg width="248" height="174" viewBox="0 0 248 174" fill="none" xmlns="http://www.w3.org/2000/svg">
<path d="M205.95 46.1236C204.108 46.2956 202.326 46.6298 200.597 47.0964C201.703 43.3157 202.135 39.2673 201.746 35.1022C200.104 17.5142 184.577 4.57956 167.068 6.21432C156.883 7.16528 148.274 12.8419 143.177 20.8814C136.709 14.466 127.577 10.8528 117.823 11.7635C107.368 12.7397 98.5713 18.6932 93.5309 27.0732C87.0212 19.7717 77.2799 15.549 66.824 16.5253C49.3155 18.16 36.4515 33.7455 38.0937 51.3336C38.4567 55.2213 39.5023 58.8825 41.0939 62.2079C39.3448 62.0762 37.5633 62.0849 35.7563 62.2536C18.2478 63.8884 5.38374 79.4739 7.02594 97.0619C8.66814 114.65 24.1951 127.585 41.7036 125.95C43.8018 125.754 45.835 125.35 47.7865 124.777C46.3624 128.938 45.7673 133.464 46.2033 138.134C47.8455 155.722 63.3724 168.656 80.8809 167.022C91.3368 166.045 100.133 160.092 105.174 151.717C111.684 159.019 121.424 163.236 131.88 162.26C142.065 161.309 150.675 155.632 155.772 147.593C162.24 154.008 171.372 157.621 181.125 156.711C198.634 155.076 211.498 139.49 209.856 121.902C209.449 117.546 208.188 113.477 206.259 109.843C208.106 109.996 209.99 110.003 211.898 109.825C229.406 108.19 242.27 92.6046 240.628 75.0165C238.985 57.4234 223.458 44.4888 205.95 46.1236Z" fill="white" stroke="#0025CB" stroke-width="2" stroke-miterlimit="10"/>
<path d="M32.2962 73.2911L34.7783 73.0594L39.1762 79.2897L39.3318 79.2752L42.5004 72.3384L44.9825 72.1066L40.5497 81.3942L41.0805 87.0797L38.9025 87.283L38.3717 81.5975L32.2962 73.2911ZM51.0347 86.3714C50.0164 86.4665 49.106 86.3161 48.3034 85.9202C47.5008 85.5244 46.8506 84.9265 46.3526 84.1265C45.8547 83.3265 45.5533 82.3655 45.4486 81.2435C45.3434 80.1168 45.4612 79.1119 45.802 78.2288C46.1427 77.3458 46.6709 76.6355 47.3863 76.0979C48.1017 75.5603 48.9686 75.244 49.9869 75.1489C51.0052 75.0538 51.9156 75.2042 52.7182 75.6C53.5208 75.9959 54.1713 76.5962 54.6696 77.4009C55.168 78.2055 55.4698 79.1713 55.575 80.298C55.6798 81.42 55.5615 82.4202 55.2203 83.2985C54.8791 84.1768 54.3507 84.8848 53.6353 85.4224C52.9199 85.96 52.053 86.2763 51.0347 86.3714ZM50.8761 84.5958C51.5361 84.5341 52.0667 84.3087 52.4678 83.9193C52.8689 83.5299 53.1462 83.0356 53.2995 82.4364C53.4575 81.8367 53.5039 81.188 53.4387 80.4903C53.374 79.7973 53.2085 79.1708 52.9422 78.6107C52.6802 78.0455 52.3159 77.6064 51.8491 77.2933C51.3824 76.9802 50.819 76.8545 50.159 76.9161C49.4943 76.9782 48.9592 77.2065 48.5538 77.601C48.1531 77.995 47.874 78.4943 47.7164 79.0987C47.5631 79.6979 47.5188 80.344 47.5835 81.037C47.6487 81.7347 47.812 82.3638 48.0736 82.9243C48.3399 83.4844 48.7062 83.9186 49.1725 84.227C49.6435 84.5349 50.2113 84.6578 50.8761 84.5958ZM62.6935 74.1051L64.8078 73.9077L65.888 85.4767C65.9558 86.2027 65.881 86.8279 65.6637 87.3523C65.4511 87.8762 65.0999 88.2918 64.6103 88.5991C64.1253 88.9059 63.5081 89.0943 62.7585 89.1643C62.6831 89.1713 62.6123 89.178 62.5463 89.1841C62.4756 89.1907 62.4023 89.1952 62.3265 89.1975L62.1568 87.3801C62.2228 87.374 62.2817 87.3685 62.3336 87.3636C62.3807 87.3592 62.4349 87.3542 62.4962 87.3484C62.9959 87.3018 63.344 87.1337 63.5405 86.8443C63.7422 86.5592 63.8194 86.1644 63.7723 85.66L62.6935 74.1051ZM63.5836 72.3315C63.2158 72.3658 62.8885 72.2727 62.6016 72.0522C62.319 71.8266 62.1616 71.5417 62.1295 71.1975C62.0969 70.8487 62.1989 70.5396 62.4353 70.2702C62.6759 69.9957 62.9801 69.8413 63.3478 69.8069C63.7156 69.7726 64.0407 69.8683 64.3233 70.0939C64.6102 70.3144 64.77 70.5991 64.8025 70.9479C64.8347 71.2921 64.7304 71.6014 64.4897 71.8759C64.2533 72.1453 63.9513 72.2971 63.5836 72.3315ZM75.1265 79.357L74.5329 72.9997L76.6544 72.8016L77.6686 83.6635L75.5895 83.8576L75.4139 81.9765L75.3008 81.9871C75.105 82.5903 74.7494 83.1109 74.234 83.549C73.7227 83.9819 73.0594 84.2365 72.2438 84.3126C71.546 84.3778 70.9142 84.2822 70.3481 84.026C69.7863 83.7646 69.3239 83.3441 68.9606 82.7645C68.6021 82.1846 68.3811 81.4467 68.2974 80.551L67.6524 73.6421L69.7667 73.4447L70.388 80.099C70.4572 80.8392 70.7173 81.4093 71.1683 81.8094C71.6194 82.2096 72.1726 82.379 72.8279 82.3179C73.2239 82.2809 73.6083 82.1451 73.9811 81.9106C74.3586 81.6756 74.6583 81.3457 74.8802 80.9207C75.1068 80.4954 75.1889 79.9741 75.1265 79.357ZM85.465 87.2725C84.6023 87.353 83.8492 87.3092 83.2058 87.141C82.5671 86.9724 82.0347 86.7201 81.6087 86.3842C81.1826 86.0483 80.8522 85.6678 80.6176 85.2427L82.365 84.3235C82.5116 84.519 82.7018 84.7224 82.9355 84.9336C83.1744 85.149 83.4854 85.3221 83.8685 85.4528C84.2563 85.583 84.7426 85.6208 85.3271 85.5662C86.1286 85.4914 86.7727 85.2339 87.2594 84.7938C87.7466 84.3583 87.9506 83.7163 87.8714 82.8677L87.672 80.7321L87.5376 80.7447C87.4319 80.9876 87.272 81.2617 87.058 81.567C86.8487 81.8719 86.5463 82.1474 86.1508 82.3935C85.7553 82.6397 85.2252 82.7938 84.5605 82.8559C83.7025 82.936 82.9106 82.8078 82.1849 82.4714C81.4635 82.1298 80.8656 81.584 80.3914 80.8341C79.9214 80.0791 79.6325 79.1241 79.5247 77.9691C79.4169 76.8141 79.5201 75.8058 79.8343 74.9442C80.1533 74.0822 80.6365 73.3999 81.2838 72.8972C81.9307 72.3898 82.6903 72.0954 83.5624 72.0139C84.2366 71.951 84.7917 72.0133 85.2276 72.2008C85.6632 72.3837 86.0103 72.6128 86.2691 72.8883C86.5325 73.1633 86.7385 73.408 86.8869 73.6224L87.0424 73.6078L86.878 71.847L88.95 71.6536L89.9866 82.7558C90.0738 83.6893 89.9284 84.4756 89.5506 85.1148C89.1728 85.754 88.6272 86.252 87.9139 86.6087C87.2054 86.9649 86.3891 87.1862 85.465 87.2725ZM84.8635 81.0586C85.4716 81.0018 85.9723 80.8124 86.3654 80.4903C86.7629 80.1632 87.0451 79.7231 87.2123 79.1701C87.3837 78.612 87.4344 77.9581 87.3644 77.2086C87.2961 76.4778 87.1276 75.8444 86.8588 75.3084C86.59 74.7724 86.2313 74.3683 85.7827 74.0964C85.3336 73.8197 84.8003 73.7102 84.1827 73.7678C83.5463 73.8273 83.0313 74.0418 82.6378 74.4114C82.2439 74.7763 81.9647 75.2494 81.8002 75.8307C81.6405 76.4115 81.593 77.0484 81.6577 77.7414C81.7241 78.4533 81.8909 79.0678 82.1579 79.585C82.425 80.1022 82.7847 80.4918 83.2372 80.7539C83.6944 81.0156 84.2364 81.1171 84.8635 81.0586ZM99.2598 77.1036L98.6663 70.7464L100.788 70.5483L101.802 81.4101L99.7228 81.6042L99.5472 79.7232L99.4341 79.7338C99.2384 80.337 98.8828 80.8576 98.3673 81.2957C97.8561 81.7286 97.1927 81.9831 96.3771 82.0593C95.6794 82.1244 95.0475 82.0289 94.4814 81.7726C93.9197 81.5112 93.4572 81.0908 93.0939 80.5112C92.7354 79.9312 92.5144 79.1934 92.4307 78.2977L91.7857 71.3888L93.9 71.1914L94.5214 77.8457C94.5905 78.5858 94.8506 79.156 95.3016 79.5561C95.7527 79.9562 96.3059 80.1257 96.9612 80.0645C97.3572 80.0276 97.7416 79.8918 98.1144 79.6573C98.4919 79.4223 98.7916 79.0923 99.0135 78.6674C99.2401 78.242 99.3222 77.7208 99.2598 77.1036ZM109.345 80.927C108.275 81.0269 107.332 80.8843 106.516 80.4992C105.704 80.109 105.05 79.5162 104.552 78.7209C104.059 77.9205 103.76 76.9569 103.654 75.8302C103.551 74.7176 103.666 73.7177 104.002 72.8304C104.342 71.9426 104.865 71.2257 105.57 70.6795C106.28 70.1329 107.139 69.8126 108.148 69.7184C108.761 69.6611 109.365 69.707 109.959 69.856C110.553 70.0051 111.099 70.2751 111.597 70.6661C112.094 71.0571 112.508 71.5868 112.836 72.2552C113.165 72.9188 113.375 73.7433 113.467 74.7286L113.537 75.4782L104.902 76.2843L104.754 74.7003L111.317 74.0876C111.265 73.5313 111.106 73.0492 110.839 72.6413C110.573 72.2288 110.222 71.9167 109.789 71.7051C109.36 71.4931 108.872 71.4126 108.326 71.4637C107.732 71.5192 107.227 71.7137 106.811 72.0474C106.399 72.3759 106.095 72.7847 105.898 73.2739C105.706 73.7579 105.635 74.271 105.685 74.8132L105.801 76.0507C105.868 76.7767 106.053 77.3824 106.356 77.8678C106.662 78.3527 107.059 78.708 107.546 78.9335C108.033 79.1544 108.585 79.236 109.203 79.1783C109.604 79.1409 109.964 79.0502 110.283 78.9063C110.602 78.7576 110.871 78.5565 111.09 78.3031C111.309 78.0496 111.466 77.7473 111.562 77.3959L113.596 77.5697C113.491 78.174 113.252 78.7171 112.878 79.1989C112.509 79.6757 112.025 80.0657 111.425 80.3689C110.83 80.667 110.137 80.853 109.345 80.927ZM120.386 68.7183L120.545 70.4155L114.612 70.9695L114.453 69.2723L120.386 68.7183ZM115.802 66.5214L117.916 66.324L118.875 76.5989C118.914 77.0091 119.004 77.3121 119.146 77.5081C119.287 77.6994 119.458 77.8237 119.658 77.8811C119.863 77.9333 120.081 77.9487 120.312 77.9271C120.482 77.9113 120.629 77.8856 120.754 77.8501C120.879 77.8147 120.976 77.7866 121.046 77.7658L121.591 79.4768C121.472 79.5354 121.302 79.5989 121.081 79.6671C120.859 79.7401 120.579 79.7948 120.24 79.8312C119.684 79.8926 119.157 79.842 118.656 79.6795C118.156 79.517 117.737 79.2327 117.4 78.8267C117.062 78.4207 116.863 77.8901 116.802 77.2348L115.802 66.5214ZM128.325 79.1548C127.254 79.2547 126.311 79.1122 125.496 78.7271C124.684 78.3368 124.029 77.744 123.532 76.9488C123.039 76.1484 122.74 75.1848 122.634 74.0581C122.531 72.9455 122.646 71.9455 122.982 71.0582C123.322 70.1704 123.845 69.4535 124.55 68.9074C125.26 68.3608 126.119 68.0404 127.128 67.9462C127.741 67.889 128.345 67.9349 128.939 68.0839C129.533 68.2329 130.079 68.5029 130.576 68.8939C131.074 69.285 131.488 69.8147 131.816 70.483C132.144 71.1467 132.355 71.9711 132.447 72.9564L132.517 73.706L123.882 74.5122L123.734 72.9282L130.297 72.3154C130.245 71.7592 130.086 71.2771 129.819 70.8692C129.553 70.4566 129.202 70.1445 128.769 69.933C128.34 69.721 127.852 69.6405 127.305 69.6915C126.711 69.747 126.207 69.9416 125.791 70.2752C125.379 70.6037 125.075 71.0126 124.878 71.5018C124.685 71.9858 124.614 72.4989 124.665 73.041L124.781 74.2785C124.848 75.0045 125.033 75.6102 125.336 76.0956C125.642 76.5805 126.039 76.9358 126.526 77.1614C127.013 77.3822 127.565 77.4638 128.183 77.4062C128.583 77.3688 128.944 77.2781 129.263 77.1341C129.582 76.9855 129.851 76.7844 130.07 76.5309C130.289 76.2775 130.446 75.9751 130.541 75.6238L132.576 75.7976C132.471 76.4018 132.232 76.9449 131.858 77.4268C131.489 77.9035 131.005 78.2935 130.405 78.5968C129.81 78.8949 129.117 79.0809 128.325 79.1548ZM140.58 77.7894L139.566 66.9275L141.61 66.7367L141.771 68.4622L141.884 68.4516C142.027 67.8485 142.333 67.3563 142.802 66.9749C143.275 66.5884 143.829 66.3654 144.466 66.306C144.598 66.2937 144.754 66.2839 144.934 66.2766C145.118 66.2688 145.263 66.2672 145.368 66.2717L145.557 68.2941C145.47 68.2785 145.317 68.2666 145.097 68.2586C144.877 68.2458 144.659 68.2496 144.442 68.2698C143.942 68.3165 143.507 68.4642 143.135 68.7128C142.768 68.9564 142.489 69.2749 142.297 69.6685C142.105 70.0573 142.031 70.4875 142.075 70.9589L142.695 77.592L140.58 77.7894ZM152.43 76.9041C151.411 76.9992 150.501 76.8488 149.698 76.453C148.896 76.0571 148.245 75.4592 147.748 74.6592C147.25 73.8593 146.948 72.8983 146.844 71.7763C146.738 70.6495 146.856 69.6446 147.197 68.7616C147.538 67.8786 148.066 67.1682 148.781 66.6306C149.497 66.0931 150.363 65.7767 151.382 65.6816C152.4 65.5866 153.311 65.737 154.113 66.1328C154.916 66.5287 155.566 67.1289 156.065 67.9336C156.563 68.7383 156.865 69.704 156.97 70.8308C157.075 71.9528 156.956 72.9529 156.615 73.8313C156.274 74.7096 155.746 75.4176 155.03 75.9551C154.315 76.4927 153.448 76.8091 152.43 76.9041ZM152.271 75.1285C152.931 75.0669 153.462 74.8414 153.863 74.4521C154.264 74.0627 154.541 73.5684 154.694 72.9692C154.852 72.3695 154.899 71.7208 154.834 71.0231C154.769 70.3301 154.603 69.7035 154.337 69.1435C154.075 68.5783 153.711 68.1391 153.244 67.826C152.777 67.513 152.214 67.3872 151.554 67.4489C150.889 67.5109 150.354 67.7392 149.949 68.1337C149.548 68.5278 149.269 69.027 149.111 69.6314C148.958 70.2307 148.914 70.8768 148.978 71.5698C149.044 72.2675 149.207 72.8966 149.469 73.4571C149.735 74.0172 150.101 74.4514 150.567 74.7597C151.038 75.0677 151.606 75.1906 152.271 75.1285ZM163.889 64.6566L164.047 66.3537L158.114 66.9077L157.956 65.2105L163.889 64.6566ZM159.304 62.4596L161.418 62.2622L162.377 72.5371C162.416 72.9473 162.506 73.2503 162.648 73.4463C162.789 73.6376 162.96 73.7619 163.161 73.8193C163.365 73.8715 163.583 73.8869 163.814 73.8653C163.984 73.8495 164.131 73.8238 164.256 73.7883C164.381 73.7529 164.479 73.7248 164.548 73.704L165.093 75.4151C164.975 75.4736 164.805 75.5371 164.583 75.6053C164.361 75.6783 164.081 75.733 163.742 75.7694C163.187 75.8308 162.659 75.7802 162.159 75.6177C161.658 75.4552 161.24 75.1709 160.902 74.7649C160.565 74.3589 160.365 73.8283 160.304 73.173L159.304 62.4596ZM171.721 75.1029C170.702 75.198 169.792 75.0476 168.989 74.6518C168.187 74.2559 167.537 73.658 167.039 72.858C166.541 72.0581 166.239 71.0971 166.135 69.975C166.029 68.8483 166.147 67.8434 166.488 66.9604C166.829 66.0773 167.357 65.367 168.072 64.8294C168.788 64.2919 169.655 63.9755 170.673 63.8804C171.691 63.7854 172.602 63.9357 173.404 64.3316C174.207 64.7275 174.857 65.3277 175.356 66.1324C175.854 66.9371 176.156 67.9028 176.261 69.0295C176.366 70.1516 176.248 71.1517 175.906 72.0301C175.565 72.9084 175.037 73.6163 174.321 74.1539C173.606 74.6915 172.739 75.0079 171.721 75.1029ZM171.562 73.3273C172.222 73.2657 172.753 73.0402 173.154 72.6509C173.555 72.2615 173.832 71.7672 173.985 71.168C174.143 70.5683 174.19 69.9196 174.125 69.2219C174.06 68.5289 173.895 67.9023 173.628 67.3423C173.366 66.7771 173.002 66.3379 172.535 66.0248C172.068 65.7118 171.505 65.586 170.845 65.6477C170.18 65.7097 169.645 65.938 169.24 66.3325C168.839 66.7266 168.56 67.2258 168.402 67.8302C168.249 68.4294 168.205 69.0756 168.27 69.7686C168.335 70.4663 168.498 71.0954 168.76 71.6559C169.026 72.216 169.392 72.6502 169.858 72.9585C170.329 73.2665 170.897 73.3894 171.562 73.3273ZM185.906 67.0519L186.508 73.5011L184.394 73.6985L183.379 62.8367L185.409 62.6472L185.574 64.4151L185.708 64.4025C185.905 63.804 186.253 63.3055 186.753 62.9069C187.258 62.5079 187.918 62.2703 188.734 62.1941C189.474 62.125 190.136 62.2201 190.722 62.4793C191.307 62.7338 191.781 63.1508 192.144 63.7303C192.507 64.3098 192.731 65.0475 192.814 65.9432L193.459 72.8521L191.345 73.0495L190.724 66.3952C190.65 65.6079 190.388 65.0118 189.936 64.607C189.484 64.1974 188.9 64.0261 188.183 64.093C187.693 64.1388 187.267 64.2856 186.905 64.5334C186.547 64.7807 186.277 65.1198 186.094 65.5507C185.915 65.9763 185.852 66.4767 185.906 67.0519ZM200.891 72.3793C199.872 72.4744 198.962 72.324 198.159 71.9282C197.357 71.5323 196.707 70.9344 196.209 70.1344C195.711 69.3345 195.409 68.3735 195.305 67.2514C195.199 66.1247 195.317 65.1198 195.658 64.2368C195.999 63.3537 196.527 62.6434 197.242 62.1058C197.958 61.5683 198.825 61.2519 199.843 61.1568C200.861 61.0618 201.772 61.2121 202.574 61.608C203.377 62.0039 204.027 62.6041 204.526 63.4088C205.024 64.2135 205.326 65.1792 205.431 66.3059C205.536 67.428 205.418 68.4281 205.076 69.3065C204.735 70.1848 204.207 70.8927 203.491 71.4303C202.776 71.9679 201.909 72.2843 200.891 72.3793ZM200.732 70.6037C201.392 70.5421 201.923 70.3166 202.324 69.9272C202.725 69.5379 203.002 69.0436 203.155 68.4444C203.313 67.8447 203.36 67.196 203.295 66.4983C203.23 65.8053 203.065 65.1787 202.798 64.6187C202.536 64.0535 202.172 63.6143 201.705 63.3012C201.238 62.9882 200.675 62.8624 200.015 62.9241C199.35 62.9861 198.815 63.2144 198.41 63.6089C198.009 64.003 197.73 64.5022 197.572 65.1066C197.419 65.7058 197.375 66.352 197.44 67.045C197.505 67.7427 197.668 68.3718 197.93 68.9323C198.196 69.4924 198.562 69.9266 199.028 70.2349C199.499 70.5429 200.067 70.6658 200.732 70.6037ZM210.86 69.2301L210.825 70.0108C210.808 70.5832 210.742 71.1837 210.63 71.8124C210.523 72.4454 210.404 73.0342 210.274 73.579C210.149 74.1233 210.044 74.5563 209.96 74.878L208.461 75.0179C208.495 74.7199 208.543 74.316 208.605 73.8062C208.667 73.301 208.721 72.7372 208.768 72.1146C208.814 71.4921 208.834 70.8602 208.826 70.2189L208.823 69.4203L210.86 69.2301ZM57.5379 112.752C57.222 112.781 56.932 112.782 56.6679 112.755C56.4042 112.732 56.2061 112.698 56.0735 112.653L56.4209 110.873C56.8172 110.941 57.1655 110.953 57.4659 110.911C57.7663 110.869 58.0221 110.731 58.2333 110.497C58.4492 110.263 58.6243 109.897 58.7585 109.399L58.9528 108.654L53.9513 98.0214L56.2141 97.8101L59.752 105.983L59.8651 105.972L61.8289 97.2859L64.0989 97.0739L60.7721 109.803C60.6175 110.388 60.3982 110.892 60.1142 111.313C59.8306 111.739 59.4764 112.071 59.0518 112.311C58.6271 112.55 58.1225 112.697 57.5379 112.752ZM71.3264 107.577C70.3081 107.672 69.3977 107.521 68.5951 107.126C67.7925 106.73 67.1422 106.132 66.6443 105.332C66.1464 104.532 65.845 103.571 65.7403 102.449C65.6351 101.322 65.7528 100.317 66.0936 99.4342C66.4344 98.5512 66.9625 97.8409 67.678 97.3033C68.3934 96.7657 69.2603 96.4494 70.2785 96.3543C71.2968 96.2592 72.2073 96.4096 73.0099 96.8055C73.8125 97.2013 74.4629 97.8016 74.9613 98.6063C75.4597 99.411 75.7615 100.377 75.8667 101.503C75.9714 102.625 75.8532 103.626 75.512 104.504C75.1707 105.382 74.6424 106.09 73.927 106.628C73.2116 107.165 72.3447 107.482 71.3264 107.577ZM71.1677 105.801C71.8277 105.74 72.3583 105.514 72.7595 105.125C73.1606 104.735 73.4378 104.241 73.5911 103.642C73.7491 103.042 73.7956 102.393 73.7304 101.696C73.6657 101.003 73.5002 100.376 73.2339 99.8161C72.9719 99.2509 72.6075 98.8118 72.1408 98.4987C71.6741 98.1856 71.1107 98.0599 70.4507 98.1215C69.786 98.1836 69.2509 98.4119 68.8455 98.8064C68.4448 99.2004 68.1656 99.6997 68.0081 100.304C67.8548 100.903 67.8105 101.549 67.8752 102.242C67.9403 102.94 68.1037 103.569 68.3653 104.13C68.6316 104.69 68.9979 105.124 69.4641 105.432C69.9352 105.74 70.503 105.863 71.1677 105.801ZM90.4593 101.025L89.8657 94.6681L91.9872 94.47L93.0013 105.332L90.9223 105.526L90.7467 103.645L90.6335 103.656C90.4378 104.259 90.0822 104.779 89.5667 105.217C89.0555 105.65 88.3921 105.905 87.5765 105.981C86.8788 106.046 86.2469 105.951 85.6809 105.694C85.1191 105.433 84.6566 105.013 84.2934 104.433C83.9349 103.853 83.7138 103.115 83.6302 102.219L82.9851 95.3105L85.0995 95.1131L85.7208 101.767C85.7899 102.508 86.05 103.078 86.5011 103.478C86.9522 103.878 87.5054 104.047 88.1607 103.986C88.5567 103.949 88.9411 103.814 89.3139 103.579C89.6914 103.344 89.9911 103.014 90.213 102.589C90.4396 102.164 90.5217 101.643 90.4593 101.025ZM97.3545 98.42L97.9567 104.869L95.8423 105.067L94.8281 94.2048L96.8577 94.0153L97.0227 95.7831L97.1571 95.7706C97.3533 95.1721 97.7014 94.6736 98.2016 94.275C98.7064 93.8759 99.3666 93.6383 100.182 93.5622C100.922 93.4931 101.585 93.5881 102.17 93.8473C102.755 94.1018 103.229 94.5188 103.593 95.0984C103.956 95.6779 104.179 96.4155 104.263 97.3113L104.908 104.22L102.794 104.418L102.172 97.7633C102.099 96.976 101.836 96.3799 101.385 95.975C100.933 95.5655 100.349 95.3941 99.6319 95.4611C99.1416 95.5068 98.7155 95.6536 98.3534 95.9014C97.9961 96.1488 97.7258 96.4879 97.5425 96.9187C97.3635 97.3444 97.3008 97.8448 97.3545 98.42ZM113.183 103.447L111.831 88.965L113.946 88.7676L114.448 94.149L114.575 94.1371C114.677 93.8994 114.829 93.6212 115.032 93.3027C115.236 92.9841 115.532 92.6949 115.922 92.435C116.311 92.1704 116.842 92.0067 117.516 91.9437C118.393 91.8618 119.196 92.0103 119.926 92.3892C120.656 92.7681 121.255 93.3565 121.724 94.1544C122.198 94.9519 122.49 95.9375 122.6 97.1114C122.709 98.2853 122.608 99.3101 122.295 100.186C121.981 101.057 121.504 101.75 120.863 102.267C120.221 102.778 119.462 103.075 118.585 103.157C117.925 103.219 117.375 103.158 116.934 102.976C116.499 102.793 116.149 102.564 115.886 102.289C115.622 102.014 115.416 101.767 115.267 101.548L115.091 101.565L115.248 103.255L113.183 103.447ZM114.748 97.8231C114.82 98.5868 114.993 99.2459 115.268 99.8004C115.543 100.355 115.906 100.775 116.356 101.061C116.806 101.343 117.334 101.455 117.943 101.398C118.574 101.339 119.087 101.123 119.48 100.748C119.872 100.369 120.15 99.8795 120.313 99.2794C120.48 98.6789 120.53 98.0156 120.462 97.2896C120.395 96.573 120.227 95.9396 119.957 95.3894C119.691 94.8388 119.329 94.4185 118.869 94.1286C118.414 93.8382 117.868 93.7227 117.231 93.7821C116.619 93.8394 116.115 94.0457 115.72 94.4012C115.33 94.7562 115.053 95.2267 114.889 95.8127C114.725 96.3987 114.678 97.0688 114.748 97.8231ZM130.075 102.091C129.056 102.187 128.146 102.036 127.343 101.64C126.541 101.244 125.891 100.647 125.393 99.8466C124.895 99.0466 124.593 98.0856 124.489 96.9636C124.383 95.8368 124.501 94.832 124.842 93.9489C125.183 93.0659 125.711 92.3555 126.426 91.818C127.142 91.2804 128.009 90.964 129.027 90.869C130.045 90.7739 130.956 90.9243 131.758 91.3201C132.561 91.716 133.211 92.3162 133.71 93.1209C134.208 93.9256 134.51 94.8913 134.615 96.0181C134.72 97.1401 134.602 98.1402 134.26 99.0186C133.919 99.8969 133.391 100.605 132.675 101.142C131.96 101.68 131.093 101.996 130.075 102.091ZM129.916 100.316C130.576 100.254 131.107 100.029 131.508 99.6394C131.909 99.25 132.186 98.7557 132.34 98.1565C132.498 97.5568 132.544 96.9081 132.479 96.2104C132.414 95.5174 132.249 94.8909 131.982 94.3308C131.72 93.7656 131.356 93.3264 130.889 93.0134C130.422 92.7003 129.859 92.5746 129.199 92.6362C128.534 92.6982 127.999 92.9265 127.594 93.321C127.193 93.7151 126.914 94.2143 126.756 94.8187C126.603 95.418 126.559 96.0641 126.624 96.7571C126.689 97.4548 126.852 98.0839 127.114 98.6444C127.38 99.2045 127.746 99.6387 128.213 99.9471C128.684 100.255 129.251 100.378 129.916 100.316ZM137.478 101.179L136.463 90.3173L138.493 90.1278L138.658 91.8957L138.792 91.8831C138.963 91.2633 139.289 90.762 139.772 90.3793C140.254 89.9919 140.853 89.7647 141.57 89.6978C142.296 89.63 142.92 89.743 143.442 90.0366C143.969 90.3298 144.378 90.7624 144.669 91.3344L144.782 91.3239C144.987 90.7198 145.356 90.2193 145.89 89.8223C146.423 89.4206 147.081 89.1832 147.864 89.1102C148.849 89.0182 149.682 89.2519 150.362 89.8114C151.046 90.3704 151.447 91.2722 151.563 92.5168L152.243 99.8005L150.129 99.9979L149.467 92.9122C149.398 92.1768 149.148 91.6628 148.717 91.3702C148.285 91.0776 147.791 90.9573 147.235 91.0092C146.547 91.0735 146.031 91.3356 145.689 91.7956C145.346 92.2508 145.206 92.8084 145.268 93.4684L145.914 100.391L143.807 100.588L143.132 93.3682C143.077 92.7789 142.849 92.3222 142.448 91.9983C142.047 91.6743 141.552 91.5399 140.963 91.5949C140.562 91.6323 140.202 91.7729 139.882 92.0168C139.567 92.2555 139.323 92.5707 139.15 92.9625C138.982 93.3539 138.921 93.7947 138.967 94.285L139.592 100.982L137.478 101.179ZM155.247 99.52L153.894 85.0376L156.009 84.8402L156.511 90.2216L156.638 90.2097C156.74 89.972 156.892 89.6938 157.096 89.3752C157.299 89.0567 157.595 88.7674 157.985 88.5076C158.374 88.243 158.905 88.0792 159.579 88.0163C160.456 87.9344 161.26 88.0829 161.989 88.4618C162.719 88.8407 163.318 89.4291 163.788 90.227C164.261 91.0244 164.553 92.0101 164.663 93.184C164.772 94.3578 164.671 95.3826 164.358 96.2583C164.044 97.1293 163.567 97.823 162.926 98.3394C162.284 98.8511 161.525 99.1478 160.648 99.2297C159.988 99.2913 159.438 99.231 158.997 99.0486C158.562 98.8657 158.212 98.6368 157.949 98.3618C157.685 98.0868 157.479 97.8398 157.33 97.6206L157.154 97.6371L157.311 99.3272L155.247 99.52ZM156.811 93.8957C156.883 94.6594 157.056 95.3185 157.331 95.8729C157.607 96.4274 157.969 96.8477 158.419 97.1338C158.869 97.4152 159.397 97.5275 160.006 97.4707C160.637 97.4117 161.15 97.1951 161.543 96.8207C161.935 96.4417 162.213 95.9521 162.376 95.352C162.543 94.7514 162.593 94.0882 162.525 93.3622C162.458 92.6456 162.29 92.0122 162.02 91.462C161.754 90.9114 161.392 90.4911 160.932 90.2011C160.477 89.9108 159.931 89.7953 159.295 89.8547C158.682 89.9119 158.178 90.1183 157.783 90.4737C157.393 90.8288 157.116 91.2993 156.952 91.8853C156.788 92.4712 156.741 93.1414 156.811 93.8957ZM172.138 98.164C171.12 98.2591 170.209 98.1087 169.407 97.7129C168.604 97.317 167.954 96.7191 167.456 95.9191C166.958 95.1191 166.657 94.1581 166.552 93.0361C166.447 91.9094 166.564 90.9045 166.905 90.0215C167.246 89.1384 167.774 88.4281 168.489 87.8905C169.205 87.3529 170.072 87.0366 171.09 86.9415C172.108 86.8464 173.019 86.9968 173.821 87.3927C174.624 87.7885 175.274 88.3888 175.773 89.1935C176.271 89.9982 176.573 90.9639 176.678 92.0906C176.783 93.2126 176.665 94.2128 176.323 95.0911C175.982 95.9695 175.454 96.6774 174.739 97.215C174.023 97.7526 173.156 98.0689 172.138 98.164ZM171.979 96.3884C172.639 96.3268 173.17 96.1013 173.571 95.7119C173.972 95.3226 174.249 94.8283 174.403 94.2291C174.561 93.6294 174.607 92.9807 174.542 92.283C174.477 91.59 174.312 90.9634 174.045 90.4034C173.783 89.8382 173.419 89.399 172.952 89.0859C172.486 88.7728 171.922 88.6471 171.262 88.7087C170.597 88.7708 170.062 88.9991 169.657 89.3936C169.256 89.7877 168.977 90.2869 168.82 90.8913C168.666 91.4905 168.622 92.1367 168.687 92.8297C168.752 93.5274 168.915 94.1565 169.177 94.717C169.443 95.277 169.809 95.7113 170.276 96.0196C170.747 96.3275 171.315 96.4505 171.979 96.3884ZM170.098 85.7145L171.448 82.3L173.676 82.0921L171.788 85.5567L170.098 85.7145ZM181.053 90.605L181.655 97.0543L179.541 97.2517L178.527 86.3898L180.556 86.2003L180.721 87.9682L180.856 87.9557C181.052 87.3572 181.4 86.8587 181.9 86.4601C182.405 86.061 183.065 85.8234 183.881 85.7473C184.621 85.6782 185.284 85.7732 185.869 86.0324C186.454 86.2869 186.928 86.7039 187.291 87.2835C187.654 87.863 187.878 88.6006 187.961 89.4964L188.606 96.4052L186.492 96.6026L185.871 89.9484C185.797 89.1611 185.535 88.565 185.083 88.1601C184.631 87.7506 184.047 87.5792 183.33 87.6461C182.84 87.6919 182.414 87.8387 182.052 88.0865C181.695 88.3339 181.424 88.673 181.241 89.1038C181.062 89.5295 180.999 90.0299 181.053 90.605ZM192.848 96.1447C192.461 96.1808 192.116 96.0752 191.812 95.8277C191.508 95.5755 191.338 95.2538 191.301 94.8625C191.265 94.4759 191.374 94.1329 191.626 93.8335C191.878 93.5294 192.198 93.3593 192.584 93.3232C192.971 93.2871 193.316 93.3952 193.62 93.6473C193.924 93.8948 194.094 94.2118 194.13 94.5984C194.154 94.8577 194.11 95.1019 193.999 95.3311C193.891 95.5551 193.737 95.7407 193.537 95.8878C193.337 96.0349 193.107 96.1205 192.848 96.1447ZM80.2159 134.332L77.8893 134.549L77.1099 124.215L79.0687 124.032L80.2159 134.332ZM77.6914 119.824C78.0732 119.788 78.4162 119.896 78.7203 120.148C79.024 120.396 79.1965 120.715 79.2377 121.106C79.2691 121.493 79.1587 121.838 78.9065 122.143C78.6539 122.442 78.3367 122.609 77.9548 122.645C77.5635 122.682 77.216 122.576 76.9124 122.329C76.6082 122.077 76.4405 121.757 76.4091 121.37C76.3797 121.106 76.4188 120.863 76.5263 120.639C76.6385 120.414 76.7947 120.228 76.995 120.081C77.1999 119.934 77.4321 119.848 77.6914 119.824ZM88.1168 125.156L90.2666 124.955L91.9641 126.787L92.7602 127.597L95.4654 130.519L93.2308 130.727L91.4224 128.778L90.7995 128.065L88.1168 125.156ZM95.1345 121.933C95.2789 123.479 95.1201 124.835 94.6583 126C94.196 127.161 93.5002 128.087 92.5708 128.777C91.6457 129.463 90.5585 129.864 89.3092 129.981C88.0551 130.098 86.9078 129.905 85.867 129.403C84.8305 128.896 83.9775 128.113 83.3079 127.053C82.6383 125.993 82.2315 124.693 82.0875 123.151C81.9432 121.605 82.1021 120.251 82.5644 119.09C83.0262 117.925 83.7197 117 84.6448 116.314C85.5742 115.623 86.6659 115.219 87.92 115.102C89.1693 114.986 90.3121 115.181 91.3486 115.688C92.3894 116.19 93.2446 116.971 93.9142 118.031C94.5833 119.086 94.9901 120.386 95.1345 121.933ZM92.9706 122.135C92.8606 120.956 92.577 119.982 92.1198 119.211C91.667 118.435 91.0912 117.871 90.3924 117.518C89.698 117.159 88.9359 117.019 88.1061 117.096C87.2717 117.174 86.5464 117.454 85.9303 117.934C85.3138 118.41 84.8524 119.072 84.5462 119.918C84.2444 120.76 84.1485 121.77 84.2585 122.948C84.3685 124.127 84.65 125.104 85.1029 125.88C85.56 126.65 86.1358 127.215 86.8303 127.573C87.5243 127.927 88.2885 128.064 89.123 127.987C89.9527 127.909 90.6758 127.632 91.2924 127.156C91.9132 126.675 92.3746 126.014 92.6764 125.172C92.9826 124.326 93.0807 123.313 92.9706 122.135ZM104.825 123.788L104.232 117.431L106.353 117.233L107.367 128.095L105.288 128.289L105.113 126.408L104.999 126.419C104.804 127.022 104.448 127.542 103.933 127.98C103.421 128.413 102.758 128.668 101.942 128.744C101.245 128.809 100.613 128.714 100.047 128.457C99.485 128.196 99.0225 127.776 98.6593 127.196C98.3008 126.616 98.0797 125.878 97.9961 124.982L97.351 118.074L99.4654 117.876L100.087 124.53C100.156 125.271 100.416 125.841 100.867 126.241C101.318 126.641 101.871 126.811 102.527 126.749C102.923 126.712 103.307 126.577 103.68 126.342C104.057 126.107 104.357 125.777 104.579 125.352C104.805 124.927 104.888 124.406 104.825 123.788ZM114.91 127.612C113.84 127.712 112.897 127.569 112.081 127.184C111.269 126.794 110.615 126.201 110.117 125.406C109.624 124.605 109.325 123.642 109.22 122.515C109.116 121.402 109.232 120.402 109.567 119.515C109.908 118.627 110.43 117.91 111.136 117.364C111.845 116.818 112.705 116.497 113.714 116.403C114.327 116.346 114.93 116.392 115.524 116.541C116.118 116.69 116.664 116.96 117.162 117.351C117.66 117.742 118.073 118.272 118.402 118.94C118.73 119.604 118.94 120.428 119.032 121.413L119.102 122.163L110.468 122.969L110.32 121.385L116.882 120.772C116.83 120.216 116.671 119.734 116.405 119.326C116.138 118.914 115.788 118.601 115.354 118.39C114.926 118.178 114.438 118.097 113.891 118.148C113.297 118.204 112.792 118.399 112.376 118.732C111.965 119.061 111.66 119.47 111.463 119.959C111.271 120.443 111.2 120.956 111.251 121.498L111.366 122.735C111.434 123.461 111.619 124.067 111.921 124.553C112.228 125.037 112.625 125.393 113.112 125.618C113.598 125.839 114.151 125.921 114.768 125.863C115.169 125.826 115.529 125.735 115.848 125.591C116.167 125.442 116.436 125.241 116.655 124.988C116.874 124.734 117.031 124.432 117.127 124.081L119.162 124.255C119.057 124.859 118.817 125.402 118.444 125.884C118.074 126.36 117.59 126.75 116.991 127.054C116.396 127.352 115.702 127.538 114.91 127.612ZM112.637 115.184L113.987 111.77L116.215 111.562L114.327 115.026L112.637 115.184ZM135.444 114.517L132.519 125.747L130.256 125.958L125.296 115.464L127.566 115.252L131.097 123.354L131.21 123.344L133.174 114.729L135.444 114.517ZM141.317 125.168C140.629 125.232 139.995 125.163 139.415 124.96C138.834 124.753 138.358 124.419 137.987 123.959C137.621 123.499 137.404 122.913 137.338 122.201C137.281 121.588 137.351 121.072 137.55 120.654C137.749 120.236 138.038 119.893 138.417 119.625C138.796 119.356 139.228 119.14 139.712 118.976C140.196 118.812 140.692 118.675 141.2 118.566C141.844 118.43 142.366 118.319 142.767 118.234C143.167 118.145 143.454 118.035 143.628 117.904C143.801 117.774 143.876 117.581 143.852 117.327L143.847 117.277C143.79 116.66 143.571 116.198 143.19 115.891C142.814 115.583 142.284 115.462 141.601 115.526C140.889 115.592 140.343 115.802 139.962 116.156C139.586 116.505 139.338 116.878 139.218 117.275L137.188 117.008C137.362 116.326 137.657 115.761 138.072 115.313C138.49 114.86 138.988 114.514 139.565 114.275C140.142 114.031 140.758 113.878 141.413 113.817C141.847 113.776 142.311 113.785 142.806 113.844C143.306 113.897 143.78 114.038 144.23 114.267C144.684 114.496 145.071 114.847 145.391 115.321C145.711 115.791 145.907 116.422 145.981 117.214L146.655 124.427L144.59 124.619L144.451 123.134L144.366 123.142C144.255 123.429 144.075 123.716 143.826 124.006C143.578 124.295 143.247 124.547 142.834 124.762C142.421 124.976 141.916 125.112 141.317 125.168ZM141.618 123.427C142.203 123.373 142.692 123.211 143.085 122.941C143.483 122.671 143.773 122.339 143.955 121.947C144.142 121.549 144.215 121.135 144.175 120.706L144.044 119.306C143.976 119.389 143.836 119.473 143.625 119.559C143.419 119.64 143.181 119.717 142.912 119.79C142.643 119.858 142.38 119.923 142.124 119.985C141.868 120.042 141.654 120.091 141.482 120.13C141.076 120.221 140.71 120.343 140.382 120.497C140.058 120.651 139.806 120.853 139.625 121.103C139.448 121.347 139.377 121.658 139.413 122.036C139.461 122.559 139.692 122.937 140.103 123.169C140.515 123.397 141.019 123.483 141.618 123.427ZM150.233 109.484L151.585 123.966L149.471 124.164L148.119 109.681L150.233 109.484ZM159.026 123.493C158.007 123.588 157.097 123.437 156.294 123.042C155.492 122.646 154.841 122.048 154.344 121.248C153.846 120.448 153.544 119.487 153.44 118.365C153.334 117.238 153.452 116.233 153.793 115.35C154.134 114.467 154.662 113.757 155.377 113.219C156.093 112.682 156.96 112.365 157.978 112.27C158.996 112.175 159.907 112.326 160.709 112.721C161.512 113.117 162.162 113.717 162.661 114.522C163.159 115.327 163.461 116.293 163.566 117.419C163.671 118.541 163.552 119.541 163.211 120.42C162.87 121.298 162.342 122.006 161.626 122.544C160.911 123.081 160.044 123.398 159.026 123.493ZM158.867 121.717C159.527 121.655 160.058 121.43 160.459 121.041C160.86 120.651 161.137 120.157 161.29 119.558C161.448 118.958 161.495 118.309 161.43 117.612C161.365 116.919 161.199 116.292 160.933 115.732C160.671 115.167 160.307 114.728 159.84 114.415C159.373 114.102 158.81 113.976 158.15 114.037C157.485 114.099 156.95 114.328 156.545 114.722C156.144 115.116 155.865 115.616 155.707 116.22C155.554 116.819 155.51 117.465 155.574 118.158C155.64 118.856 155.803 119.485 156.065 120.046C156.331 120.606 156.697 121.04 157.163 121.348C157.634 121.656 158.202 121.779 158.867 121.717ZM166.429 122.58L165.414 111.719L167.458 111.528L167.619 113.253L167.732 113.243C167.876 112.64 168.182 112.147 168.65 111.766C169.123 111.379 169.677 111.156 170.314 111.097C170.446 111.085 170.602 111.075 170.782 111.068C170.967 111.06 171.112 111.058 171.217 111.063L171.405 113.085C171.318 113.069 171.165 113.058 170.946 113.05C170.726 113.037 170.507 113.041 170.29 113.061C169.791 113.107 169.355 113.255 168.984 113.504C168.616 113.747 168.337 114.066 168.145 114.459C167.954 114.848 167.88 115.278 167.924 115.75L168.543 122.383L166.429 122.58ZM175.385 107.135L176.164 117.47L174.205 117.653L173.058 107.353L175.385 107.135ZM175.59 121.861C175.199 121.897 174.851 121.792 174.547 121.544C174.243 121.292 174.075 120.97 174.043 120.578C174.003 120.192 174.109 119.849 174.361 119.55C174.613 119.246 174.935 119.076 175.326 119.039C175.708 119.003 176.051 119.112 176.355 119.364C176.659 119.611 176.831 119.928 176.872 120.314C176.892 120.574 176.845 120.818 176.734 121.048C176.626 121.272 176.472 121.457 176.272 121.604C176.072 121.751 175.844 121.837 175.59 121.861Z" fill="#0025CB"/>
</svg>
