<svg width="224" height="158" viewBox="0 0 224 158" fill="none" xmlns="http://www.w3.org/2000/svg">
<path d="M190.743 58.6777C189.106 58.4959 187.494 58.4664 185.903 58.5618C187.547 55.4657 188.653 52.015 189.064 48.3149C190.799 32.69 179.596 18.6207 164.041 16.8928C154.993 15.8877 146.468 19.285 140.577 25.3741C136.095 18.6181 128.786 13.8245 120.122 12.862C110.833 11.8301 102.095 15.4351 96.1926 21.8312C91.8337 14.2952 84.1039 8.86084 74.815 7.82897C59.2608 6.1011 45.2425 17.3685 43.5068 32.9934C43.1231 36.4472 43.3752 39.8265 44.1636 43.0114C42.6629 42.5817 41.1086 42.2684 39.5032 42.0901C23.949 40.3622 9.93073 51.6297 8.19501 67.2546C6.45929 82.8795 17.663 96.9488 33.2172 98.6766C35.0812 98.8837 36.926 98.8981 38.7302 98.7494C36.7397 102.12 35.4059 105.958 34.9451 110.106C33.2094 125.731 44.4131 139.8 59.9673 141.528C69.2561 142.56 77.9947 138.955 83.8962 132.563C88.2551 140.099 95.9855 145.529 105.274 146.561C114.322 147.566 122.848 144.169 128.739 138.08C133.22 144.836 140.529 149.629 149.194 150.592C164.748 152.32 178.766 141.052 180.502 125.427C180.932 121.557 180.566 117.784 179.539 114.269C181.121 114.735 182.762 115.08 184.456 115.269C200.011 116.997 214.029 105.729 215.765 90.1043C217.501 74.4749 206.297 60.4056 190.743 58.6777Z" fill="white" stroke="#0025CB" stroke-width="2" stroke-miterlimit="10"/>
<path d="M87.0299 39.2593L85.424 53.7158L83.4192 53.4931L77.2488 42.0744L77.1147 42.0595L75.9369 52.6619L73.7557 52.4196L75.3616 37.9631L77.3804 38.1874L83.5564 49.621L83.6905 49.6359L84.8699 39.0193L87.0299 39.2593ZM92.9791 54.7766C91.9626 54.6637 91.1014 54.3322 90.3955 53.7822C89.6896 53.2321 89.1738 52.515 88.848 51.6308C88.5223 50.7467 88.4216 49.7446 88.546 48.6246C88.6709 47.4998 88.9896 46.5396 89.502 45.7437C90.0144 44.9479 90.6753 44.3591 91.4847 43.9774C92.2941 43.5957 93.2071 43.4613 94.2235 43.5742C95.24 43.6871 96.1012 44.0186 96.8071 44.5687C97.513 45.1187 98.0286 45.8382 98.3538 46.7271C98.6791 47.6159 98.7792 48.6227 98.6543 49.7475C98.5299 50.8675 98.2117 51.823 97.6998 52.6141C97.188 53.4053 96.5273 53.9917 95.7179 54.3734C94.9085 54.7551 93.9956 54.8895 92.9791 54.7766ZM93.183 53.0056C93.8418 53.0788 94.407 52.9653 94.8787 52.6652C95.3503 52.3651 95.7218 51.9371 95.9931 51.3812C96.2692 50.8259 96.4459 50.2001 96.5233 49.5036C96.6001 48.8118 96.5648 48.1648 96.4174 47.5624C96.2751 46.9559 96.0071 46.4521 95.6134 46.0511C95.2197 45.65 94.6934 45.4129 94.0346 45.3397C93.371 45.266 92.8008 45.3813 92.324 45.6856C91.8518 45.9905 91.4775 46.4229 91.2009 46.9829C90.9295 47.5387 90.7554 48.1625 90.6786 48.8543C90.6012 49.5508 90.6339 50.1999 90.7766 50.8018C90.9241 51.4041 91.195 51.9035 91.5892 52.2998C91.9882 52.6966 92.5194 52.9319 93.183 53.0056ZM100.413 55.3809L101.618 44.5386L103.658 44.7652L103.467 46.4875L103.579 46.5001C103.842 45.9385 104.241 45.5184 104.777 45.2397C105.318 44.9568 105.907 44.8506 106.542 44.9212C106.674 44.9358 106.828 44.9578 107.006 44.9871C107.189 45.0169 107.331 45.0446 107.433 45.0702L107.209 47.089C107.126 47.0561 106.979 47.0135 106.765 46.9612C106.553 46.9042 106.338 46.8637 106.121 46.8396C105.623 46.7842 105.166 46.8407 104.752 47.0091C104.343 47.1733 104.005 47.4287 103.738 47.7754C103.471 48.1173 103.312 48.5236 103.26 48.9942L102.524 55.6154L100.413 55.3809ZM108.042 56.2284L109.247 45.386L111.273 45.6111L111.077 47.3758L111.211 47.3907C111.503 46.8181 111.924 46.3933 112.474 46.1161C113.025 45.8343 113.658 45.7331 114.373 45.8126C115.098 45.8931 115.686 46.1299 116.138 46.5231C116.594 46.9168 116.907 47.4232 117.077 48.0423L117.19 48.0549C117.513 47.5048 117.976 47.0893 118.579 46.8085C119.182 46.523 119.874 46.4237 120.655 46.5105C121.639 46.6197 122.407 47.0171 122.96 47.7026C123.517 48.3886 123.727 49.3527 123.589 50.5951L122.781 57.8657L120.671 57.6313L121.456 50.5583C121.538 49.8242 121.397 49.2702 121.034 48.8963C120.67 48.5225 120.211 48.3047 119.655 48.243C118.968 48.1667 118.411 48.3191 117.983 48.7003C117.555 49.0768 117.304 49.5945 117.231 50.2533L116.463 57.1639L114.36 56.9302L115.161 49.7231C115.226 49.1349 115.095 48.6416 114.768 48.2431C114.44 47.8447 113.982 47.6128 113.394 47.5475C112.994 47.5031 112.613 47.5679 112.251 47.742C111.894 47.912 111.591 48.1713 111.342 48.5201C111.099 48.8694 110.95 49.2887 110.895 49.7781L110.153 56.4629L108.042 56.2284ZM128.739 58.7705C128.052 58.6941 127.445 58.4981 126.917 58.1823C126.391 57.8618 125.992 57.4388 125.722 56.9133C125.456 56.3883 125.363 55.7705 125.442 55.06C125.51 54.4482 125.684 53.9577 125.963 53.5886C126.242 53.2194 126.594 52.9418 127.02 52.7556C127.446 52.5694 127.912 52.445 128.419 52.3822C128.926 52.3195 129.44 52.286 129.96 52.2818C130.617 52.2787 131.151 52.276 131.561 52.2739C131.972 52.2671 132.275 52.2174 132.471 52.1249C132.667 52.0323 132.779 51.859 132.808 51.6049L132.813 51.5555C132.881 50.939 132.76 50.442 132.45 50.0645C132.144 49.6875 131.65 49.4611 130.967 49.3853C130.257 49.3064 129.679 49.4018 129.235 49.6716C128.796 49.9373 128.477 50.252 128.28 50.616L126.346 49.9439C126.655 49.3112 127.057 48.8176 127.554 48.463C128.056 48.1043 128.614 47.8661 129.227 47.7485C129.841 47.6261 130.475 47.6013 131.129 47.6739C131.562 47.722 132.015 47.8248 132.488 47.9821C132.967 48.1353 133.403 48.3696 133.796 48.6848C134.195 49.0007 134.503 49.4231 134.72 49.9523C134.938 50.4767 135.004 51.1342 134.916 51.9248L134.116 59.1249L132.055 58.8959L132.219 57.4135L132.135 57.4041C131.968 57.6619 131.733 57.9074 131.431 58.1406C131.129 58.3738 130.754 58.5537 130.306 58.6802C129.859 58.8068 129.336 58.8369 128.739 58.7705ZM129.386 57.1273C129.969 57.1921 130.481 57.1323 130.921 56.9477C131.365 56.7636 131.716 56.4977 131.974 56.15C132.237 55.7981 132.392 55.408 132.44 54.9798L132.595 53.5821C132.511 53.6491 132.358 53.7035 132.134 53.7453C131.915 53.7829 131.667 53.8101 131.389 53.8269C131.111 53.8389 130.841 53.8494 130.578 53.8583C130.315 53.8625 130.096 53.8666 129.919 53.8708C129.504 53.8771 129.12 53.9226 128.768 54.0073C128.42 54.0926 128.132 54.2392 127.904 54.4473C127.681 54.6513 127.549 54.9415 127.507 55.3179C127.449 55.8403 127.598 56.257 127.954 56.5681C128.311 56.8745 128.788 57.0609 129.386 57.1273ZM140.644 45.2151L139.038 59.6716L136.927 59.4371L138.533 44.9806L140.644 45.2151ZM146.526 60.725C145.458 60.6063 144.563 60.2758 143.842 59.7336C143.126 59.1873 142.605 58.4743 142.279 57.5949C141.958 56.7112 141.86 55.707 141.984 54.5823C142.108 53.4717 142.424 52.5159 142.932 51.7148C143.445 50.9143 144.102 50.3179 144.903 49.9258C145.709 49.5341 146.615 49.3942 147.622 49.5061C148.234 49.574 148.815 49.7411 149.367 50.0072C149.919 50.2734 150.399 50.6482 150.807 51.1319C151.216 51.6155 151.513 52.2179 151.7 52.9389C151.887 53.6553 151.926 54.5052 151.817 55.4887L151.734 56.237L143.115 55.2795L143.29 53.6984L149.841 54.426C149.903 53.8707 149.844 53.3664 149.666 52.9131C149.488 52.4551 149.208 52.0786 148.827 51.7837C148.45 51.4893 147.988 51.3118 147.442 51.2512C146.849 51.1853 146.316 51.2737 145.841 51.5163C145.371 51.7548 144.991 52.0936 144.699 52.5328C144.412 52.9679 144.239 53.456 144.179 53.9972L144.042 55.2325C143.961 55.9572 144.02 56.5878 144.217 57.1242C144.42 57.6612 144.737 58.0894 145.168 58.4089C145.6 58.7237 146.124 58.9153 146.741 58.9838C147.141 59.0282 147.512 59.0122 147.854 58.9359C148.196 58.8548 148.5 58.7124 148.766 58.5084C149.031 58.3045 149.247 58.0402 149.411 57.7155L151.369 58.2974C151.144 58.8678 150.799 59.3513 150.336 59.7476C149.878 60.1398 149.325 60.4237 148.676 60.5994C148.033 60.7709 147.316 60.8128 146.526 60.725ZM162.579 53.9902L160.628 54.1166C160.575 53.863 160.474 53.6159 160.325 53.3754C160.18 53.1354 159.969 52.9286 159.693 52.755C159.417 52.5814 159.06 52.4703 158.623 52.4217C158.025 52.3553 157.511 52.434 157.081 52.6578C156.652 52.8769 156.414 53.1959 156.368 53.6147C156.328 53.9771 156.429 54.2837 156.673 54.5347C156.917 54.7857 157.329 55.0149 157.911 55.2225L159.59 55.8091C160.562 56.1506 161.266 56.5885 161.702 57.1228C162.138 57.6572 162.314 58.3079 162.228 59.075C162.156 59.7244 161.904 60.2823 161.471 60.7487C161.043 61.2109 160.479 61.5485 159.779 61.7613C159.084 61.9747 158.298 62.0327 157.423 61.9355C156.209 61.8006 155.247 61.4317 154.537 60.8289C153.828 60.2213 153.44 59.4279 153.373 58.4485L155.447 58.3645C155.515 58.9104 155.732 59.3418 156.097 59.6586C156.462 59.9708 156.962 60.1622 157.598 60.2327C158.29 60.3096 158.858 60.2275 159.304 59.9864C159.751 59.7406 159.997 59.4084 160.044 58.9895C160.082 58.6507 159.986 58.3519 159.758 58.0931C159.534 57.8348 159.17 57.618 158.665 57.4429L156.875 56.8367C155.888 56.4937 155.181 56.0435 154.752 55.4861C154.328 54.9293 154.159 54.265 154.245 53.4932C154.316 52.8532 154.557 52.313 154.968 51.8728C155.379 51.4325 155.914 51.1133 156.575 50.9151C157.236 50.7122 157.973 50.656 158.787 50.7464C159.959 50.8766 160.853 51.2332 161.47 51.8162C162.087 52.3944 162.456 53.1191 162.579 53.9902ZM105.486 69.4817L108.201 81.7028L108.364 81.7209L113.695 70.3937L116.053 70.6556L109.244 84.5342L106.724 84.2542L103.128 69.2198L105.486 69.4817ZM125.603 75.561C125.602 74.8844 125.349 74.3323 124.844 73.9046C124.339 73.4722 123.673 73.21 122.845 73.118C122.252 73.0521 121.728 73.0892 121.275 73.2294C120.821 73.3648 120.457 73.5816 120.18 73.8796C119.91 74.1735 119.751 74.5251 119.706 74.9345C119.668 75.278 119.715 75.5834 119.847 75.8506C119.984 76.1183 120.175 76.3515 120.42 76.5502C120.67 76.7447 120.941 76.9154 121.235 77.0623C121.529 77.2045 121.813 77.3266 122.087 77.4286L123.458 77.9525C123.907 78.1166 124.363 78.3221 124.826 78.5689C125.289 78.8157 125.711 79.1197 126.09 79.481C126.469 79.8423 126.759 80.27 126.962 80.7642C127.169 81.2588 127.236 81.8308 127.164 82.4802C127.073 83.2991 126.781 84.0026 126.287 84.5908C125.797 85.1796 125.132 85.6131 124.291 85.8913C123.455 86.17 122.473 86.2466 121.343 86.1212C120.261 86.0009 119.343 85.7251 118.591 85.2938C117.838 84.8624 117.274 84.3066 116.897 83.6264C116.52 82.9414 116.357 82.161 116.407 81.2852L118.595 81.5283C118.579 82.0553 118.7 82.5095 118.958 82.8906C119.221 83.2676 119.576 83.5667 120.023 83.7879C120.475 84.0048 120.981 84.1444 121.541 84.2066C122.158 84.2751 122.717 84.2396 123.218 84.0999C123.725 83.9561 124.137 83.7255 124.453 83.4081C124.77 83.086 124.954 82.6897 125.007 82.2191C125.054 81.7909 124.971 81.4267 124.756 81.1266C124.547 80.827 124.245 80.5647 123.85 80.3399C123.461 80.1156 123.015 79.9065 122.512 79.7125L120.856 79.0568C119.733 78.613 118.867 78.0475 118.257 77.3604C117.652 76.6739 117.406 75.8271 117.518 74.8201C117.61 73.9871 117.917 73.2851 118.438 72.7141C118.958 72.1432 119.624 71.7288 120.434 71.471C121.244 71.2085 122.134 71.1311 123.104 71.2387C124.082 71.3475 124.927 71.6152 125.637 72.0418C126.352 72.469 126.892 73.0078 127.258 73.6583C127.625 74.304 127.774 75.0162 127.707 75.7947L125.603 75.561ZM78.0225 110.244L79.6284 95.7877L81.8096 96.03L80.4122 108.609L86.9629 109.337L86.7543 111.214L78.0225 110.244ZM99.5617 102.625C99.4728 102.182 99.3319 101.778 99.139 101.414C98.9512 101.045 98.7131 100.723 98.4244 100.448C98.1363 100.169 97.797 99.9426 97.4064 99.7706C97.0205 99.5991 96.5875 99.4867 96.1075 99.4334C95.2934 99.3429 94.536 99.4708 93.8354 99.817C93.1347 100.163 92.5489 100.72 92.0778 101.487C91.6119 102.25 91.3142 103.215 91.1845 104.382C91.0543 105.554 91.1349 106.565 91.4262 107.417C91.7174 108.269 92.1715 108.941 92.7886 109.433C93.4056 109.926 94.1376 110.219 94.9847 110.313C95.7705 110.401 96.473 110.317 97.0921 110.062C97.7159 109.807 98.2202 109.406 98.605 108.858C98.9951 108.305 99.2343 107.632 99.3226 106.836L99.8756 107.005L95.7391 106.546L95.939 104.746L101.621 105.377L101.439 107.022C101.304 108.236 100.928 109.261 100.311 110.098C99.6992 110.93 98.9123 111.538 97.9502 111.922C96.9928 112.306 95.9306 112.434 94.7635 112.304C93.4553 112.159 92.3405 111.73 91.4192 111.018C90.5026 110.306 89.8304 109.367 89.4026 108.2C88.9754 107.028 88.8465 105.68 89.0159 104.155C89.144 103.002 89.419 101.985 89.8409 101.103C90.2628 100.22 90.7988 99.4916 91.4487 98.9158C92.1038 98.336 92.8432 97.9203 93.6667 97.6687C94.4955 97.413 95.3781 97.3372 96.3145 97.4412C97.0957 97.528 97.81 97.7241 98.4573 98.0294C99.1093 98.3353 99.6754 98.7292 100.155 99.2113C100.64 99.6939 101.024 100.246 101.308 100.869C101.592 101.486 101.755 102.155 101.799 102.874L99.5617 102.625ZM103.651 100.357L103.86 98.4795L115.048 99.7223L114.839 101.6L110.329 101.099L108.931 113.678L106.757 113.436L108.155 100.857L103.651 100.357ZM115.914 114.454L117.52 99.997L122.814 100.585C123.84 100.699 124.671 100.963 125.306 101.376C125.942 101.785 126.395 102.295 126.666 102.907C126.936 103.513 127.032 104.174 126.953 104.889C126.886 105.492 126.719 105.988 126.451 106.377C126.185 106.762 125.852 107.059 125.452 107.267C125.058 107.471 124.633 107.604 124.179 107.668L124.163 107.809C124.64 107.886 125.091 108.094 125.516 108.431C125.946 108.765 126.282 109.21 126.525 109.765C126.768 110.321 126.848 110.973 126.765 111.721C126.683 112.46 126.435 113.105 126.022 113.654C125.613 114.199 125.03 114.604 124.272 114.867C123.514 115.126 122.576 115.193 121.456 115.069L115.914 114.454ZM118.303 112.825L121.452 113.175C122.496 113.291 123.267 113.172 123.764 112.817C124.261 112.463 124.543 111.982 124.61 111.375C124.661 110.918 124.592 110.487 124.404 110.08C124.215 109.673 123.92 109.333 123.517 109.06C123.118 108.787 122.627 108.618 122.044 108.553L118.818 108.195L118.303 112.825ZM119.007 106.493L121.929 106.818C122.419 106.872 122.869 106.827 123.28 106.682C123.697 106.538 124.039 106.309 124.307 105.996C124.581 105.679 124.743 105.287 124.795 104.821C124.861 104.223 124.708 103.699 124.334 103.248C123.96 102.797 123.34 102.523 122.474 102.427L119.495 102.096L119.007 106.493ZM132.707 101.684L131.102 116.141L128.92 115.898L130.526 101.442L132.707 101.684ZM138.628 114.518L139.688 104.975L141.587 105.186L140.527 114.729L138.628 114.518ZM135.234 110.268L135.444 108.377L144.988 109.437L144.777 111.329L135.234 110.268Z" fill="#0025CB"/>
</svg>
