<svg width="153" height="99" viewBox="0 0 153 99" fill="none" xmlns="http://www.w3.org/2000/svg">
<path d="M144.964 61.5969C143.238 71.2648 134.256 78.9302 120.629 83.3323C107.049 87.7193 89.1144 88.7613 70.0614 85.3601C51.0083 81.9588 34.542 74.7756 23.3188 65.9609C12.0569 57.1158 6.28147 46.8159 8.00736 37.1479C9.73325 27.4799 18.7157 19.8145 32.3425 15.4124C45.9224 11.0255 63.8571 9.98339 82.9101 13.3847C101.963 16.7859 118.429 23.9691 129.653 32.7838C140.915 41.629 146.69 51.9289 144.964 61.5969Z" fill="white" stroke="#0025CB" stroke-width="2"/>
<path d="M64.469 27.8404L66.1917 28.1479L64.7421 36.2695C64.611 37.0041 64.3534 37.6065 63.9693 38.0766C63.589 38.5474 63.1132 38.8742 62.5419 39.0569C61.9713 39.236 61.3354 39.2629 60.6344 39.1378C59.9893 39.0226 59.4304 38.8017 58.9577 38.4749C58.4888 38.1488 58.1451 37.7354 57.9267 37.2347C57.7126 36.7309 57.6632 36.1564 57.7783 35.5113L59.4955 35.8178C59.4389 36.1348 59.4627 36.4218 59.5669 36.679C59.6748 36.9368 59.8457 37.1539 60.0797 37.3304C60.3181 37.5038 60.6051 37.6204 60.9407 37.6803C61.3061 37.7455 61.6293 37.7243 61.9102 37.6167C62.1954 37.506 62.4321 37.3116 62.6203 37.0335C62.8084 36.7555 62.9414 36.3983 63.0193 35.962L64.469 27.8404ZM70.1164 40.8476C69.311 40.7038 68.641 40.3938 68.1065 39.9175C67.5721 39.4411 67.1981 38.8415 66.9847 38.1185C66.7713 37.3955 66.7439 36.5903 66.9023 35.7028C67.0613 34.8115 67.3664 34.0618 67.8174 33.4536C68.2684 32.8453 68.8271 32.4102 69.4933 32.1482C70.1596 31.8862 70.8954 31.8271 71.7009 31.9709C72.5063 32.1146 73.1763 32.4247 73.7107 32.901C74.2452 33.3773 74.6188 33.9788 74.8315 34.7056C75.0443 35.4323 75.0711 36.2412 74.912 37.1325C74.7536 38.02 74.4492 38.766 73.9989 39.3705C73.5485 39.975 72.9902 40.4082 72.324 40.6702C71.6577 40.9322 70.9219 40.9914 70.1164 40.8476ZM70.3726 39.4446C70.8947 39.5378 71.3518 39.4771 71.7442 39.2624C72.1365 39.0477 72.4556 38.7256 72.7016 38.2962C72.9512 37.8675 73.1253 37.3772 73.2238 36.8254C73.3217 36.2772 73.3276 35.7588 73.2417 35.2702C73.1601 34.7785 72.9728 34.3622 72.6797 34.0213C72.3865 33.6804 71.9789 33.4634 71.4569 33.3702C70.9311 33.2764 70.4698 33.3383 70.0731 33.5561C69.6801 33.7745 69.3585 34.1 69.1082 34.5324C68.8622 34.9618 68.6903 35.4505 68.5925 35.9987C68.494 36.5506 68.4858 37.0705 68.568 37.5584C68.654 38.047 68.8438 38.4599 69.1376 38.7971C69.4352 39.135 69.8468 39.3508 70.3726 39.4446ZM76.0191 41.7223L77.5526 33.1308L79.1691 33.4193L78.9255 34.7841L79.015 34.8001C79.2541 34.3657 79.595 34.0513 80.0375 33.8571C80.4844 33.6599 80.9596 33.6062 81.463 33.696C81.5674 33.7147 81.6898 33.7404 81.8301 33.7731C81.9742 33.8065 82.0863 33.8361 82.1663 33.862L81.8808 35.4617C81.817 35.4311 81.7014 35.3893 81.5338 35.3363C81.3669 35.2795 81.1977 35.2359 81.0262 35.2053C80.6309 35.1347 80.2636 35.1557 79.9241 35.2683C79.5891 35.3778 79.3057 35.5638 79.0742 35.8265C78.8433 36.0854 78.6945 36.4013 78.628 36.7742L77.6915 42.0208L76.0191 41.7223ZM84.7516 46.7901C84.0692 46.6683 83.4979 46.474 83.0376 46.2072C82.5811 45.941 82.2244 45.633 81.9674 45.2831C81.7105 44.9333 81.5369 44.5695 81.4466 44.1917L82.9899 43.8554C83.0613 44.0374 83.1646 44.2348 83.2998 44.4474C83.438 44.6645 83.6409 44.8642 83.9085 45.0467C84.1798 45.2298 84.5466 45.3626 85.009 45.4451C85.6429 45.5583 86.1945 45.497 86.6636 45.2614C87.1321 45.0295 87.4263 44.578 87.5461 43.9068L87.8476 42.2175L87.7413 42.1986C87.608 42.3633 87.4263 42.5406 87.1962 42.7304C86.9698 42.9208 86.6779 43.0688 86.3205 43.1743C85.9631 43.2798 85.5215 43.2856 84.9957 43.1918C84.317 43.0707 83.7337 42.803 83.2459 42.3889C82.7624 41.9717 82.4178 41.4234 82.212 40.7441C82.0106 40.0617 81.9914 39.2638 82.1545 38.3502C82.3176 37.4366 82.6121 36.6811 83.0381 36.0838C83.4678 35.4872 83.9858 35.064 84.5921 34.8144C85.1991 34.5611 85.8475 34.496 86.5374 34.6191C87.0706 34.7143 87.4854 34.8806 87.7816 35.1182C88.0784 35.352 88.2972 35.6027 88.438 35.8703C88.5825 36.1385 88.6892 36.371 88.7579 36.568L88.881 36.59L89.1296 35.1972L90.7684 35.4897L89.2009 44.2714C89.0692 45.0097 88.7895 45.5851 88.3619 45.9974C87.9343 46.4097 87.4075 46.6774 86.7814 46.8004C86.1591 46.924 85.4825 46.9206 84.7516 46.7901ZM85.6124 41.8705C86.0935 41.9564 86.5199 41.9171 86.8917 41.7526C87.2679 41.585 87.5794 41.3059 87.8261 40.9151C88.0773 40.5213 88.2558 40.0279 88.3616 39.435C88.4648 38.857 88.4698 38.3327 88.3769 37.8621C88.2839 37.3915 88.0934 37.0035 87.8054 36.6981C87.5182 36.389 87.1303 36.1909 86.6418 36.1037C86.1384 36.0139 85.6956 36.0695 85.3134 36.2706C84.9318 36.468 84.6157 36.7733 84.365 37.1864C84.118 37.6002 83.9455 38.0812 83.8477 38.6293C83.7472 39.1924 83.7448 39.7018 83.8404 40.1575C83.9361 40.6132 84.1304 40.9904 84.4234 41.2889C84.7201 41.5881 85.1165 41.782 85.6124 41.8705ZM95.1497 45.3159C94.3033 45.1648 93.6065 44.8538 93.0596 44.383C92.517 43.9091 92.1386 43.3125 91.9246 42.5932C91.7149 41.8709 91.6896 41.0641 91.8487 40.1729C92.0058 39.2929 92.3083 38.5465 92.7562 37.9339C93.2079 37.3219 93.7638 36.8805 94.424 36.6097C95.0878 36.3396 95.8187 36.2758 96.6167 36.4182C97.1015 36.5047 97.557 36.6688 97.9833 36.9103C98.4096 37.1519 98.773 37.4764 99.0735 37.8841C99.374 38.2917 99.5797 38.7882 99.6907 39.3737C99.8023 39.9554 99.7886 40.6359 99.6495 41.4152L99.5437 42.0081L92.7141 40.7891L92.9377 39.5362L98.1284 40.4627C98.207 40.0227 98.187 39.617 98.0686 39.2457C97.9509 38.8707 97.7474 38.5554 97.4583 38.2999C97.1729 38.045 96.8139 37.879 96.3813 37.8018C95.9115 37.7179 95.4806 37.7603 95.0889 37.9289C94.7015 38.0945 94.3797 38.3449 94.1237 38.6801C93.872 39.0123 93.7079 39.3927 93.6313 39.8216L93.4566 40.8004C93.3541 41.3747 93.3676 41.8811 93.4971 42.3198C93.6303 42.7591 93.8606 43.1177 94.1881 43.3955C94.5163 43.6695 94.9246 43.8501 95.4131 43.9373C95.7301 43.9939 96.0271 44.0007 96.3041 43.9578C96.5817 43.9112 96.832 43.8135 97.0547 43.6647C97.2775 43.516 97.4632 43.3163 97.6118 43.0658L99.1439 43.6336C98.9339 44.0771 98.6335 44.4448 98.2428 44.7368C97.8565 45.0257 97.3999 45.2231 96.8731 45.3292C96.3506 45.4322 95.7762 45.4277 95.1497 45.3159ZM33.3926 53.6102C32.8482 53.513 32.3739 53.3245 31.9699 53.0446C31.5665 52.7609 31.2707 52.4023 31.0826 51.9685C30.8983 51.5355 30.8564 51.0374 30.9569 50.4743C31.0434 49.9896 31.2078 49.6072 31.4502 49.3272C31.6926 49.0473 31.9885 48.8442 32.3381 48.7181C32.6877 48.592 33.0665 48.5172 33.4747 48.4939C33.8829 48.4706 34.2945 48.4709 34.7097 48.495C35.2349 48.5272 35.6612 48.5533 35.9885 48.5732C36.3165 48.5894 36.5613 48.5658 36.7227 48.5022C36.8841 48.4387 36.9827 48.3063 37.0187 48.1049L37.0257 48.0657C37.1129 47.5772 37.0424 47.1741 36.8144 46.8564C36.5901 46.5393 36.2076 46.3325 35.6669 46.236C35.1039 46.1355 34.6378 46.1812 34.2688 46.3732C33.9042 46.562 33.6334 46.7965 33.4564 47.0766L31.9486 46.4381C32.2282 45.9493 32.5756 45.5765 32.9909 45.3197C33.4105 45.0599 33.8682 44.8991 34.364 44.8376C34.8605 44.7723 35.3679 44.7859 35.8862 44.8784C36.2292 44.9397 36.5855 45.0456 36.9549 45.1962C37.3288 45.3437 37.6645 45.5537 37.9622 45.8261C38.2636 46.0993 38.4871 46.4527 38.6329 46.8866C38.7793 47.3168 38.7965 47.8451 38.6847 48.4715L37.6664 54.1768L36.0331 53.8853L36.2427 52.7107L36.1756 52.6987C36.0289 52.8957 35.8287 53.0793 35.5752 53.2495C35.3216 53.4197 35.0129 53.5435 34.6489 53.6209C34.2849 53.6983 33.8662 53.6947 33.3926 53.6102ZM33.9958 52.3327C34.4582 52.4152 34.8698 52.3944 35.2305 52.2703C35.595 52.1468 35.8893 51.9531 36.1134 51.6891C36.3419 51.4221 36.4865 51.1189 36.547 50.7795L36.7447 49.672C36.6744 49.7211 36.5488 49.7564 36.368 49.7779C36.1915 49.7965 35.9918 49.8051 35.7689 49.8038C35.5466 49.7987 35.3303 49.7928 35.1199 49.786C34.9101 49.7755 34.7346 49.7673 34.5933 49.7613C34.2615 49.7444 33.9528 49.7605 33.667 49.8095C33.3849 49.8592 33.1474 49.9611 32.9545 50.1152C32.7659 50.2662 32.645 50.4909 32.5917 50.7892C32.5179 51.2031 32.6148 51.5437 32.8827 51.8108C33.1512 52.0742 33.5222 52.2481 33.9958 52.3327ZM42.8891 58.6182C42.2067 58.4964 41.6353 58.3021 41.1751 58.0352C40.7185 57.769 40.3618 57.461 40.1049 57.1112C39.848 56.7614 39.6743 56.3975 39.584 56.0197L41.1273 55.6834C41.1987 55.8655 41.302 56.0628 41.4372 56.2755C41.5755 56.4925 41.7784 56.6923 42.0459 56.8747C42.3172 57.0578 42.6841 57.1906 43.1465 57.2732C43.7804 57.3863 44.3319 57.3251 44.8011 57.0895C45.2696 56.8576 45.5637 56.406 45.6835 55.7348L45.985 54.0456L45.8788 54.0266C45.7455 54.1914 45.5638 54.3686 45.3337 54.5584C45.1073 54.7489 44.8154 54.8969 44.4579 55.0024C44.1005 55.1079 43.6589 55.1137 43.1331 55.0198C42.4544 54.8987 41.8712 54.6311 41.3833 54.2169C40.8999 53.7997 40.5552 53.2515 40.3494 52.5722C40.148 51.8898 40.1289 51.0918 40.2919 50.1782C40.455 49.2646 40.7495 48.5092 41.1755 47.9119C41.6052 47.3152 42.1232 46.8921 42.7296 46.6425C43.3366 46.3891 43.985 46.324 44.6748 46.4471C45.2081 46.5423 45.6228 46.7087 45.919 46.9463C46.2159 47.1801 46.4347 47.4308 46.5755 47.6983C46.72 47.9665 46.8266 48.1991 46.8953 48.3961L47.0184 48.418L47.267 47.0253L48.9059 47.3178L47.3384 56.0995C47.2066 56.8378 46.9269 57.4131 46.4993 57.8255C46.0717 58.2378 45.5449 58.5055 44.9189 58.6284C44.2965 58.7521 43.6199 58.7486 42.8891 58.6182ZM43.7499 53.6986C44.2309 53.7844 44.6573 53.7451 45.0291 53.5806C45.4054 53.4131 45.7168 53.1339 45.9636 52.7432C46.2147 52.3493 46.3932 51.856 46.499 51.2631C46.6022 50.6851 46.6073 50.1608 46.5143 49.6901C46.4213 49.2195 46.2308 48.8315 45.9429 48.5262C45.6556 48.2171 45.2677 48.019 44.7792 47.9318C44.2758 47.8419 43.833 47.8975 43.4508 48.0987C43.0693 48.2961 42.7532 48.6013 42.5024 49.0144C42.2554 49.4282 42.083 49.9092 41.9851 50.4574C41.8846 51.0204 41.8822 51.5298 41.9779 51.9855C42.0735 52.4413 42.2678 52.8184 42.5608 53.117C42.8576 53.4162 43.2539 53.6101 43.7499 53.6986ZM55.6937 53.7181L56.5912 48.6896L58.2692 48.9891L56.7357 57.5806L55.0912 57.2871L55.3568 55.7992L55.2673 55.7832C54.9878 56.2066 54.6026 56.5323 54.1118 56.7602C53.6253 56.985 53.0595 57.0398 52.4144 56.9247C51.8625 56.8262 51.3957 56.6178 51.0138 56.2995C50.6364 55.9782 50.3694 55.5554 50.2129 55.0311C50.0601 54.5075 50.0469 53.8914 50.1734 53.1829L51.1488 47.7181L52.8213 48.0167L51.8818 53.2801C51.7773 53.8655 51.8563 54.3606 52.1188 54.7653C52.3813 55.17 52.7717 55.4186 53.29 55.5111C53.6033 55.567 53.9286 55.5443 54.2661 55.4429C54.6073 55.3422 54.9087 55.1517 55.1704 54.8713C55.4358 54.5916 55.6102 54.2072 55.6937 53.7181ZM61.4492 58.6182C60.9047 58.521 60.4305 58.3324 60.0264 58.0525C59.623 57.7689 59.3273 57.4102 59.1392 56.9765C58.9548 56.5434 58.9129 56.0453 59.0134 55.4823C59.1 54.9975 59.2644 54.6151 59.5068 54.3352C59.7491 54.0552 60.0451 53.8522 60.3947 53.7261C60.7442 53.5999 61.1231 53.5252 61.5313 53.5018C61.9395 53.4785 62.3511 53.4789 62.7662 53.5029C63.2915 53.5351 63.7178 53.5612 64.0451 53.5812C64.3731 53.5974 64.6178 53.5737 64.7792 53.5102C64.9406 53.4467 65.0393 53.3142 65.0752 53.1128L65.0822 53.0737C65.1694 52.5852 65.099 52.1821 64.871 51.8643C64.6467 51.5473 64.2642 51.3405 63.7235 51.244C63.1604 51.1435 62.6944 51.1892 62.3254 51.3811C61.9608 51.57 61.69 51.8044 61.513 52.0845L60.0051 51.446C60.2848 50.9572 60.6322 50.5844 61.0474 50.3277C61.467 50.0678 61.9247 49.9071 62.4206 49.8455C62.917 49.7802 63.4244 49.7938 63.9427 49.8864C64.2858 49.9476 64.6421 50.0535 65.0115 50.2041C65.3853 50.3516 65.7211 50.5616 66.0187 50.8341C66.3201 51.1072 66.5437 51.4607 66.6894 51.8946C66.8358 52.3247 66.8531 52.853 66.7413 53.4795L65.7229 59.1848L64.0896 58.8932L64.2993 57.7186L64.2322 57.7066C64.0854 57.9036 63.8853 58.0872 63.6317 58.2574C63.3782 58.4276 63.0694 58.5514 62.7055 58.6288C62.3415 58.7062 61.9227 58.7027 61.4492 58.6182ZM62.0523 57.3406C62.5147 57.4232 62.9263 57.4024 63.2871 57.2782C63.6516 57.1547 63.9459 56.961 64.17 56.697C64.3985 56.43 64.543 56.1268 64.6036 55.7875L64.8013 54.68C64.731 54.729 64.6054 54.7643 64.4245 54.7859C64.2481 54.8044 64.0484 54.813 63.8255 54.8117C63.6032 54.8067 63.3868 54.8008 63.1764 54.794C62.9667 54.7835 62.7911 54.7752 62.6498 54.7692C62.3181 54.7524 62.0093 54.7684 61.7236 54.8175C61.4415 54.8672 61.204 54.969 61.011 55.1231C60.8225 55.2742 60.7016 55.4989 60.6483 55.7972C60.5744 56.2111 60.6714 56.5516 60.9392 56.8187C61.2077 57.0821 61.5788 57.2561 62.0523 57.3406ZM70.5335 54.7797L69.6229 59.8809L67.9505 59.5824L69.484 50.9909L71.0893 51.2774L70.8397 52.6758L70.946 52.6948C71.2248 52.2751 71.5996 51.9649 72.0702 51.7642C72.5446 51.5641 73.1043 51.5217 73.7494 51.6368C74.3348 51.7413 74.8256 51.9559 75.2217 52.2805C75.6184 52.6014 75.8951 53.0241 76.0516 53.5484C76.2081 54.0727 76.2231 54.689 76.0967 55.3975L75.1212 60.8623L73.4488 60.5638L74.3883 55.3004C74.4995 54.6777 74.4241 54.1621 74.1623 53.7537C73.9011 53.3415 73.4871 53.0848 72.9203 52.9837C72.5325 52.9144 72.1726 52.9368 71.8406 53.0507C71.5123 53.1652 71.2316 53.3691 70.9984 53.6622C70.7696 53.9523 70.6147 54.3248 70.5335 54.7797ZM82.9082 53.387L82.6686 54.7295L77.9757 53.8918L78.2153 52.5494L82.9082 53.387ZM79.8413 50.7156L81.5137 51.0142L80.063 59.1414C80.0051 59.4658 80.01 59.7187 80.0777 59.9001C80.146 60.0777 80.2513 60.21 80.3935 60.297C80.5402 60.3809 80.7048 60.4391 80.8876 60.4717C81.0218 60.4957 81.1409 60.5074 81.2449 60.5067C81.3489 60.506 81.4299 60.5051 81.4878 60.5039L81.5433 61.9394C81.4397 61.9593 81.295 61.972 81.1094 61.9773C80.9231 61.9864 80.6954 61.9688 80.4262 61.9247C79.9849 61.8536 79.5887 61.702 79.2376 61.4701C78.8865 61.2381 78.6241 60.9296 78.4505 60.5446C78.2768 60.1596 78.2362 59.708 78.3287 59.1897L79.8413 50.7156ZM85.691 62.9452C85.1466 62.848 84.6723 62.6595 84.2683 62.3796C83.8649 62.0959 83.5691 61.7373 83.381 61.3035C83.1967 60.8705 83.1548 60.3724 83.2553 59.8093C83.3418 59.3245 83.5063 58.9422 83.7486 58.6622C83.991 58.3823 84.2869 58.1792 84.6365 58.0531C84.9861 57.927 85.365 57.8522 85.7731 57.8289C86.1813 57.8055 86.593 57.8059 87.0081 57.83C87.5333 57.8622 87.9596 57.8883 88.2869 57.9082C88.615 57.9244 88.8597 57.9008 89.0211 57.8372C89.1825 57.7737 89.2811 57.6412 89.3171 57.4399L89.3241 57.4007C89.4113 56.9122 89.3409 56.5091 89.1128 56.1914C88.8885 55.8743 88.5061 55.6675 87.9654 55.571C87.4023 55.4705 86.9362 55.5162 86.5672 55.7082C86.2026 55.897 85.9318 56.1315 85.7549 56.4116L84.247 55.773C84.5266 55.2843 84.8741 54.9115 85.2893 54.6547C85.7089 54.3948 86.1666 54.2341 86.6624 54.1726C87.1589 54.1073 87.6663 54.1209 88.1846 54.2134C88.5277 54.2746 88.8839 54.3806 89.2533 54.5312C89.6272 54.6787 89.9629 54.8887 90.2606 55.1611C90.562 55.4342 90.7855 55.7877 90.9313 56.2216C91.0777 56.6518 91.0949 57.1801 90.9831 57.8065L89.9648 63.5118L88.3315 63.2203L88.5412 62.0457L88.474 62.0337C88.3273 62.2307 88.1271 62.4142 87.8736 62.5845C87.62 62.7547 87.3113 62.8785 86.9473 62.9559C86.5834 63.0333 86.1646 63.0297 85.691 62.9452ZM86.2942 61.6677C86.7566 61.7502 87.1682 61.7294 87.5289 61.6053C87.8934 61.4818 88.1877 61.2881 88.4118 61.0241C88.6403 60.7571 88.7849 60.4539 88.8454 60.1145L89.0431 59.007C88.9728 59.0561 88.8472 59.0914 88.6664 59.1129C88.4899 59.1315 88.2902 59.1401 88.0673 59.1388C87.845 59.1337 87.6287 59.1278 87.4183 59.121C87.2085 59.1105 87.033 59.1023 86.8917 59.0963C86.56 59.0794 86.2512 59.0955 85.9654 59.1445C85.6833 59.1942 85.4458 59.2961 85.2529 59.4502C85.0643 59.6012 84.9434 59.8259 84.8902 60.1242C84.8163 60.5381 84.9133 60.8786 85.1811 61.1458C85.4496 61.4092 85.8206 61.5831 86.2942 61.6677ZM94.7753 59.1067L93.8648 64.2079L92.1923 63.9094L93.7259 55.3179L95.3312 55.6045L95.0816 57.0028L95.1879 57.0218C95.4667 56.6021 95.8414 56.2919 96.3121 56.0912C96.7864 55.8912 97.3461 55.8487 97.9912 55.9638C98.5767 56.0683 99.0675 56.2829 99.4635 56.6076C99.8603 56.9285 100.137 57.3511 100.293 57.8754C100.45 58.3997 100.465 59.0161 100.339 59.7246L99.3631 65.1894L97.6907 64.8908L98.6302 59.6274C98.7413 59.0047 98.666 58.4891 98.4041 58.0807C98.1429 57.6685 97.7289 57.4119 97.1621 57.3107C96.7743 57.2415 96.4144 57.2638 96.0824 57.3777C95.7542 57.4923 95.4734 57.6961 95.2403 57.9892C95.0115 58.2793 94.8565 58.6518 94.7753 59.1067ZM104.792 66.3316C104.099 66.2078 103.511 65.9202 103.03 65.4688C102.553 65.0143 102.219 64.4294 102.027 63.7141C101.84 62.9958 101.829 62.1724 101.995 61.2439C102.161 60.3154 102.457 59.5487 102.885 58.9439C103.316 58.3398 103.835 57.9111 104.442 57.6578C105.049 57.4044 105.697 57.3393 106.387 57.4624C106.92 57.5576 107.333 57.7237 107.626 57.9606C107.922 58.1944 108.139 58.4447 108.276 58.7116C108.417 58.9791 108.522 59.2114 108.591 59.4084L108.691 59.4263L109.451 55.1697L111.124 55.4683L109.079 66.9236L107.446 66.632L107.684 65.2952L107.544 65.2703C107.411 65.435 107.228 65.6179 106.996 65.8188C106.768 66.0205 106.474 66.1796 106.115 66.2963C105.755 66.413 105.314 66.4248 104.792 66.3316ZM105.416 64.9712C105.897 65.057 106.326 65.0028 106.703 64.8085C107.085 64.6111 107.402 64.3002 107.655 63.8759C107.911 63.4523 108.093 62.9384 108.201 62.3343C108.308 61.7377 108.315 61.2003 108.223 60.7222C108.132 60.2441 107.942 59.8505 107.655 59.5415C107.368 59.2324 106.98 59.0343 106.491 58.9471C105.988 58.8572 105.545 58.9128 105.163 59.114C104.781 59.3151 104.464 59.6259 104.212 60.0465C103.963 60.4678 103.788 60.9618 103.687 61.5286C103.585 62.1029 103.578 62.6346 103.668 63.1239C103.758 63.6132 103.946 64.022 104.234 64.3504C104.526 64.6757 104.92 64.8826 105.416 64.9712ZM115.054 68.169C114.248 68.0252 113.578 67.7152 113.044 67.2388C112.509 66.7625 112.136 66.1629 111.922 65.4399C111.709 64.7169 111.681 63.9116 111.84 63.0242C111.999 62.1329 112.304 61.3832 112.755 60.775C113.206 60.1667 113.764 59.7316 114.431 59.4696C115.097 59.2076 115.833 59.1485 116.638 59.2922C117.444 59.436 118.114 59.7461 118.648 60.2224C119.183 60.6987 119.556 61.3002 119.769 62.027C119.982 62.7537 120.009 63.5626 119.849 64.4539C119.691 65.3413 119.387 66.0873 118.936 66.6919C118.486 67.2964 117.928 67.7296 117.261 67.9916C116.595 68.2536 115.859 68.3128 115.054 68.169ZM115.31 66.766C115.832 66.8592 116.289 66.7985 116.682 66.5838C117.074 66.3691 117.393 66.047 117.639 65.6176C117.889 65.1889 118.063 64.6986 118.161 64.1468C118.259 63.5986 118.265 63.0802 118.179 62.5916C118.098 62.0999 117.91 61.6836 117.617 61.3427C117.324 61.0018 116.916 60.7848 116.394 60.6916C115.868 60.5977 115.407 60.6597 115.011 60.8775C114.618 61.0959 114.296 61.4214 114.046 61.8538C113.8 62.2832 113.628 62.7719 113.53 63.3201C113.431 63.872 113.423 64.3919 113.505 64.8798C113.591 65.3684 113.781 65.7813 114.075 66.1185C114.373 66.4563 114.784 66.6722 115.31 66.766Z" fill="#0025CB"/>
</svg>
