<svg width="3873" height="3517" viewBox="0 0 3873 3517" fill="none" xmlns="http://www.w3.org/2000/svg">
<g filter="url(#filter0_f_187_22)">
<rect x="204.747" y="371.267" width="1685.81" height="1159.66" fill="#FF6D6D"/>
</g>
<g filter="url(#filter1_f_187_22)">
<rect x="2798.69" y="1100.39" width="795.577" height="563.56" transform="rotate(90 2798.69 1100.39)" fill="white"/>
</g>
<g filter="url(#filter2_f_187_22)">
<path d="M2166.04 1622.99C2184.84 1420.36 1940.52 1311.04 1816 1281.71C1340.25 1121.68 1396.93 1625.95 1170.08 1453.4C1022.34 1341.03 812.691 1192.25 578.128 1255.14C343.564 1318.02 408.151 1659.08 408.151 1659.08L488.627 1968.15C488.627 1968.15 658.747 2237.27 839.189 2240.37C943.414 2242.16 1082.4 2155.74 1082.4 2155.74C1082.4 2155.74 1088.18 2124.63 1286.97 2015.78C1485.77 1906.92 1810.72 1972.82 1891.69 1962.15C1992.89 1948.8 2142.54 1876.27 2166.04 1622.99Z" fill="#FFC56D"/>
</g>
<g filter="url(#filter3_f_187_22)">
<path d="M2141.24 2330.5C2094.73 2557.38 2290.43 2689.15 2394.09 2726.68C2783.04 2923.92 2809.03 2355.48 2980.15 2557.62C3091.58 2689.26 3251.31 2864.08 3464.21 2802.08C3677.11 2740.09 3671.92 2354.66 3671.92 2354.66L3648.16 2004.58C3648.16 2004.58 3540.67 1696.07 3384.57 1685.94C3294.4 1680.1 3160.92 1772.05 3160.92 1772.05C3160.92 1772.05 3151.27 1806.77 2962.55 1921.71C2773.83 2036.65 2501.7 1950.68 2429.86 1959.69C2340.05 1970.95 2199.39 2046.9 2141.24 2330.5Z" fill="#FFC56D"/>
</g>
<g filter="url(#filter4_f_187_22)">
<path d="M3026.93 2830.25C3029.39 2918.31 2701.85 2908.74 2583.6 2899.68C2542.32 2915.56 2367.11 2977.21 2327.59 2896.21C2291.68 2822.63 2217.67 2987.14 2036.11 2830.25C1854.55 2673.37 1817.7 2676.85 1817.7 2676.85C1817.7 2676.85 1679.11 2570.14 1650.43 2470.94C1600.79 2299.21 1854.78 2060.68 1854.78 2060.68L2180.31 1895.53C2180.31 1895.53 2546.67 1736.21 2686.82 1940.19C2826.97 2144.17 2720.61 2385.49 2637.14 2557.71C2508.98 2822.16 3067.62 2333.75 3026.93 2830.25Z" fill="#FFC56D"/>
</g>
<g filter="url(#filter5_f_187_22)">
<ellipse cx="1550.38" cy="2148.79" rx="440.433" ry="435.834" fill="#FFF96D"/>
</g>
<g filter="url(#filter6_f_187_22)">
<ellipse cx="895.799" cy="2490.72" rx="599.573" ry="435.834" fill="#FFF96D"/>
</g>
<g filter="url(#filter7_f_187_22)">
<ellipse cx="3150.54" cy="1411.97" rx="490.073" ry="572.604" fill="#FFF96D"/>
</g>
<g filter="url(#filter8_f_187_22)">
<ellipse cx="2295.95" cy="636.62" rx="440.433" ry="435.834" fill="#FFF96D"/>
</g>
<g filter="url(#filter9_f_187_22)">
<ellipse cx="972.209" cy="597.13" rx="440.433" ry="314.475" fill="#D96DFF"/>
</g>
<g filter="url(#filter10_f_187_22)">
<path d="M1835.58 996.605C1630.4 1008.16 1559.64 1228.41 1549.91 1337.09C1617.07 1551.61 1835.58 1386.72 1835.58 1551.61C1835.58 1740.6 1934.54 1976.95 1809.3 2150L1957.73 2167.34H2339.28L2659.99 2029.12L2537.35 1836.01L2188.41 1635.4C2148.67 1496.06 2349.99 1314.91 2227.83 1039.71C2192 958.968 2092.05 982.158 1835.58 996.605Z" fill="#6DFF7C"/>
</g>
<g filter="url(#filter11_f_187_22)">
<path d="M2075.06 1565.91C1924.75 1427.23 2012.34 1185.78 2075.06 1096.05C2265.29 973.572 2296.66 1002.63 2419.09 1012.25C2609.49 1027.22 2507.18 771.944 2632.25 742.908C2757.33 713.872 2925.3 742.908 2925.3 742.908L3218.71 984.272C3218.71 984.272 3337.48 1177.91 3257.13 1287.24C3204.19 1359.28 3094.2 1367.25 2959.29 1381.63C2824.39 1396.01 2793.19 1622.21 2793.19 1622.21C2672.61 1704.22 2734.94 1622.21 2487.93 1665.07C2400.16 1680.29 2262.95 1739.26 2075.06 1565.91Z" fill="#6DEEFF"/>
</g>
<g filter="url(#filter12_f_187_22)">
<path d="M2468.09 501.253C2470.4 297.901 2610.09 297.233 2719.35 282.655C2938.98 339.262 3038.05 283.847 3113.35 379.868C3230.43 529.186 3352.16 282.397 3458.1 354.304C3564.04 426.211 3655.52 568.617 3655.52 568.617L3672.92 945.786C3672.92 945.786 3608.32 1163.09 3472.54 1177.99C3383.08 1187.8 3303.02 1112.73 3201.4 1023.76C3099.78 934.792 2909.82 1064.36 2909.82 1064.36C2767.35 1031.42 2870.59 1021.76 2672.18 869.989C2601.68 816.057 2465.2 755.443 2468.09 501.253Z" fill="#6DEEFF"/>
</g>
<g filter="url(#filter13_f_187_22)">
<path d="M595.054 2814.83C473.847 2650.43 770.571 2720.63 863.916 2630.64C1103.65 2518.52 1128.92 2552.95 1257.59 2575.82C1457.68 2611.39 1421.8 2326.64 1564.5 2308.24C1707.21 2289.85 1879.15 2338.24 1879.15 2338.24L2124.25 2627.6C2124.25 2627.6 2212.42 2655.98 2094.47 2765.22C2016.76 2837.21 1909.64 2813.18 1760.62 2814.83C1611.6 2816.47 1376.15 2752.7 1376.15 2752.7C1222.93 2828.47 1231.85 2794.06 954.214 2814.83C855.558 2822.2 746.563 3020.32 595.054 2814.83Z" fill="#6DEEFF"/>
</g>
<g filter="url(#filter14_f_187_22)">
<path d="M572.239 2358.06C433.983 2411.08 301.677 2276.34 261.872 2206.65C240.004 2043.53 268.934 2032.5 313.288 1956.01C382.26 1837.07 181.887 1821.31 201.522 1730.65C221.157 1639.99 292.468 1540.16 292.468 1540.16L542.956 1427.21C542.956 1427.21 707.723 1412.41 755.008 1499.87C786.164 1557.49 757.293 1631.56 724.926 1723.89C692.559 1816.22 832.294 1909.39 832.294 1909.39C849.044 2014.2 814.218 1947.26 765.867 2121.63C748.686 2183.6 745.058 2291.79 572.239 2358.06Z" fill="#6DFF7C"/>
</g>
<g filter="url(#filter15_f_187_22)">
<path d="M2304.8 1536.09C2432.6 1376.83 2722.46 1499.11 2817.82 1553.87C2956.26 1731.83 2916.86 1779.11 2916.86 1900.64C2916.86 2089.64 3262.97 2026.47 3414.81 2147.35C3566.65 2268.23 3480.51 2712.73 3480.51 2712.73L3194.84 2877.91C3194.84 2877.91 2916.86 2960.27 2749.49 2850.42C2582.12 2740.57 2584.56 2565.85 2584.56 2565.85L2554.87 2182.51C2462.71 2070.06 2384.2 2251.6 2227.34 1994.21C2181.32 1918.69 2145.04 1735.16 2304.8 1536.09Z" fill="#D96DFF"/>
</g>
<g filter="url(#filter16_f_187_22)">
<path d="M1199.49 381.38C1286.17 196.988 1637.04 350.169 1742.69 381.38C1919.31 522.41 1880.09 204.756 1908.78 322.931C1953.39 506.7 2275.02 365.278 2451.19 447.715C2627.37 530.153 2648.53 982.27 2648.53 982.27L2409.75 1208.91C2409.75 1208.91 2158.9 1353.24 1970.23 1285.12C1781.57 1217 1742.69 1046.54 1742.69 1046.54L1623.34 680.665C1507.19 592.627 1473.7 787.299 1260.43 573.278C1197.86 510.489 1091.15 611.87 1199.49 381.38Z" fill="#6DFF7C"/>
</g>
<defs>
<filter id="filter0_f_187_22" x="4.74658" y="171.267" width="2085.81" height="1559.66" filterUnits="userSpaceOnUse" color-interpolation-filters="sRGB">
<feFlood flood-opacity="0" result="BackgroundImageFix"/>
<feBlend mode="normal" in="SourceGraphic" in2="BackgroundImageFix" result="shape"/>
<feGaussianBlur stdDeviation="100" result="effect1_foregroundBlur_187_22"/>
</filter>
<filter id="filter1_f_187_22" x="2041.13" y="906.386" width="951.56" height="1183.58" filterUnits="userSpaceOnUse" color-interpolation-filters="sRGB">
<feFlood flood-opacity="0" result="BackgroundImageFix"/>
<feBlend mode="normal" in="SourceGraphic" in2="BackgroundImageFix" result="shape"/>
<feGaussianBlur stdDeviation="97" result="effect1_foregroundBlur_187_22"/>
</filter>
<filter id="filter2_f_187_22" x="200.005" y="1040.18" width="2167.06" height="1400.22" filterUnits="userSpaceOnUse" color-interpolation-filters="sRGB">
<feFlood flood-opacity="0" result="BackgroundImageFix"/>
<feBlend mode="normal" in="SourceGraphic" in2="BackgroundImageFix" result="shape"/>
<feGaussianBlur stdDeviation="100" result="effect1_foregroundBlur_187_22"/>
</filter>
<filter id="filter3_f_187_22" x="1934.21" y="1485.68" width="1937.71" height="1529.29" filterUnits="userSpaceOnUse" color-interpolation-filters="sRGB">
<feFlood flood-opacity="0" result="BackgroundImageFix"/>
<feBlend mode="normal" in="SourceGraphic" in2="BackgroundImageFix" result="shape"/>
<feGaussianBlur stdDeviation="100" result="effect1_foregroundBlur_187_22"/>
</filter>
<filter id="filter4_f_187_22" x="1444" y="1636.3" width="1785.05" height="1500.79" filterUnits="userSpaceOnUse" color-interpolation-filters="sRGB">
<feFlood flood-opacity="0" result="BackgroundImageFix"/>
<feBlend mode="normal" in="SourceGraphic" in2="BackgroundImageFix" result="shape"/>
<feGaussianBlur stdDeviation="100" result="effect1_foregroundBlur_187_22"/>
</filter>
<filter id="filter5_f_187_22" x="909.947" y="1512.96" width="1280.87" height="1271.67" filterUnits="userSpaceOnUse" color-interpolation-filters="sRGB">
<feFlood flood-opacity="0" result="BackgroundImageFix"/>
<feBlend mode="normal" in="SourceGraphic" in2="BackgroundImageFix" result="shape"/>
<feGaussianBlur stdDeviation="100" result="effect1_foregroundBlur_187_22"/>
</filter>
<filter id="filter6_f_187_22" x="96.2261" y="1854.89" width="1599.15" height="1271.67" filterUnits="userSpaceOnUse" color-interpolation-filters="sRGB">
<feFlood flood-opacity="0" result="BackgroundImageFix"/>
<feBlend mode="normal" in="SourceGraphic" in2="BackgroundImageFix" result="shape"/>
<feGaussianBlur stdDeviation="100" result="effect1_foregroundBlur_187_22"/>
</filter>
<filter id="filter7_f_187_22" x="2460.47" y="639.367" width="1380.15" height="1545.21" filterUnits="userSpaceOnUse" color-interpolation-filters="sRGB">
<feFlood flood-opacity="0" result="BackgroundImageFix"/>
<feBlend mode="normal" in="SourceGraphic" in2="BackgroundImageFix" result="shape"/>
<feGaussianBlur stdDeviation="100" result="effect1_foregroundBlur_187_22"/>
</filter>
<filter id="filter8_f_187_22" x="1655.52" y="0.785889" width="1280.87" height="1271.67" filterUnits="userSpaceOnUse" color-interpolation-filters="sRGB">
<feFlood flood-opacity="0" result="BackgroundImageFix"/>
<feBlend mode="normal" in="SourceGraphic" in2="BackgroundImageFix" result="shape"/>
<feGaussianBlur stdDeviation="100" result="effect1_foregroundBlur_187_22"/>
</filter>
<filter id="filter9_f_187_22" x="331.776" y="82.6555" width="1280.87" height="1028.95" filterUnits="userSpaceOnUse" color-interpolation-filters="sRGB">
<feFlood flood-opacity="0" result="BackgroundImageFix"/>
<feBlend mode="normal" in="SourceGraphic" in2="BackgroundImageFix" result="shape"/>
<feGaussianBlur stdDeviation="100" result="effect1_foregroundBlur_187_22"/>
</filter>
<filter id="filter10_f_187_22" x="1349.91" y="782.053" width="1510.09" height="1585.28" filterUnits="userSpaceOnUse" color-interpolation-filters="sRGB">
<feFlood flood-opacity="0" result="BackgroundImageFix"/>
<feBlend mode="normal" in="SourceGraphic" in2="BackgroundImageFix" result="shape"/>
<feGaussianBlur stdDeviation="100" result="effect1_foregroundBlur_187_22"/>
</filter>
<filter id="filter11_f_187_22" x="1792.04" y="530.003" width="1692.99" height="1357.05" filterUnits="userSpaceOnUse" color-interpolation-filters="sRGB">
<feFlood flood-opacity="0" result="BackgroundImageFix"/>
<feBlend mode="normal" in="SourceGraphic" in2="BackgroundImageFix" result="shape"/>
<feGaussianBlur stdDeviation="100" result="effect1_foregroundBlur_187_22"/>
</filter>
<filter id="filter12_f_187_22" x="2268.05" y="82.6555" width="1604.87" height="1296.2" filterUnits="userSpaceOnUse" color-interpolation-filters="sRGB">
<feFlood flood-opacity="0" result="BackgroundImageFix"/>
<feBlend mode="normal" in="SourceGraphic" in2="BackgroundImageFix" result="shape"/>
<feGaussianBlur stdDeviation="100" result="effect1_foregroundBlur_187_22"/>
</filter>
<filter id="filter13_f_187_22" x="366.4" y="2104.07" width="1989.51" height="1003.75" filterUnits="userSpaceOnUse" color-interpolation-filters="sRGB">
<feFlood flood-opacity="0" result="BackgroundImageFix"/>
<feBlend mode="normal" in="SourceGraphic" in2="BackgroundImageFix" result="shape"/>
<feGaussianBlur stdDeviation="100" result="effect1_foregroundBlur_187_22"/>
</filter>
<filter id="filter14_f_187_22" x="0.160645" y="1226.27" width="1036.39" height="1343.86" filterUnits="userSpaceOnUse" color-interpolation-filters="sRGB">
<feFlood flood-opacity="0" result="BackgroundImageFix"/>
<feBlend mode="normal" in="SourceGraphic" in2="BackgroundImageFix" result="shape"/>
<feGaussianBlur stdDeviation="100" result="effect1_foregroundBlur_187_22"/>
</filter>
<filter id="filter15_f_187_22" x="1988.11" y="1257.25" width="1716.74" height="1850.3" filterUnits="userSpaceOnUse" color-interpolation-filters="sRGB">
<feFlood flood-opacity="0" result="BackgroundImageFix"/>
<feBlend mode="normal" in="SourceGraphic" in2="BackgroundImageFix" result="shape"/>
<feGaussianBlur stdDeviation="100" result="effect1_foregroundBlur_187_22"/>
</filter>
<filter id="filter16_f_187_22" x="953.011" y="92.041" width="1895.52" height="1411.35" filterUnits="userSpaceOnUse" color-interpolation-filters="sRGB">
<feFlood flood-opacity="0" result="BackgroundImageFix"/>
<feBlend mode="normal" in="SourceGraphic" in2="BackgroundImageFix" result="shape"/>
<feGaussianBlur stdDeviation="100" result="effect1_foregroundBlur_187_22"/>
</filter>
</defs>
</svg>
