<svg width="671" height="240" viewBox="0 0 671 240" fill="none" xmlns="http://www.w3.org/2000/svg">
<path d="M619.548 69.6391C618.373 69.6391 617.214 69.6949 616.056 69.7747C618.301 64.0727 619.548 57.8683 619.548 51.3768C619.548 23.5607 596.95 1.00797 569.079 1.00797C551.716 1.00797 536.406 9.75633 527.329 23.0822C518.244 9.74836 502.934 1 485.57 1C469.437 1 455.078 8.56809 445.841 20.3309C436.604 8.56809 422.245 1 406.112 1C391.034 1 377.506 7.61111 368.261 18.0741C359.008 7.61111 345.48 1 330.402 1C315.324 1 301.796 7.61111 292.551 18.0741C283.306 7.61111 269.778 1 254.7 1C238.567 1 224.208 8.56809 214.971 20.3309C205.726 8.56809 191.375 1 175.234 1C160.795 1 147.778 7.06085 138.581 16.7582C129.384 7.06085 116.375 1 101.937 1C74.0655 1 51.4683 23.5527 51.4683 51.3689C51.4683 57.8683 52.7148 64.0647 54.9601 69.7667C53.8095 69.687 52.6429 69.6311 51.4683 69.6311C23.5972 69.6311 1 92.1839 1 120C1 147.816 23.5972 170.369 51.4683 170.369C52.6429 170.369 53.8015 170.313 54.9601 170.233C52.7148 175.935 51.4683 182.14 51.4683 188.631C51.4683 216.447 74.0655 239 101.937 239C116.375 239 129.392 232.939 138.589 223.242C147.786 232.939 160.803 239 175.242 239C191.375 239 205.734 231.432 214.971 219.669C224.208 231.432 238.567 239 254.7 239C269.778 239 283.306 232.389 292.551 221.926C301.796 232.389 315.324 239 330.402 239C345.48 239 359.008 232.389 368.253 221.926C377.498 232.389 391.026 239 406.104 239C422.237 239 436.596 231.432 445.833 219.669C455.07 231.432 469.429 239 485.562 239C502.926 239 518.236 230.252 527.313 216.926C536.398 230.244 551.708 239 569.063 239C596.934 239 619.532 216.447 619.532 188.631C619.532 182.132 618.285 175.935 616.04 170.233C617.19 170.313 618.357 170.369 619.532 170.369C647.403 170.369 670 147.816 670 120C670.016 92.1919 647.419 69.6391 619.548 69.6391Z" stroke="#0025CB" stroke-width="2" stroke-miterlimit="10"/>
</svg>
