<svg width="180" height="99" viewBox="0 0 180 99" fill="none" xmlns="http://www.w3.org/2000/svg">
<path d="M136.884 82.5495C136.884 82.5511 136.884 82.5527 136.884 82.5543V82.5495ZM136.884 82.5495C136.884 82.5072 136.885 82.4638 136.886 82.4204C136.887 82.3754 136.889 82.3304 136.889 82.2866C136.889 56.2214 115.674 35.0148 89.5996 35.0148C63.5249 35.0148 42.3105 56.2214 42.3105 82.2866C42.3105 82.3304 42.3118 82.3754 42.313 82.4204C42.3142 82.4655 42.3154 82.5105 42.3154 82.5543H28.0459C28.0459 82.5105 28.0447 82.4655 28.0435 82.4204C28.0422 82.3754 28.041 82.3304 28.041 82.2866C28.0459 48.3541 55.6596 20.7505 89.5996 20.7505C123.54 20.7505 151.158 48.3541 151.158 82.2817C151.158 82.3255 151.157 82.3705 151.156 82.4156C151.155 82.4606 151.153 82.5056 151.153 82.5495H136.884Z" fill="white"/>
<path d="M136.884 82.5495C136.884 82.5511 136.884 82.5527 136.884 82.5543V82.5495ZM136.884 82.5495C136.884 82.5072 136.885 82.4638 136.886 82.4204C136.887 82.3754 136.889 82.3304 136.889 82.2866C136.889 56.2214 115.674 35.0148 89.5996 35.0148C63.5249 35.0148 42.3105 56.2214 42.3105 82.2866C42.3105 82.3304 42.3118 82.3754 42.313 82.4204C42.3142 82.4655 42.3154 82.5105 42.3154 82.5543H28.0459C28.0459 82.5105 28.0447 82.4655 28.0435 82.4204C28.0422 82.3754 28.041 82.3304 28.041 82.2866C28.0459 48.3541 55.6596 20.7505 89.5996 20.7505C123.54 20.7505 151.158 48.3541 151.158 82.2817C151.158 82.3255 151.157 82.3705 151.156 82.4156C151.155 82.4606 151.153 82.5056 151.153 82.5495H136.884Z" stroke="#0025CB"/>
<path d="M40.0368 32.2474C26.6966 45.4934 19.3007 63.0608 19.1799 81.7667H30.8988C31.1517 49.4 57.756 23.1576 90.4046 23.1576C123.053 23.1576 149.658 49.4 149.91 81.7667H161.629C161.509 63.056 154.117 45.4888 140.773 32.2476C127.317 18.8961 109.432 11.5405 90.4046 11.5405C71.3773 11.5405 53.4925 18.8959 40.0368 32.2474ZM40.0368 32.2474L39.3322 31.5378M40.0368 32.2474L39.3322 31.5378M39.3322 31.5378C25.6932 45.0805 18.1784 63.0847 18.1784 82.2323C18.1784 82.3206 18.1796 82.41 18.1808 82.4995C18.1819 82.589 18.1831 82.6784 18.1831 82.7667H162.626C162.626 82.6784 162.627 82.589 162.629 82.4995C162.63 82.41 162.631 82.3206 162.631 82.2323C162.631 63.0801 155.121 45.0758 141.477 31.5378C127.833 17.9997 109.695 10.5405 90.4046 10.5405C71.1143 10.5405 52.9759 17.9997 39.3322 31.5378Z" fill="white" stroke="#0025CB" stroke-width="2"/>
<path d="M136.413 81.319C135.879 55.9564 115.078 35.4848 89.5896 35.4848C64.1017 35.4848 43.3048 55.9562 42.7661 81.319H54.2779C54.809 62.2987 70.4431 46.9933 89.5896 46.9933C108.736 46.9933 124.37 62.2987 124.901 81.319H136.413Z" fill="white" stroke="#0025CB" stroke-width="2"/>
<path d="M135.997 63.6252L135.81 64.4046L135.008 64.391C134.918 64.3895 134.855 64.3874 134.801 64.3856C134.734 64.3834 134.679 64.3816 134.601 64.3816C126.796 64.3816 120.47 70.7093 120.47 78.5155C120.47 86.3214 126.798 92.6494 134.604 92.6494C136.1 92.6494 137.542 92.4146 138.894 91.9832L139.465 91.8011L139.895 92.2185C142.441 94.6905 145.909 96.212 149.735 96.212C153.561 96.212 157.029 94.6905 159.575 92.2185L160.005 91.8011L160.576 91.9832C161.928 92.4146 163.37 92.6494 164.866 92.6494C172.672 92.6494 179 86.3214 179 78.5155C179 70.7095 172.672 64.3816 164.866 64.3816C164.745 64.3816 164.62 64.3857 164.476 64.3906L163.661 64.4182L163.47 63.6252C161.977 57.4222 156.392 52.8127 149.733 52.8127C143.073 52.8127 137.491 57.422 135.997 63.6252Z" fill="white" stroke="#0025CB" stroke-width="2"/>
<path d="M16.5265 65.001L16.3389 65.7803L15.5374 65.7668C15.4473 65.7652 15.3847 65.7632 15.3299 65.7613C15.2636 65.7591 15.2087 65.7573 15.1306 65.7573C7.32493 65.7573 0.999249 72.0851 0.999249 79.8912C0.999249 87.6972 7.32712 94.0251 15.133 94.0251C16.6295 94.0251 18.0713 93.7903 19.4235 93.359L19.9942 93.1769L20.4241 93.5942C22.9699 96.0663 26.4387 97.5878 30.2643 97.5878C34.0899 97.5878 37.5587 96.0663 40.1045 93.5942L40.5343 93.1769L41.105 93.359C42.4572 93.7903 43.899 94.0251 45.3956 94.0251C53.2014 94.0251 59.5293 87.6972 59.5293 79.8912C59.5293 72.0853 53.2014 65.7573 45.3956 65.7573C45.2741 65.7573 45.1498 65.7614 45.0057 65.7663L44.1905 65.794L43.9996 65.001C42.5059 58.798 36.9212 54.1884 30.2619 54.1884C23.6028 54.1884 18.0203 58.7978 16.5265 65.001Z" fill="white" stroke="#0025CB" stroke-width="2"/>
<path d="M84.5385 6.26124C79.5401 1.69264 70.653 7.68369 70.2828 6.76128C69.9126 5.83888 76.3675 -0.672987 81.3958 0.0569428C86.4241 0.786872 86.9884 8.50049 84.5385 6.26124Z" fill="#0025CB"/>
<path d="M98.4322 6.26124C103.431 1.69264 112.318 7.68369 112.688 6.76128C113.058 5.83888 106.603 -0.672987 101.575 0.0569428C96.5466 0.786872 95.9823 8.50049 98.4322 6.26124Z" fill="#0025CB"/>
<path d="M60.9995 30.8108C60.9995 36.4367 62.711 41.4915 65.4304 45.1173C68.1495 48.7428 71.8296 50.8918 75.8103 50.8918C79.791 50.8918 83.4711 48.7428 86.1902 45.1173C88.9096 41.4915 90.6211 36.4367 90.6211 30.8108C90.6211 25.1849 88.9096 20.13 86.1902 16.5042C83.4711 12.8787 79.791 10.7297 75.8103 10.7297C71.8296 10.7297 68.1495 12.8787 65.4304 16.5042C62.711 20.13 60.9995 25.1849 60.9995 30.8108Z" fill="white" stroke="#0025CB" stroke-width="2"/>
<path d="M90.1887 30.8108C90.1887 36.4307 91.942 41.4821 94.7309 45.1076C97.519 48.7321 101.301 50.8918 105.405 50.8918C109.508 50.8918 113.291 48.7321 116.079 45.1076C118.868 41.4821 120.621 36.4307 120.621 30.8108C120.621 25.1909 118.868 20.1395 116.079 16.5139C113.291 12.8894 109.508 10.7297 105.405 10.7297C101.301 10.7297 97.519 12.8894 94.7309 16.5139C91.942 20.1395 90.1887 25.1909 90.1887 30.8108Z" fill="white" stroke="#0025CB" stroke-width="2"/>
<path d="M60.8111 29.5946C60.8111 35.6398 64.4413 40.5405 68.9192 40.5405C73.3972 40.5405 77.0273 35.6398 77.0273 29.5946C77.0273 23.5493 73.3972 18.6486 68.9192 18.6486C64.4413 18.6486 60.8111 23.5493 60.8111 29.5946Z" fill="#0025CB"/>
<path d="M90.8114 29.5946C90.8114 35.6398 94.26 40.5405 98.5141 40.5405C102.768 40.5405 106.217 35.6398 106.217 29.5946C106.217 23.5493 102.768 18.6486 98.5141 18.6486C94.26 18.6486 90.8114 23.5493 90.8114 29.5946Z" fill="#0025CB"/>
<path d="M72.1621 30L80.0675 34.9152L80.0675 25.0847L72.1621 30Z" fill="white"/>
<path d="M101.352 30L110.473 34.9152L110.473 25.0847L101.352 30Z" fill="white"/>
</svg>
