<svg width="193" height="106" viewBox="0 0 193 106" fill="none" xmlns="http://www.w3.org/2000/svg">
<path d="M46.1803 88.414C46.1803 88.4157 46.1803 88.4174 46.1803 88.4192V88.414ZM46.1803 88.414C46.1802 88.3687 46.1789 88.3222 46.1777 88.2758C46.1763 88.2276 46.175 88.1793 46.175 88.1324C46.175 60.2154 68.8965 37.5023 96.8237 37.5023C124.751 37.5023 147.472 60.2154 147.472 88.1324C147.472 88.1793 147.471 88.2276 147.47 88.2758C147.468 88.324 147.467 88.3722 147.467 88.4192H162.75C162.75 88.3722 162.752 88.324 162.753 88.2758C162.754 88.2276 162.756 88.1793 162.756 88.1324C162.75 51.7893 133.175 22.2246 96.8237 22.2246C60.4725 22.2246 30.8918 51.7893 30.8918 88.1272C30.8918 88.1741 30.8931 88.2223 30.8944 88.2706C30.8957 88.3188 30.897 88.367 30.897 88.414H46.1803Z" fill="white"/>
<path d="M46.1803 88.414C46.1803 88.4157 46.1803 88.4174 46.1803 88.4192V88.414ZM46.1803 88.414C46.1802 88.3687 46.1789 88.3222 46.1777 88.2758C46.1763 88.2276 46.175 88.1793 46.175 88.1324C46.175 60.2154 68.8965 37.5023 96.8237 37.5023C124.751 37.5023 147.472 60.2154 147.472 88.1324C147.472 88.1793 147.471 88.2276 147.47 88.2758C147.468 88.324 147.467 88.3722 147.467 88.4192H162.75C162.75 88.3722 162.752 88.324 162.753 88.2758C162.754 88.2276 162.756 88.1793 162.756 88.1324C162.75 51.7893 133.175 22.2246 96.8237 22.2246C60.4725 22.2246 30.8918 51.7893 30.8918 88.1272C30.8918 88.1741 30.8931 88.2223 30.8944 88.2706C30.8957 88.3188 30.897 88.367 30.897 88.414H46.1803Z" stroke="#0025CB"/>
<path d="M95.9608 24.874C61.0076 24.874 32.5305 52.9878 32.298 87.6469H19.6046C19.7155 67.5614 27.6416 48.7003 41.9644 34.4883C56.3893 20.175 75.563 12.2896 95.9608 12.2896C116.359 12.2896 135.532 20.1748 149.957 34.4881C164.275 48.7052 172.206 67.5665 172.317 87.6469H159.624C159.391 52.9878 130.914 24.874 95.9608 24.874Z" fill="white" stroke="#0025CB" stroke-width="2"/>
<path d="M46.6115 87.1671C47.1461 59.9306 69.4723 37.9346 96.8342 37.9346C124.196 37.9346 146.517 59.9304 147.057 87.1671H134.585C134.054 66.8019 117.326 50.4028 96.8342 50.4028C76.3428 50.4028 59.6148 66.8019 59.083 87.1671H46.6115Z" fill="white" stroke="#0025CB" stroke-width="2"/>
<path d="M47.1979 68.1288L47.3856 68.9081L48.187 68.8946C48.281 68.893 48.3479 68.8908 48.4069 68.8888C48.4793 68.8864 48.5399 68.8844 48.624 68.8844C57.0234 68.8844 63.8303 75.6935 63.8303 84.0935C63.8303 92.4933 57.021 99.3026 48.6214 99.3026C47.0111 99.3026 45.4595 99.0499 44.0045 98.5857L43.4337 98.4036L43.0039 98.821C40.2645 101.481 36.5318 103.118 32.4151 103.118C28.2985 103.118 24.5657 101.481 21.8263 98.821L21.3965 98.4036L20.8258 98.5857C19.3707 99.0499 17.8192 99.3026 16.2088 99.3026C7.80923 99.3026 1 92.4933 1 84.0935C1 75.6937 7.80922 68.8844 16.2088 68.8844C16.3404 68.8844 16.4747 68.8889 16.6288 68.8941L17.444 68.9218L17.6349 68.1288C19.2423 61.454 25.2517 56.4937 32.4177 56.4937C39.5835 56.4937 45.5905 61.4538 47.1979 68.1288Z" fill="white" stroke="#0025CB" stroke-width="2"/>
<path d="M175.155 69.6024L175.343 70.3818L176.144 70.3682C176.238 70.3666 176.305 70.3644 176.364 70.3625C176.437 70.3601 176.497 70.3581 176.581 70.3581C184.981 70.3581 191.788 77.1672 191.788 85.5671C191.788 93.9669 184.978 100.776 176.579 100.776C174.968 100.776 173.417 100.524 171.962 100.059L171.391 99.8773L170.961 100.295C168.222 102.955 164.489 104.592 160.373 104.592C156.256 104.592 152.523 102.955 149.784 100.295L149.354 99.8773L148.783 100.059C147.328 100.524 145.777 100.776 144.166 100.776C135.767 100.776 128.957 93.9669 128.957 85.5671C128.957 77.1674 135.767 70.3581 144.166 70.3581C144.298 70.3581 144.432 70.3625 144.586 70.3678L145.401 70.3954L145.592 69.6024C147.2 62.9276 153.209 57.9673 160.375 57.9673C167.541 57.9673 173.548 62.9274 175.155 69.6024Z" fill="white" stroke="#0025CB" stroke-width="2"/>
<path d="M102.244 6.70606C107.597 1.81289 117.116 8.22956 117.512 7.24163C117.909 6.25369 110.995 -0.720798 105.61 0.0609882C100.224 0.842774 99.6199 9.10439 102.244 6.70606Z" fill="#0025CB"/>
<path d="M87.3629 6.70606C82.0095 1.81289 72.491 8.22956 72.0945 7.24163C71.698 6.25369 78.6115 -0.720798 83.997 0.0609882C89.3825 0.842774 89.9869 9.10439 87.3629 6.70606Z" fill="#0025CB"/>
<path d="M127.525 32.9996C127.525 39.0391 125.688 44.4683 122.765 48.3652C119.843 52.2617 115.882 54.5783 111.591 54.5783C107.3 54.5783 103.339 52.2617 100.417 48.3652C97.4942 44.4683 95.6569 39.0391 95.6569 32.9996C95.6569 26.9601 97.4942 21.5309 100.417 17.6341C103.339 13.7375 107.3 11.4209 111.591 11.4209C115.882 11.4209 119.843 13.7375 122.765 17.6341C125.688 21.5309 127.525 26.9601 127.525 32.9996Z" fill="white" stroke="#0025CB" stroke-width="2"/>
<path d="M96.2621 32.9996C96.2621 39.0331 94.3799 44.4589 91.3825 48.3555C88.3859 52.251 84.3155 54.5783 79.8939 54.5783C75.4723 54.5783 71.4019 52.251 68.4053 48.3555C65.408 44.4589 63.5257 39.0331 63.5257 32.9996C63.5257 26.9661 65.408 21.5403 68.4053 17.6438C71.4019 13.7483 75.4723 11.4209 79.8939 11.4209C84.3155 11.4209 88.3859 13.7483 91.3825 17.6438C94.3799 21.5403 96.2621 26.9661 96.2621 32.9996Z" fill="white" stroke="#0025CB" stroke-width="2"/>
<path d="M127.657 31.6972C127.657 38.1719 123.769 43.4208 118.972 43.4208C114.176 43.4208 110.288 38.1719 110.288 31.6972C110.288 25.2225 114.176 19.9736 118.972 19.9736C123.769 19.9736 127.657 25.2225 127.657 31.6972Z" fill="#0025CB"/>
<path d="M95.5253 31.6972C95.5253 38.1719 91.8317 43.4208 87.2754 43.4208C82.7191 43.4208 79.0255 38.1719 79.0255 31.6972C79.0255 25.2225 82.7191 19.9736 87.2754 19.9736C91.8317 19.9736 95.5253 25.2225 95.5253 31.6972Z" fill="#0025CB"/>
<path d="M115.499 32.1311L107.032 37.3956L107.032 26.8667L115.499 32.1311Z" fill="white"/>
<path d="M84.236 32.1311L74.4663 37.3956L74.4663 26.8667L84.236 32.1311Z" fill="white"/>
</svg>
