<svg width="94" height="90" viewBox="0 0 94 90" fill="none" xmlns="http://www.w3.org/2000/svg">
<path d="M87.5678 44.5648L86.8378 45.2796L87.5681 45.9941C90.909 49.2626 93 53.8928 93 59.0407C93 68.356 86.1593 75.9756 77.4574 76.8915L76.8603 76.9544L76.6351 77.5109C74.0102 83.9973 67.8344 88.5238 60.6601 88.5238C55.7189 88.5238 51.2577 86.3756 48.0973 82.9219L47.3596 82.1156L46.6218 82.9219C43.4614 86.3756 39.0002 88.5238 34.059 88.5238C26.9064 88.5238 20.7418 84.0226 18.1061 77.5651L17.8692 76.9846L17.2433 76.945C8.20911 76.374 1 68.6045 1 59.0377C1 53.8928 3.09094 49.2625 6.42927 45.9938L7.15871 45.2796L6.42958 44.5651C3.09078 41.2931 1 36.6656 1 31.5209C1 22.089 8.01363 14.4024 16.8715 13.6419L17.5217 13.5861L17.7324 12.9683C20.1158 5.97925 26.5385 1 34.059 1C39.0002 1 43.4614 3.14815 46.6218 6.60194L47.3596 7.40817L48.0973 6.60194C51.2577 3.14815 55.7189 1 60.6601 1C68.2081 1 74.65 6.01321 77.0113 13.0449L77.2107 13.6386L77.8319 13.7184C86.3521 14.8127 92.9971 22.3405 92.9971 31.5209C92.9971 36.6658 90.9062 41.2961 87.5678 44.5648Z" fill="white" stroke="#0025CB" stroke-width="2"/>
<path d="M47.254 47.373C47.254 52.2232 48.7397 56.5763 51.0944 59.6947C53.4488 62.8126 56.6268 64.6508 60.0556 64.6508C63.4844 64.6508 66.6624 62.8126 69.0167 59.6947C71.3715 56.5763 72.8572 52.2232 72.8572 47.373C72.8572 42.5228 71.3715 38.1697 69.0167 35.0513C66.6624 31.9334 63.4844 30.0952 60.0556 30.0952C56.6268 30.0952 53.4488 31.9334 51.0944 35.0513C48.7397 38.1697 47.254 42.5228 47.254 47.373Z" fill="white" stroke="#0025CB" stroke-width="2"/>
<path d="M20.3968 47.373C20.3968 52.2232 21.8825 56.5763 24.2373 59.6947C26.5916 62.8126 29.7696 64.6508 33.1984 64.6508C36.6272 64.6508 39.8052 62.8126 42.1596 59.6947C44.5143 56.5763 46 52.2232 46 47.373C46 42.5228 44.5143 38.1697 42.1596 35.0513C39.8052 31.9334 36.6272 30.0952 33.1984 30.0952C29.7696 30.0952 26.5916 31.9334 24.2373 35.0513C21.8825 38.1697 20.3968 42.5228 20.3968 47.373Z" fill="white" stroke="#0025CB" stroke-width="2"/>
<path d="M20.1429 46.9997C20.1429 52.356 23.316 56.6981 27.2302 56.6981C31.1444 56.6981 34.3175 52.356 34.3175 46.9997C34.3175 41.6434 31.1444 37.3013 27.2302 37.3013C23.316 37.3013 20.1429 41.6434 20.1429 46.9997Z" fill="#0025CB"/>
<ellipse cx="7.0873" cy="9.69841" rx="7.0873" ry="9.69841" transform="matrix(-1 0 0 1 61.1747 37.3013)" fill="#0025CB"/>
<path d="M56.6984 46.2539L63.9722 51.4226L63.9722 41.0852L56.6984 46.2539Z" fill="white"/>
<path d="M29.8413 46.2539L37.1151 51.4226L37.1151 41.0852L29.8413 46.2539Z" fill="white"/>
<path d="M38.3337 25.5907C34.0527 21.6158 26.4412 26.8284 26.1241 26.0258C25.8071 25.2233 31.3355 19.5575 35.642 20.1926C39.9486 20.8277 40.4319 27.539 38.3337 25.5907Z" fill="#0025CB"/>
<path d="M54.1743 25.5907C58.4552 21.6158 66.0668 26.8284 66.3838 26.0258C66.7009 25.2233 61.1725 19.5575 56.8659 20.1926C52.5593 20.8277 52.076 27.539 54.1743 25.5907Z" fill="#0025CB"/>
</svg>
