<svg width="108" height="103" viewBox="0 0 108 103" fill="none" xmlns="http://www.w3.org/2000/svg">
<path d="M7.28594 51.3085L8.01601 52.0233L7.28565 52.7378C3.41917 56.5205 0.999992 61.8784 0.999992 67.8339C0.999992 78.6096 8.91391 87.4309 18.9909 88.4916L19.5879 88.5544L19.8131 89.111C22.85 96.6154 29.9975 101.857 38.3054 101.857C44.027 101.857 49.1917 99.3695 52.8491 95.3725L53.5869 94.5662L54.3246 95.3725C57.9821 99.3695 63.1468 101.857 68.8684 101.857C77.1511 101.857 84.2857 96.6448 87.3351 89.1737L87.5721 88.5931L88.1979 88.5536C98.6598 87.8923 107 78.897 107 67.8305C107 61.8784 104.581 56.5204 100.717 52.7376L99.9879 52.0233L100.717 51.3088C104.581 47.5222 107 42.1674 107 36.2156C107 25.3049 98.886 16.406 88.6285 15.5253L87.9782 15.4695L87.7676 14.8517C85.0102 6.76593 77.5774 1 68.8684 1C63.1468 1 57.9821 3.48766 54.3246 7.48466L53.5869 8.2909L52.8491 7.48466C49.1917 3.48766 44.027 1 38.3054 1C29.5646 1 22.1096 6.80525 19.3777 14.9403L19.1784 15.5341L18.5572 15.6139C8.6908 16.881 1.00332 25.5958 1.00332 36.2156C1.00332 42.1676 3.42248 47.5257 7.28594 51.3085Z" fill="white" stroke="#0025CB" stroke-width="2"/>
<path d="M53.8569 54.4285C53.8569 60.0304 52.1411 65.0641 49.4144 68.6751C46.6881 72.2856 42.9961 74.4285 38.9997 74.4285C35.0033 74.4285 31.3114 72.2856 28.5851 68.6751C25.8584 65.0641 24.1426 60.0304 24.1426 54.4285C24.1426 48.8265 25.8584 43.7929 28.5851 40.1818C31.3114 36.5713 35.0033 34.4285 38.9997 34.4285C42.9961 34.4285 46.6881 36.5713 49.4144 40.1818C52.1411 43.7929 53.8569 48.8265 53.8569 54.4285Z" fill="white" stroke="#0025CB" stroke-width="2"/>
<path d="M84.7143 54.4285C84.7143 60.0304 82.9985 65.0641 80.2718 68.6751C77.5455 72.2856 73.8536 74.4285 69.8571 74.4285C65.8607 74.4285 62.1688 72.2856 59.4425 68.6751C56.7158 65.0641 55 60.0304 55 54.4285C55 48.8265 56.7158 43.7929 59.4425 40.1818C62.1688 36.5713 65.8607 34.4285 69.8571 34.4285C73.8536 34.4285 77.5455 36.5713 80.2718 40.1818C82.9985 43.7929 84.7143 48.8265 84.7143 54.4285Z" fill="white" stroke="#0025CB" stroke-width="2"/>
<path d="M84.857 54C84.857 60.1541 81.2113 65.1429 76.7141 65.1429C72.217 65.1429 68.5713 60.1541 68.5713 54C68.5713 47.846 72.217 42.8572 76.7141 42.8572C81.2113 42.8572 84.857 47.846 84.857 54Z" fill="#0025CB"/>
<ellipse cx="45.8567" cy="54" rx="8.14286" ry="11.1429" fill="#0025CB"/>
<path d="M42.8574 53.1428L34.5003 59.0812L34.5003 47.2043L42.8574 53.1428Z" fill="white"/>
<path d="M73.7139 53.1428L65.3567 59.0812L65.3567 47.2043L73.7139 53.1428Z" fill="white"/>
<path d="M63.9571 29.4019C68.8756 24.8349 77.6207 30.8238 77.985 29.9017C78.3493 28.9796 71.9975 22.4701 67.0495 23.1997C62.1016 23.9294 61.5463 31.6403 63.9571 29.4019Z" fill="#0025CB"/>
<path d="M45.7568 29.4019C40.8383 24.8349 32.0931 30.8238 31.7289 29.9017C31.3646 28.9796 37.7164 22.4701 42.6643 23.1997C47.6123 23.9294 48.1676 31.6403 45.7568 29.4019Z" fill="#0025CB"/>
</svg>
