<svg width="67" height="67" viewBox="0 0 67 67" fill="none" xmlns="http://www.w3.org/2000/svg">
<circle cx="33.5" cy="33.5" r="32" fill="white" stroke="#0025CB" stroke-width="3"/>
<path d="M46.1362 44.5157C47.648 44.5157 49.1598 44.5157 50.6879 44.5157C50.6879 38.6233 50.6879 32.7457 50.6879 26.8344C49.6776 26.8344 48.6673 26.8344 47.6571 26.8344L47.6643 26.8259C47.6643 27.4114 47.6643 27.9968 47.6643 28.6075C48.1875 28.6075 48.6764 28.6075 49.167 28.6075C49.167 33.3353 49.167 38.0358 49.167 42.7614C48.1549 42.7614 47.1592 42.7614 46.1435 42.7614C46.1435 43.3658 46.1435 43.945 46.1435 44.5241L46.1362 44.5157Z" fill="#0025CB"/>
<path d="M33.9767 23.2881C33.9767 23.8672 33.9767 24.4463 33.9767 25.0507C29.4052 25.0507 24.8626 25.0507 20.2892 25.0507C20.2892 25.6615 20.2892 26.2469 20.2892 26.8324L20.282 26.8239C25.7986 26.8239 31.3135 26.826 36.8301 26.826C36.8862 26.826 36.9406 26.8134 37.0021 26.8071C37.0021 26.2237 37.0021 25.6551 37.0021 25.0528C36.4952 25.0528 36.0009 25.0528 35.4849 25.0528C35.4849 24.4506 35.4849 23.882 35.4849 23.2923C34.9653 23.2923 34.4674 23.2923 33.9695 23.2923L33.9767 23.2881Z" fill="#0025CB"/>
<path d="M20.2892 30.364C20.2892 30.9431 20.2892 31.5223 20.2892 32.133C22.3152 32.133 24.3285 32.133 26.3635 32.133C26.3635 33.3228 26.3635 34.479 26.3635 35.6688C26.8868 35.6688 27.3901 35.6688 27.8934 35.6688L27.8862 35.6773C27.8862 34.5022 27.8862 33.327 27.8862 32.1225C29.9339 32.1225 31.949 32.1225 33.9568 32.1225C33.9568 31.5223 33.9568 30.9537 33.9568 30.3703C29.3871 30.3703 24.8354 30.3703 20.282 30.3703L20.2892 30.364Z" fill="#0025CB"/>
<path d="M27.8934 35.6687C27.8934 37.4271 27.8934 39.1835 27.8934 40.9756C28.4076 40.9756 28.9109 40.9756 29.4143 40.9756L29.4088 40.984C29.4088 39.8089 29.4088 38.6338 29.4088 37.4314C31.4547 37.4314 33.4644 37.4314 35.4795 37.4314C35.4795 36.8354 35.4795 36.2689 35.4795 35.6771C32.9393 35.6771 30.4137 35.6771 27.888 35.6771L27.8934 35.6687Z" fill="#0025CB"/>
<path d="M38.532 21.5253C38.532 20.9462 38.532 20.3671 38.532 19.7627C38.0305 19.7627 37.5417 19.7627 37.0239 19.7627C37.0239 19.1646 37.0239 18.5897 37.0239 18C35.4922 18 33.9912 18 32.4704 18C32.4704 19.75 32.4704 21.5021 32.4704 23.288C32.9701 23.288 33.4734 23.288 33.9768 23.288L33.9695 23.2943C33.9695 22.1213 33.9695 20.9462 33.9695 19.7732C34.4964 19.7732 34.9888 19.7732 35.5048 19.7732C35.5048 20.365 35.5048 20.9314 35.5048 21.5169C36.5314 21.5169 37.5344 21.5169 38.5393 21.5169L38.532 21.5253Z" fill="#0025CB"/>
<path d="M29.4141 40.9775C29.4141 42.1442 29.4141 43.313 29.4141 44.5155C29.9301 44.5155 30.4334 44.5155 30.935 44.5155L30.9295 44.5239C30.9295 43.9385 30.9295 43.353 30.9295 42.736C32.9772 42.736 34.9923 42.736 36.9984 42.736C36.9984 42.1358 36.9984 41.5693 36.9984 40.986C34.4564 40.986 31.9325 40.986 29.4087 40.986L29.4141 40.9775Z" fill="#0025CB"/>
<path d="M32.456 46.2846C32.456 46.8634 32.456 47.4423 32.456 48.038C35.494 48.038 38.5194 48.038 41.5737 48.038C41.5737 47.4528 41.5737 46.8676 41.5737 46.2825L41.581 46.2909C38.5375 46.2909 35.494 46.2909 32.4505 46.2909L32.456 46.2846Z" fill="#0025CB"/>
<path d="M41.5736 46.2838C43.0854 46.2838 44.5954 46.2838 46.1361 46.2838C46.1361 45.686 46.1361 45.1008 46.1361 44.5156L46.1416 44.524C44.6262 44.524 43.1126 44.524 41.5791 44.524C41.5791 45.1366 41.5791 45.7133 41.5791 46.2922L41.5736 46.2838Z" fill="#0025CB"/>
<path d="M20.2892 26.8322C19.7913 26.8322 19.2953 26.8322 18.7811 26.8322C18.7811 28.0073 18.7811 29.1697 18.7811 30.3617C19.2844 30.3617 19.7877 30.3617 20.2892 30.3617L20.282 30.368C20.282 29.1866 20.282 28.0052 20.282 26.8237L20.2892 26.8322Z" fill="#0025CB"/>
<path d="M41.5737 23.2934C41.5737 22.7145 41.5737 22.1357 41.5737 21.5253C40.5508 21.5253 39.5423 21.5253 38.5321 21.5253L38.5393 21.5168C38.5393 22.0999 38.5393 22.6851 38.5393 23.285C39.5749 23.285 40.5779 23.285 41.581 23.285L41.5737 23.2934Z" fill="#0025CB"/>
<path d="M44.6154 25.0645C44.6154 24.4856 44.6154 23.9068 44.6154 23.2964C43.5943 23.2964 42.584 23.2964 41.5738 23.2964L41.581 23.29C41.581 23.8731 41.581 24.4583 41.581 25.0582C42.6166 25.0582 43.6197 25.0582 44.6227 25.0582L44.6154 25.0645Z" fill="#0025CB"/>
<path d="M47.657 26.8334C47.657 26.2546 47.657 25.6757 47.657 25.0653C46.634 25.0653 45.6237 25.0653 44.6153 25.0653L44.6225 25.0569C44.6225 25.6399 44.6225 26.2251 44.6225 26.825C45.6581 26.825 46.6612 26.825 47.6642 26.825L47.657 26.8334Z" fill="#0025CB"/>
<path d="M30.9352 44.5134C30.9352 45.0923 30.9352 45.6711 30.9352 46.2816C31.4512 46.2816 31.9527 46.2816 32.456 46.2816L32.4488 46.2879C32.4488 45.7048 32.4488 45.1196 32.4488 44.5197C31.9219 44.5197 31.424 44.5197 30.928 44.5197L30.9352 44.5134Z" fill="#0025CB"/>
</svg>
