<svg width="80" height="80" viewBox="0 0 80 80" fill="none" xmlns="http://www.w3.org/2000/svg">
<circle cx="40" cy="40" r="38.5" transform="rotate(90 40 40)" fill="white" stroke="#0025CB" stroke-width="3"/>
<path d="M27.6378 29.2176C27.6378 27.3788 27.6378 25.54 27.6378 23.6814C33.6865 23.6814 39.7201 23.6814 45.7883 23.6814C45.7883 24.9102 45.7883 26.139 45.7883 27.3678L45.797 27.359C45.196 27.359 44.595 27.359 43.9681 27.359C43.9681 26.7226 43.9681 26.128 43.9681 25.5312C39.1148 25.5312 34.2897 25.5312 29.4385 25.5312C29.4385 26.7622 29.4385 27.9734 29.4385 29.2088C28.8181 29.2088 28.2236 29.2088 27.6291 29.2088L27.6378 29.2176Z" fill="#0025CB"/>
<path d="M49.4288 44.0072C48.8343 44.0072 48.2398 44.0072 47.6193 44.0072C47.6193 49.5676 47.6193 55.0928 47.6193 60.6555C46.9924 60.6555 46.3914 60.6555 45.7904 60.6555L45.7991 60.6643C45.7991 53.9543 45.7969 47.2466 45.7969 40.5366C45.7969 40.4683 45.8099 40.4023 45.8164 40.3274C46.4152 40.3274 46.9989 40.3274 47.6172 40.3274C47.6172 40.944 47.6172 41.5452 47.6172 42.1728C48.2355 42.1728 48.8191 42.1728 49.4244 42.1728C49.4244 42.8048 49.4244 43.4104 49.4244 44.016L49.4288 44.0072Z" fill="#0025CB"/>
<path d="M42.165 60.6556C41.5705 60.6555 40.976 60.6555 40.3491 60.6555C40.3491 58.1913 40.3491 55.7425 40.3491 53.2673C39.1277 53.2673 37.9409 53.2673 36.7194 53.2673C36.7194 52.6309 36.7194 52.0187 36.7194 51.4065L36.7108 51.4153C37.9171 51.4153 39.1234 51.4153 40.3599 51.4153C40.3599 48.9247 40.3599 46.4737 40.3599 44.0315C40.976 44.0315 41.5597 44.0315 42.1586 44.0315C42.1586 49.5897 42.1586 55.1259 42.1586 60.6644L42.165 60.6556Z" fill="#0025CB"/>
<path d="M36.7195 51.4065C34.9144 51.4065 33.1115 51.4065 31.2718 51.4065C31.2718 50.7811 31.2718 50.1689 31.2718 49.5567L31.2631 49.5633C32.4694 49.5633 33.6757 49.5633 34.9101 49.5633C34.9101 47.0748 34.9101 44.6304 34.9101 42.1794C35.5219 42.1794 36.1034 42.1794 36.7109 42.1794C36.7109 45.2691 36.7109 48.3411 36.7109 51.4131L36.7195 51.4065Z" fill="#0025CB"/>
<path d="M51.2382 38.4666C51.8327 38.4666 52.4272 38.4666 53.0477 38.4666C53.0477 39.0766 53.0477 39.6712 53.0477 40.301C53.6616 40.301 54.2518 40.301 54.8571 40.301C54.8571 42.164 54.8571 43.9896 54.8571 45.8394C53.0606 45.8394 51.262 45.8394 49.4288 45.8394C49.4288 45.2316 49.4288 44.6194 49.4288 44.0072L49.4223 44.016C50.6264 44.016 51.8327 44.016 53.0369 44.016C53.0369 43.3752 53.0369 42.7762 53.0369 42.1486C52.4294 42.1486 51.8479 42.1486 51.2469 42.1486C51.2469 40.9 51.2469 39.68 51.2469 38.4578L51.2382 38.4666Z" fill="#0025CB"/>
<path d="M31.2697 49.5569C30.072 49.5569 28.8722 49.5569 27.6378 49.5569C27.6378 48.9292 27.6378 48.317 27.6378 47.707L27.6292 47.7136C28.2301 47.7136 28.8311 47.7136 29.4645 47.7136C29.4645 45.223 29.4645 42.772 29.4645 40.332C30.0807 40.332 30.6622 40.332 31.261 40.332C31.261 43.4239 31.261 46.4937 31.261 49.5635L31.2697 49.5569Z" fill="#0025CB"/>
<path d="M25.8218 45.8569C25.2273 45.8569 24.6328 45.8569 24.021 45.8569C24.021 42.1617 24.021 38.4819 24.021 34.7669C24.622 34.7669 25.223 34.7669 25.824 34.7669L25.8153 34.7581C25.8153 38.4599 25.8153 42.1617 25.8153 45.8635L25.8218 45.8569Z" fill="#0025CB"/>
<path d="M25.8218 34.767C25.8218 32.9282 25.8218 31.0916 25.8218 29.2175C26.4357 29.2175 27.0367 29.2175 27.6377 29.2175L27.629 29.2109C27.629 31.0541 27.629 32.8951 27.629 34.7604C27 34.7604 26.4076 34.7604 25.8131 34.7604L25.8218 34.767Z" fill="#0025CB"/>
<path d="M45.7906 60.6555C45.7906 61.2608 45.7906 61.8639 45.7906 62.489C44.5843 62.489 43.391 62.489 42.1674 62.489C42.1674 61.8771 42.1674 61.2652 42.1674 60.6555L42.1609 60.6643C43.3737 60.6643 44.5865 60.6643 45.7993 60.6643L45.7906 60.6555Z" fill="#0025CB"/>
<path d="M49.4223 34.7669C50.0168 34.7669 50.6113 34.7669 51.2382 34.7669C51.2382 36.0111 51.2382 37.2377 51.2382 38.4665L51.2468 38.4577C50.648 38.4577 50.047 38.4577 49.4309 38.4577C49.4309 37.198 49.4309 35.978 49.4309 34.7581L49.4223 34.7669Z" fill="#0025CB"/>
<path d="M47.6042 31.0672C48.1987 31.0672 48.7932 31.0672 49.4202 31.0672C49.4202 32.3092 49.4202 33.538 49.4202 34.7668L49.4266 34.758C48.8278 34.758 48.2268 34.758 47.6107 34.758C47.6107 33.4983 47.6107 32.2783 47.6107 31.0583L47.6042 31.0672Z" fill="#0025CB"/>
<path d="M45.7884 27.3677C46.3829 27.3677 46.9774 27.3677 47.6043 27.3677C47.6043 28.6119 47.6043 29.8407 47.6043 31.0673L47.613 31.0585C47.0142 31.0585 46.4132 31.0585 45.7971 31.0585C45.7971 29.7989 45.7971 28.5789 45.7971 27.3589L45.7884 27.3677Z" fill="#0025CB"/>
<path d="M27.64 47.7059C27.0455 47.7059 26.451 47.7059 25.824 47.7059C25.824 47.0785 25.824 46.4688 25.824 45.8569L25.8175 45.8657C26.4164 45.8657 27.0174 45.8657 27.6335 45.8657C27.6335 46.5063 27.6335 47.1116 27.6335 47.7147L27.64 47.7059Z" fill="#0025CB"/>
</svg>
