<svg width="67" height="67" viewBox="0 0 67 67" fill="none" xmlns="http://www.w3.org/2000/svg">
<circle cx="33.5" cy="33.5" r="32" fill="white" stroke="#0025CB" stroke-width="3"/>
<path d="M23.3325 43.9965C21.8207 43.9965 20.3089 43.9965 18.7808 43.9965C18.7808 38.8362 18.7808 33.6887 18.7808 28.5118C19.7911 28.5118 20.8014 28.5118 21.8116 28.5118L21.8044 28.5044C21.8044 29.0171 21.8044 29.5298 21.8044 30.0647C21.2812 30.0647 20.7923 30.0647 20.3017 30.0647C20.3017 34.2051 20.3017 38.3216 20.3017 42.4602C21.3137 42.4602 22.3095 42.4602 23.3252 42.4602C23.3252 42.9896 23.3252 43.4967 23.3252 44.0039L23.3325 43.9965Z" fill="#0025CB"/>
<path d="M35.4919 25.406C35.4919 25.9132 35.4919 26.4204 35.4919 26.9497C40.0635 26.9497 44.6061 26.9497 49.1795 26.9497C49.1795 27.4845 49.1795 27.9973 49.1795 28.51L49.1867 28.5026C43.67 28.5026 38.1552 28.5044 32.6386 28.5044C32.5824 28.5044 32.5281 28.4934 32.4666 28.4878C32.4666 27.977 32.4666 27.479 32.4666 26.9515C32.9735 26.9515 33.4678 26.9515 33.9838 26.9515C33.9838 26.4241 33.9838 25.9261 33.9838 25.4097C34.5034 25.4097 35.0013 25.4097 35.4992 25.4097L35.4919 25.406Z" fill="#0025CB"/>
<path d="M49.1795 31.6028C49.1795 32.11 49.1795 32.6172 49.1795 33.152C47.1535 33.152 45.1402 33.152 43.1052 33.152C43.1052 34.194 43.1052 35.2066 43.1052 36.2486C42.5819 36.2486 42.0786 36.2486 41.5753 36.2486L41.5825 36.256C41.5825 35.2268 41.5825 34.1977 41.5825 33.1428C39.5348 33.1428 37.5197 33.1428 35.5118 33.1428C35.5118 32.6171 35.5118 32.1192 35.5118 31.6083C40.0816 31.6083 44.6332 31.6083 49.1867 31.6083L49.1795 31.6028Z" fill="#0025CB"/>
<path d="M41.5753 36.2485C41.5753 37.7885 41.5753 39.3267 41.5753 40.8962C41.0611 40.8962 40.5578 40.8962 40.0544 40.8962L40.0599 40.9036C40.0599 39.8744 40.0599 38.8453 40.0599 37.7922C38.014 37.7922 36.0043 37.7922 33.9892 37.7922C33.9892 37.2703 33.9892 36.7742 33.9892 36.2559C36.5294 36.2559 39.055 36.2559 41.5807 36.2559L41.5753 36.2485Z" fill="#0025CB"/>
<path d="M30.9367 23.8623C30.9367 23.3551 30.9367 22.8479 30.9367 22.3186C31.4382 22.3186 31.927 22.3186 32.4448 22.3186C32.4448 21.7948 32.4448 21.2913 32.4448 20.7749C33.9765 20.7749 35.4775 20.7749 36.9983 20.7749C36.9983 22.3075 36.9983 23.842 36.9983 25.4059C36.4986 25.4059 35.9953 25.4059 35.492 25.4059L35.4992 25.4115C35.4992 24.3842 35.4992 23.3551 35.4992 22.3278C34.9723 22.3278 34.4799 22.3278 33.9639 22.3278C33.9639 22.8461 33.9639 23.3422 33.9639 23.8549C32.9373 23.8549 31.9343 23.8549 30.9294 23.8549L30.9367 23.8623Z" fill="#0025CB"/>
<path d="M40.0545 40.8979C40.0545 41.9197 40.0545 42.9433 40.0545 43.9964C39.5385 43.9964 39.0352 43.9964 38.5337 43.9964L38.5391 44.0038C38.5391 43.491 38.5391 42.9783 38.5391 42.4379C36.4914 42.4379 34.4763 42.4379 32.4703 42.4379C32.4703 41.9123 32.4703 41.4162 32.4703 40.9053C35.0122 40.9053 37.5361 40.9053 40.06 40.9053L40.0545 40.8979Z" fill="#0025CB"/>
<path d="M37.0127 45.5458C37.0127 46.0527 37.0127 46.5597 37.0127 47.0814C33.9747 47.0814 30.9493 47.0814 27.8949 47.0814C27.8949 46.5689 27.8949 46.0564 27.8949 45.5439L27.8877 45.5513C30.9312 45.5513 33.9747 45.5513 37.0181 45.5513L37.0127 45.5458Z" fill="#0025CB"/>
<path d="M27.895 45.5451C26.3832 45.5451 24.8733 45.5451 23.3325 45.5451C23.3325 45.0215 23.3325 44.5091 23.3325 43.9966L23.3271 44.004C24.8425 44.004 26.3561 44.004 27.8896 44.004C27.8896 44.5404 27.8896 45.0455 27.8896 45.5524L27.895 45.5451Z" fill="#0025CB"/>
<path d="M49.1794 28.5098C49.6773 28.5098 50.1734 28.5098 50.6876 28.5098C50.6876 29.5389 50.6876 30.557 50.6876 31.6009C50.1843 31.6009 49.681 31.6009 49.1794 31.6009L49.1867 31.6064C49.1867 30.5717 49.1867 29.5371 49.1867 28.5024L49.1794 28.5098Z" fill="#0025CB"/>
<path d="M27.8949 25.4108C27.8949 24.9039 27.8949 24.3969 27.8949 23.8624C28.9179 23.8624 29.9263 23.8624 30.9366 23.8624L30.9294 23.855C30.9294 24.3656 30.9294 24.8781 30.9294 25.4035C29.8938 25.4035 28.8907 25.4035 27.8877 25.4035L27.8949 25.4108Z" fill="#0025CB"/>
<path d="M24.8533 26.9617C24.8533 26.4548 24.8533 25.9478 24.8533 25.4132C25.8744 25.4132 26.8847 25.4132 27.8949 25.4132L27.8877 25.4077C27.8877 25.9183 27.8877 26.4308 27.8877 26.9562C26.8521 26.9562 25.849 26.9562 24.846 26.9562L24.8533 26.9617Z" fill="#0025CB"/>
<path d="M21.8117 28.5109C21.8117 28.004 21.8117 27.497 21.8117 26.9625C22.8347 26.9625 23.845 26.9625 24.8534 26.9625L24.8462 26.9551C24.8462 27.4657 24.8462 27.9782 24.8462 28.5036C23.8106 28.5036 22.8075 28.5036 21.8045 28.5036L21.8117 28.5109Z" fill="#0025CB"/>
<path d="M38.5335 43.9946C38.5335 44.5016 38.5335 45.0085 38.5335 45.5431C38.0175 45.5431 37.516 45.5431 37.0126 45.5431L37.0199 45.5486C37.0199 45.038 37.0199 44.5255 37.0199 44.0002C37.5467 44.0002 38.0446 44.0002 38.5407 44.0002L38.5335 43.9946Z" fill="#0025CB"/>
</svg>
