<svg width="41" height="33" viewBox="0 0 41 33" fill="none" xmlns="http://www.w3.org/2000/svg">
<path d="M34.6276 29.0148C36.5009 29.0148 38.3741 29.0148 40.2676 29.0148C40.2676 22.7377 40.2676 16.4764 40.2676 10.1791C39.0158 10.1791 37.7639 10.1791 36.5121 10.1791L36.5211 10.1702C36.5211 10.7938 36.5211 11.4175 36.5211 12.0681C37.1694 12.0681 37.7752 12.0681 38.3831 12.0681C38.3831 17.1045 38.3831 22.1118 38.3831 27.146C37.129 27.146 35.8952 27.146 34.6366 27.146C34.6366 27.7899 34.6366 28.4068 34.6366 29.0238L34.6276 29.0148Z" fill="white"/>
<path d="M19.5608 6.40137C19.5608 7.0183 19.5608 7.63524 19.5608 8.2791C13.8962 8.2791 8.26751 8.2791 2.60066 8.2791C2.60066 8.92969 2.60066 9.55335 2.60066 10.177L2.59168 10.168C9.42735 10.1681 16.2608 10.1703 23.0964 10.1703C23.166 10.1703 23.2333 10.1568 23.3096 10.1501C23.3096 9.52868 23.3096 8.92296 23.3096 8.28134C22.6814 8.28134 22.069 8.28134 21.4296 8.28134C21.4296 7.63973 21.4296 7.03401 21.4296 6.40585C20.7857 6.40585 20.1688 6.40585 19.5519 6.40585L19.5608 6.40137Z" fill="white"/>
<path d="M2.60064 13.9392C2.60064 14.5561 2.60064 15.1731 2.60064 15.8237C5.11101 15.8237 7.60568 15.8237 10.1273 15.8237C10.1273 17.0912 10.1273 18.3228 10.1273 19.5904C10.7756 19.5904 11.3993 19.5904 12.023 19.5904L12.014 19.5993C12.014 18.3475 12.014 17.0957 12.014 15.8125C14.5513 15.8125 17.0482 15.8125 19.5361 15.8125C19.5361 15.1731 19.5361 14.5674 19.5361 13.9459C13.8738 13.9459 8.23384 13.9459 2.59166 13.9459L2.60064 13.9392Z" fill="white"/>
<path d="M12.023 19.5903C12.023 21.4636 12.023 23.3346 12.023 25.2437C12.6601 25.2437 13.2838 25.2437 13.9074 25.2437L13.9007 25.2527C13.9007 24.0009 13.9007 22.7491 13.9007 21.4681C16.4358 21.4681 18.9259 21.4681 21.4229 21.4681C21.4229 20.8332 21.4229 20.2297 21.4229 19.5993C18.2753 19.5993 15.1458 19.5993 12.0162 19.5993L12.023 19.5903Z" fill="white"/>
<path d="M25.2049 4.52353C25.2049 3.9066 25.2049 3.28966 25.2049 2.6458C24.5835 2.6458 23.9777 2.6458 23.3361 2.6458C23.3361 2.00867 23.3361 1.39622 23.3361 0.768066C21.4382 0.768066 19.5784 0.768066 17.694 0.768066C17.694 2.63234 17.694 4.49886 17.694 6.40127C18.3131 6.40127 18.9368 6.40127 19.5605 6.40127L19.5515 6.408C19.5515 5.15842 19.5515 3.9066 19.5515 2.65702C20.2043 2.65702 20.8145 2.65702 21.4539 2.65702C21.4539 3.28741 21.4539 3.89089 21.4539 4.51456C22.7259 4.51456 23.9688 4.51456 25.2139 4.51456L25.2049 4.52353Z" fill="white"/>
<path d="M13.907 25.2458C13.907 26.4887 13.907 27.7338 13.907 29.0148C14.5464 29.0148 15.1701 29.0148 15.7915 29.0148L15.7848 29.0237C15.7848 28.4001 15.7848 27.7764 15.7848 27.1191C18.3221 27.1191 20.819 27.1191 23.3047 27.1191C23.3047 26.4797 23.3047 25.8762 23.3047 25.2548C20.1549 25.2548 17.0276 25.2548 13.9003 25.2548L13.907 25.2458Z" fill="white"/>
<path d="M17.6766 30.8992C17.6766 31.5162 17.6766 32.1331 17.6766 32.768C21.4411 32.768 25.1898 32.768 28.9744 32.768C28.9744 32.1443 28.9744 31.5206 28.9744 30.897L28.9834 30.9059C25.2122 30.9059 21.4411 30.9059 17.6699 30.9059L17.6766 30.8992Z" fill="white"/>
<path d="M28.9737 30.8994C30.8469 30.8994 32.7179 30.8994 34.6271 30.8994C34.6271 30.2622 34.6271 29.6386 34.6271 29.0149L34.6338 29.0239C32.7561 29.0239 30.8806 29.0239 28.9804 29.0239C28.9804 29.6767 28.9804 30.2914 28.9804 30.9083L28.9737 30.8994Z" fill="white"/>
<path d="M2.60059 10.1769C1.98365 10.1769 1.36895 10.1769 0.731825 10.1769C0.731825 11.4288 0.731825 12.6671 0.731825 13.9369C1.35549 13.9369 1.97916 13.9369 2.60059 13.9369L2.59161 13.9436C2.59161 12.6851 2.59161 11.4265 2.59161 10.168L2.60059 10.1769Z" fill="white"/>
<path d="M28.9744 6.40809C28.9744 5.79115 28.9744 5.17421 28.9744 4.52362C27.7069 4.52362 26.4573 4.52362 25.2055 4.52362L25.2145 4.51465C25.2145 5.13607 25.2145 5.75974 25.2145 6.39911C26.4977 6.39911 27.7405 6.39911 28.9834 6.39911L28.9744 6.40809Z" fill="white"/>
<path d="M32.743 8.29476C32.743 7.67782 32.743 7.06088 32.743 6.41029C31.4777 6.41029 30.2259 6.41029 28.9741 6.41029L28.983 6.40356C28.983 7.02499 28.983 7.64866 28.983 8.28803C30.2663 8.28803 31.5091 8.28803 32.752 8.28803L32.743 8.29476Z" fill="white"/>
<path d="M36.5125 10.1791C36.5125 9.56214 36.5125 8.94521 36.5125 8.29462C35.245 8.29462 33.9932 8.29462 32.7436 8.29462L32.7526 8.28564C32.7526 8.90707 32.7526 9.53074 32.7526 10.1701C34.0358 10.1701 35.2786 10.1701 36.5215 10.1701L36.5125 10.1791Z" fill="white"/>
<path d="M15.7923 29.0125C15.7923 29.6294 15.7923 30.2463 15.7923 30.8969C16.4317 30.8969 17.0531 30.8969 17.6768 30.8969L17.6678 30.9036C17.6678 30.2822 17.6678 29.6586 17.6678 29.0192C17.015 29.0192 16.398 29.0192 15.7833 29.0192L15.7923 29.0125Z" fill="white"/>
</svg>
