<?xml version="1.0" encoding="utf-8"?>
<!-- Generator: Adobe Illustrator 27.5.0, SVG Export Plug-In . SVG Version: 6.00 Build 0)  -->
<svg version="1.1" id="Capa_1" xmlns="http://www.w3.org/2000/svg" xmlns:xlink="http://www.w3.org/1999/xlink" x="0px" y="0px"
	 viewBox="0 0 91 91" style="enable-background:new 0 0 91 91;" xml:space="preserve">
<style type="text/css">
	.st0{fill:#0025CB;}
</style>
<path class="st0" d="M16.1,0h14.3c3,0,5.4,2.4,5.4,5.4v80.3c0,3-2.4,5.4-5.4,5.4H16.1c-3,0-5.4-2.4-5.4-5.4V5.4
	C10.7,2.4,13.1,0,16.1,0z"/>
<path class="st0" d="M60.7,0h14.3c3,0,5.4,2.4,5.4,5.4v80.3c0,3-2.4,5.4-5.4,5.4H60.7c-3,0-5.4-2.4-5.4-5.4V5.4
	C55.3,2.4,57.7,0,60.7,0z"/>
</svg>
