<?xml version="1.0" encoding="utf-8"?>
<!-- Generator: Adobe Illustrator 25.0.0, SVG Export Plug-In . SVG Version: 6.00 Build 0)  -->
<svg version="1.1" id="Capa_1" xmlns="http://www.w3.org/2000/svg" xmlns:xlink="http://www.w3.org/1999/xlink" x="0px" y="0px"
	 viewBox="0 0 72 63" style="enable-background:new 0 0 72 63;" xml:space="preserve">
<style type="text/css">
	.st0{fill:#FFFFFF;}
	.st1{fill:#FFFFFF;filter:url(#Adobe_OpacityMaskFilter);}
	.st2{mask:url(#path-1-inside-1_42_687_1_);fill:#0025CB;}
	.st3{fill:#0025CB;}
</style>
<path class="st0" d="M35.6,0c0,0.1,0,0.1,0,0.2C35.6,0.1,35.6,0.1,35.6,0L35.6,0z"/>
<defs>
	<filter id="Adobe_OpacityMaskFilter" filterUnits="userSpaceOnUse" x="33.6" y="-2" width="4.4" height="4">
		<feColorMatrix  type="matrix" values="1 0 0 0 0  0 1 0 0 0  0 0 1 0 0  0 0 0 1 0"/>
	</filter>
</defs>
<mask maskUnits="userSpaceOnUse" x="33.6" y="-2" width="4.4" height="4" id="path-1-inside-1_42_687_1_">
	<path class="st1" d="M35.6,0c0,0.1,0,0.1,0,0.2C35.6,0.1,35.6,0.1,35.6,0L35.6,0z"/>
</mask>
<path class="st2" d="M35.6,0v-2h-2v2H35.6z M35.6,0l2,0.3L38-2h-2.4V0z M33.6,0c0,0.1,0,0.1,0,0.2c0,0,0,0.1,0,0.1c0,0,0,0,0,0
	c0,0,0,0,0-0.1h4c0-0.1,0-0.1,0-0.2c0,0,0-0.1,0-0.1c0,0,0,0,0,0c0,0,0,0,0,0.1H33.6z M37.6,0.2C37.6,0.2,37.6,0.2,37.6,0.2
	C37.6,0.2,37.6,0.2,37.6,0.2C37.6,0.2,37.6,0.2,37.6,0.2C37.6,0.2,37.6,0.2,37.6,0.2C37.6,0.2,37.6,0.2,37.6,0.2
	C37.6,0.2,37.6,0.2,37.6,0.2c0,0,0,0.1,0,0.1l-3.9-0.6c0,0.2,0,0.4,0,0.5H37.6z M35.6-2L35.6-2l0,4h0V-2z"/>
<g>
	<path class="st0" d="M35.4,55.2c-3.5-11.5-12.8-20.8-23.9-23.9C23.2,27.5,32,18.6,35.4,7.4c3.5,11.6,12.8,21,24,24.1
		C47.6,35.3,38.8,44.1,35.4,55.2z"/>
	<path class="st3" d="M35.4,10.6c3.8,9.6,11.5,17.4,20.8,21C46.5,35.4,39.1,42.8,35.4,52c-1.9-4.7-4.7-9-8.2-12.6
		c-3.6-3.6-7.9-6.4-12.5-8.2C24.3,27.3,31.7,19.9,35.4,10.6 M35.3,2.7L35.3,2.7C33,17.5,21.6,28.4,6.9,31.4l0,0h0
		c14.5,1.8,26.1,14,28.5,28.4v0l0,0C37.8,45.1,49.3,34.3,64,31.4l0,0h0C49.5,29.5,37.8,17.1,35.3,2.7L35.3,2.7L35.3,2.7z"/>
</g>
</svg>
