<svg width="53" height="53" viewBox="0 0 53 53" fill="none" xmlns="http://www.w3.org/2000/svg">
<path d="M26.5 0L29.2479 14.4606L37.9979 2.62432L34.1995 16.8452L47.2185 9.97752L37.6261 21.142L52.3356 20.6032L38.849 26.5L52.3356 32.3968L37.6261 31.858L47.2185 43.0225L34.1995 36.1548L37.9979 50.3757L29.2479 38.5394L26.5 53L23.7521 38.5394L15.0021 50.3757L18.8005 36.1548L5.78147 43.0225L15.3739 31.858L0.66441 32.3968L14.151 26.5L0.66441 20.6032L15.3739 21.142L5.78147 9.97752L18.8005 16.8452L15.0021 2.62432L23.7521 14.4606L26.5 0Z" fill="#0025CB"/>
</svg>
