<svg width="200" height="99" viewBox="0 0 200 99" fill="none" xmlns="http://www.w3.org/2000/svg">
<path d="M198.321 49.5C198.321 62.5836 187.634 74.7007 169.733 83.6065C151.892 92.4818 127.176 98 99.8208 98C72.4655 98 47.7494 92.4818 29.9091 83.6065C12.0076 74.7007 1.3208 62.5836 1.3208 49.5C1.3208 36.4164 12.0076 24.2993 29.9091 15.3935C47.7494 6.51822 72.4655 1 99.8208 1C127.176 1 151.892 6.51822 169.733 15.3935C187.634 24.2993 198.321 36.4164 198.321 49.5Z" fill="white" stroke="#0025CB" stroke-width="2"/>
<path d="M29.4697 35.8401L29.4697 39.8161L32.0457 39.8161L32.0457 43.7081L29.4697 43.7081L29.4697 51.5481L24.9897 51.5481L24.9897 31.9481L32.2137 31.9481L32.2137 35.8401L29.4697 35.8401ZM38.2453 31.9481L38.2453 47.0121C38.2453 47.3481 38.3013 47.5907 38.4133 47.7401C38.5439 47.8707 38.6933 47.9361 38.8613 47.9361C39.0293 47.9361 39.1693 47.8707 39.2813 47.7401C39.4119 47.5907 39.4773 47.3481 39.4773 47.0121L39.4773 31.9481L43.9573 31.9481L43.9573 46.6481C43.9573 48.3467 43.4999 49.6347 42.5853 50.5121C41.6706 51.3894 40.4013 51.8281 38.7773 51.8281C37.1719 51.8281 35.9306 51.3987 35.0533 50.5401C34.1946 49.6627 33.7653 48.3654 33.7653 46.6481L33.7653 31.9481L38.2453 31.9481ZM50.194 35.8401L50.194 39.3121L52.882 39.3121L52.882 43.2041L50.194 43.2041L50.194 47.6561L52.966 47.6561L52.966 51.5481L45.714 51.5481L45.714 31.9481L52.938 31.9481L52.938 35.8401L50.194 35.8401ZM59.6663 31.9201C61.309 31.9201 62.5783 32.3587 63.4743 33.2361C64.3703 34.0947 64.8183 35.4107 64.8183 37.1841L64.8183 37.2961C64.8183 38.0987 64.725 38.8081 64.5383 39.4241C64.3703 40.0214 64.1463 40.5254 63.8663 40.9361C63.5863 41.3281 63.2783 41.6361 62.9423 41.8601C62.6063 42.0654 62.2797 42.1774 61.9623 42.1961L61.9623 42.5041C62.2797 42.5227 62.6063 42.6534 62.9423 42.8961C63.2783 43.1201 63.5863 43.4374 63.8663 43.8481C64.1463 44.2587 64.3703 44.7627 64.5383 45.3601C64.725 45.9387 64.8183 46.5921 64.8183 47.3201L64.8183 47.5441C64.8183 48.3467 64.8277 49.0654 64.8463 49.7001C64.8837 50.3347 64.9677 50.9507 65.0983 51.5481L60.6463 51.5481C60.5157 50.9507 60.4317 50.3254 60.3943 49.6721C60.3757 49.0001 60.3663 48.2814 60.3663 47.5161L60.3663 45.2481C60.3663 44.8934 60.3103 44.6507 60.1983 44.5201C60.0863 44.3707 59.8903 44.2961 59.6103 44.2961L59.1343 44.2961L59.1343 51.5481L54.6543 51.5481L54.6543 31.9201L59.6663 31.9201ZM59.1343 40.4041L59.6103 40.4041C59.8903 40.4041 60.0863 40.3294 60.1983 40.1801C60.3103 40.0307 60.3663 39.7787 60.3663 39.4241L60.3663 36.7641C60.3663 36.4281 60.3103 36.1854 60.1983 36.0361C60.0863 35.8867 59.8903 35.8121 59.6103 35.8121L59.1343 35.8121L59.1343 40.4041ZM74.8684 31.9201L76.5484 51.5481L72.0684 51.5481L71.8444 47.0961L70.8364 47.0961L70.6124 51.5481L66.1324 51.5481L67.8964 31.9201L74.8684 31.9201ZM71.6484 43.2041L71.4804 39.6761L71.2004 39.6761L71.0044 43.2041L71.6484 43.2041ZM88.8942 31.9481C90.4995 31.9481 91.7595 32.3494 92.6742 33.1521C93.6075 33.9361 94.0742 35.1681 94.0742 36.8481L94.0742 46.6481C94.0742 48.3281 93.6075 49.5694 92.6742 50.3721C91.7595 51.1561 90.4995 51.5481 88.8942 51.5481L83.8542 51.5481L83.8542 31.9481L88.8942 31.9481ZM88.3622 47.6561L88.8662 47.6561C89.1089 47.6561 89.2862 47.6001 89.3982 47.4881C89.5289 47.3574 89.5942 47.1054 89.5942 46.7321L89.5942 36.7641C89.5942 36.3907 89.5289 36.1481 89.3982 36.0361C89.2862 35.9054 89.1089 35.8401 88.8662 35.8401L88.3622 35.8401L88.3622 47.6561ZM100.31 35.8401L100.31 39.3121L102.998 39.3121L102.998 43.2041L100.31 43.2041L100.31 47.6561L103.082 47.6561L103.082 51.5481L95.8297 51.5481L95.8297 31.9481L103.054 31.9481L103.054 35.8401L100.31 35.8401ZM114.991 35.8401L114.991 39.3121L117.679 39.3121L117.679 43.2041L114.991 43.2041L114.991 47.6561L117.763 47.6561L117.763 51.5481L110.511 51.5481L110.511 31.9481L117.735 31.9481L117.735 35.8401L114.991 35.8401ZM125.191 38.7801L125.191 36.4841C125.191 35.8681 124.986 35.5601 124.575 35.5601C124.146 35.5601 123.931 35.8681 123.931 36.4841L123.931 37.9401C123.931 38.1827 123.95 38.3974 123.987 38.5841C124.025 38.7521 124.118 38.9201 124.267 39.0881C124.435 39.2561 124.669 39.4427 124.967 39.6481C125.285 39.8347 125.714 40.0681 126.255 40.3481L127.095 40.7401C127.599 41.0014 128.019 41.2907 128.355 41.6081C128.691 41.9067 128.953 42.2707 129.139 42.7001C129.345 43.1107 129.485 43.6054 129.559 44.1841C129.653 44.7627 129.699 45.4534 129.699 46.2561L129.699 46.6481C129.699 48.3094 129.242 49.5881 128.327 50.4841C127.431 51.3801 126.153 51.8281 124.491 51.8281C122.849 51.8281 121.589 51.3894 120.711 50.5121C119.853 49.6347 119.423 48.3467 119.423 46.6481L119.423 44.7161L123.903 44.7161L123.903 46.9841C123.903 47.6187 124.127 47.9361 124.575 47.9361C125.005 47.9361 125.219 47.6281 125.219 47.0121L125.219 45.5001C125.219 45.2387 125.201 45.0241 125.163 44.8561C125.126 44.6881 125.033 44.5294 124.883 44.3801C124.734 44.2121 124.519 44.0441 124.239 43.8761C123.959 43.6894 123.567 43.4654 123.063 43.2041L122.083 42.7281C121.579 42.4667 121.159 42.1774 120.823 41.8601C120.487 41.5427 120.217 41.1601 120.011 40.7121C119.806 40.2641 119.657 39.7507 119.563 39.1721C119.489 38.5747 119.451 37.8841 119.451 37.1001L119.451 36.8201C119.451 35.1214 119.881 33.8427 120.739 32.9841C121.598 32.1067 122.849 31.6681 124.491 31.6681C126.134 31.6681 127.403 32.1161 128.299 33.0121C129.214 33.9081 129.671 35.1774 129.671 36.8201L129.671 38.7801L125.191 38.7801ZM135.906 47.0121C135.906 47.3481 135.972 47.5907 136.102 47.7401C136.233 47.8707 136.392 47.9361 136.578 47.9361C136.746 47.9361 136.896 47.8707 137.026 47.7401C137.157 47.5907 137.222 47.3481 137.222 47.0121L137.222 42.2801L141.702 42.2801L141.702 46.6761C141.702 48.3747 141.236 49.6627 140.302 50.5401C139.388 51.3987 138.118 51.8281 136.494 51.8281C134.889 51.8281 133.638 51.3987 132.742 50.5401C131.865 49.6814 131.426 48.3934 131.426 46.6761L131.426 36.8201C131.426 35.1027 131.865 33.8241 132.742 32.9841C133.638 32.1254 134.889 31.6961 136.494 31.6961C138.118 31.6961 139.388 32.1347 140.302 33.0121C141.236 33.8707 141.702 35.1401 141.702 36.8201L141.702 41.2441L137.222 41.2441L137.222 36.5121C137.222 36.1574 137.157 35.9147 137.026 35.7841C136.896 35.6347 136.746 35.5601 136.578 35.5601C136.392 35.5601 136.233 35.6347 136.102 35.7841C135.972 35.9147 135.906 36.1574 135.906 36.5121L135.906 47.0121ZM147.937 35.8401L147.937 39.3121L150.625 39.3121L150.625 43.2041L147.937 43.2041L147.937 47.6561L150.709 47.6561L150.709 51.5481L143.457 51.5481L143.457 31.9481L150.681 31.9481L150.681 35.8401L147.937 35.8401ZM162.981 31.9481L162.981 51.5481L158.109 51.5481L156.121 39.8161L155.869 39.8161L156.849 51.5481L152.369 51.5481L152.369 31.9481L157.241 31.9481L159.341 43.7641L159.593 43.7641L158.501 31.9481L162.981 31.9481ZM173.268 31.9201L174.948 51.5481L170.468 51.5481L170.244 47.0961L169.236 47.0961L169.012 51.5481L164.532 51.5481L166.296 31.9201L173.268 31.9201ZM170.048 43.2041L169.88 39.6761L169.6 39.6761L169.404 43.2041L170.048 43.2041ZM60.1835 58.0026L60.1835 72.5481L58.0599 72.5481L58.0599 58.0026L60.1835 58.0026ZM67.6355 72.7682C66.6128 72.7682 65.7203 72.5339 64.958 72.0651C64.1957 71.5964 63.6038 70.9406 63.1824 70.0978C62.761 69.255 62.5503 68.2701 62.5503 67.1432C62.5503 66.0116 62.761 65.022 63.1824 64.1745C63.6038 63.327 64.1957 62.6688 64.958 62.2001C65.7203 61.7313 66.6128 61.4969 67.6355 61.4969C68.6583 61.4969 69.5508 61.7313 70.3131 62.2001C71.0754 62.6688 71.6672 63.327 72.0886 64.1745C72.5101 65.022 72.7208 66.0116 72.7208 67.1432C72.7208 68.2701 72.5101 69.255 72.0886 70.0978C71.6672 70.9406 71.0754 71.5964 70.3131 72.0651C69.5508 72.5339 68.6583 72.7682 67.6355 72.7682ZM67.6426 70.9856C68.3055 70.9856 68.8547 70.8104 69.2904 70.46C69.726 70.1096 70.0479 69.6432 70.2563 69.0609C70.4693 68.4785 70.5759 67.8369 70.5759 67.1361C70.5759 66.4401 70.4693 65.8009 70.2563 65.2185C70.0479 64.6314 69.726 64.1603 69.2904 63.8052C68.8547 63.4501 68.3055 63.2725 67.6426 63.2725C66.975 63.2725 66.421 63.4501 65.9807 63.8052C65.5451 64.1603 65.2208 64.6314 65.0077 65.2185C64.7994 65.8009 64.6952 66.4401 64.6952 67.1361C64.6952 67.8369 64.7994 68.4785 65.0077 69.0609C65.2208 69.6432 65.5451 70.1096 65.9807 70.46C66.421 70.8104 66.975 70.9856 67.6426 70.9856ZM82.5077 66.0708L82.5077 72.5481L80.3841 72.5481L80.3841 58.0026L82.4793 58.0026L82.4793 63.4146L82.6142 63.4146C82.8699 62.8274 83.2605 62.3611 83.7861 62.0154C84.3117 61.6698 84.9982 61.4969 85.8458 61.4969C86.5939 61.4969 87.2473 61.6508 87.806 61.9586C88.3694 62.2664 88.805 62.7256 89.1128 63.3364C89.4253 63.9425 89.5815 64.7001 89.5815 65.6092L89.5815 72.5481L87.458 72.5481L87.458 65.8648C87.458 65.0647 87.252 64.4444 86.8401 64.004C86.4281 63.559 85.8552 63.3364 85.1213 63.3364C84.6194 63.3364 84.1696 63.443 83.7719 63.656C83.3789 63.8691 83.0688 64.1816 82.8415 64.5935C82.619 65.0007 82.5077 65.4932 82.5077 66.0708ZM95.5901 72.7896C94.8988 72.7896 94.2738 72.6617 93.7151 72.406C93.1564 72.1456 92.7136 71.7692 92.3869 71.2768C92.065 70.7843 91.904 70.1807 91.904 69.4657C91.904 68.8502 92.0224 68.3435 92.2591 67.9458C92.4958 67.5481 92.8154 67.2332 93.2179 67.0012C93.6204 66.7692 94.0702 66.594 94.5673 66.4756C95.0645 66.3573 95.5711 66.2673 96.0872 66.2057C96.7406 66.13 97.2709 66.0684 97.6781 66.0211C98.0853 65.969 98.3813 65.8861 98.5659 65.7725C98.7506 65.6589 98.8429 65.4742 98.8429 65.2185L98.8429 65.1688C98.8429 64.5486 98.6677 64.068 98.3173 63.7271C97.9717 63.3861 97.4556 63.2157 96.769 63.2157C96.0541 63.2157 95.4906 63.3743 95.0787 63.6915C94.6715 64.004 94.3898 64.3521 94.2335 64.7356L92.2378 64.281C92.4745 63.6182 92.8202 63.0831 93.2747 62.6759C93.734 62.264 94.2619 61.9657 94.8585 61.781C95.4551 61.5916 96.0825 61.4969 96.7406 61.4969C97.1762 61.4969 97.6379 61.549 98.1256 61.6532C98.618 61.7526 99.0773 61.9373 99.5034 62.2072C99.9343 62.4771 100.287 62.8629 100.562 63.3648C100.836 63.862 100.974 64.5083 100.974 65.3038L100.974 72.5481L98.8997 72.5481L98.8997 71.0566L98.8145 71.0566C98.6772 71.3312 98.4712 71.6011 98.1966 71.8663C97.922 72.1314 97.5692 72.3516 97.1384 72.5268C96.7075 72.702 96.1914 72.7896 95.5901 72.7896ZM96.0517 71.085C96.6388 71.085 97.1407 70.969 97.5574 70.737C97.9788 70.505 98.2984 70.202 98.5162 69.8279C98.7387 69.4491 98.85 69.0443 98.85 68.6134L98.85 67.2072C98.7743 67.2829 98.6275 67.3539 98.4097 67.4202C98.1966 67.4818 97.9528 67.5362 97.6781 67.5836C97.4035 67.6262 97.136 67.6664 96.8756 67.7043C96.6152 67.7375 96.3974 67.7659 96.2222 67.7896C95.8102 67.8416 95.4338 67.9292 95.0929 68.0523C94.7567 68.1754 94.4868 68.353 94.2833 68.585C94.0844 68.8123 93.985 69.1153 93.985 69.4941C93.985 70.0197 94.1791 70.4174 94.5673 70.6873C94.9556 70.9524 95.4504 71.085 96.0517 71.085ZM108.397 72.7682C107.341 72.7682 106.432 72.5291 105.67 72.0509C104.912 71.568 104.33 70.9027 103.923 70.0552C103.516 69.2076 103.312 68.237 103.312 67.1432C103.312 66.0353 103.52 65.0575 103.937 64.21C104.354 63.3577 104.941 62.6925 105.698 62.2143C106.456 61.7361 107.348 61.4969 108.376 61.4969C109.205 61.4969 109.943 61.6508 110.592 61.9586C111.241 62.2616 111.764 62.6878 112.161 63.237C112.564 63.7862 112.803 64.4278 112.879 65.1617L110.812 65.1617C110.698 64.6504 110.438 64.21 110.031 63.8407C109.628 63.4714 109.089 63.2867 108.411 63.2867C107.82 63.2867 107.301 63.443 106.856 63.7555C106.416 64.0632 106.072 64.5036 105.826 65.0765C105.58 65.6447 105.457 66.317 105.457 67.0935C105.457 67.889 105.578 68.5755 105.819 69.1532C106.061 69.7308 106.402 70.1783 106.842 70.4955C107.287 70.8128 107.81 70.9714 108.411 70.9714C108.814 70.9714 109.178 70.898 109.505 70.7512C109.837 70.5997 110.114 70.3843 110.336 70.1049C110.563 69.8255 110.722 69.4894 110.812 69.0964L112.879 69.0964C112.803 69.8019 112.573 70.4316 112.19 70.9856C111.806 71.5396 111.293 71.9752 110.649 72.2924C110.009 72.6096 109.259 72.7682 108.397 72.7682ZM119.851 72.7682C118.777 72.7682 117.851 72.5386 117.074 72.0793C116.303 71.6153 115.706 70.9643 115.285 70.1262C114.868 69.2834 114.66 68.2962 114.66 67.1646C114.66 66.0471 114.868 65.0623 115.285 64.21C115.706 63.3577 116.293 62.6925 117.046 62.2143C117.804 61.7361 118.689 61.4969 119.702 61.4969C120.318 61.4969 120.914 61.5987 121.492 61.8023C122.07 62.0059 122.588 62.3255 123.047 62.7611C123.507 63.1968 123.869 63.7626 124.134 64.4586C124.399 65.1499 124.532 65.9903 124.532 66.9799L124.532 67.7327L115.86 67.7327L115.86 66.1418L122.451 66.1418C122.451 65.5831 122.337 65.0883 122.11 64.6575C121.883 64.2218 121.563 63.8786 121.151 63.6276C120.744 63.3767 120.266 63.2512 119.716 63.2512C119.12 63.2512 118.599 63.398 118.154 63.6915C117.714 63.9804 117.373 64.3592 117.131 64.8279C116.895 65.2919 116.776 65.7962 116.776 66.3407L116.776 67.5836C116.776 68.3128 116.904 68.933 117.16 69.4444C117.42 69.9557 117.782 70.3464 118.246 70.6163C118.71 70.8814 119.252 71.014 119.873 71.014C120.275 71.014 120.642 70.9572 120.974 70.8435C121.305 70.7252 121.591 70.55 121.833 70.318C122.074 70.086 122.259 69.7995 122.387 69.4586L124.397 69.8208C124.236 70.4127 123.947 70.9311 123.53 71.3762C123.118 71.8165 122.6 72.1598 121.975 72.406C121.355 72.6475 120.647 72.7682 119.851 72.7682ZM129.012 66.0708L129.012 72.5481L126.888 72.5481L126.888 61.639L128.926 61.639L128.926 63.4146L129.061 63.4146C129.312 62.8369 129.705 62.3729 130.24 62.0225C130.78 61.6721 131.46 61.4969 132.279 61.4969C133.022 61.4969 133.673 61.6532 134.232 61.9657C134.79 62.2735 135.224 62.7327 135.531 63.3435C135.839 63.9543 135.993 64.7095 135.993 65.6092L135.993 72.5481L133.87 72.5481L133.87 65.8648C133.87 65.0741 133.664 64.4562 133.252 64.0111C132.84 63.5613 132.274 63.3364 131.554 63.3364C131.062 63.3364 130.624 63.443 130.24 63.656C129.861 63.8691 129.561 64.1816 129.338 64.5935C129.12 65.0007 129.012 65.4932 129.012 66.0708ZM140.24 72.683C139.852 72.683 139.518 72.5457 139.239 72.2711C138.96 71.9917 138.82 71.6556 138.82 71.2626C138.82 70.8743 138.96 70.5429 139.239 70.2682C139.518 69.9889 139.852 69.8492 140.24 69.8492C140.629 69.8492 140.962 69.9889 141.242 70.2682C141.521 70.5429 141.661 70.8743 141.661 71.2626C141.661 71.523 141.594 71.7621 141.462 71.9799C141.334 72.193 141.164 72.3634 140.951 72.4913C140.737 72.6191 140.501 72.683 140.24 72.683ZM140.24 64.7427C139.852 64.7427 139.518 64.603 139.239 64.3236C138.96 64.0443 138.82 63.7105 138.82 63.3222C138.82 62.934 138.96 62.6025 139.239 62.3279C139.518 62.0486 139.852 61.9089 140.24 61.9089C140.629 61.9089 140.962 62.0486 141.242 62.3279C141.521 62.6025 141.661 62.934 141.661 63.3222C141.661 63.5826 141.594 63.8218 141.462 64.0396C141.334 64.2526 141.164 64.4231 140.951 64.5509C140.737 64.6788 140.501 64.7427 140.24 64.7427Z" fill="#0025CB"/>
</svg>
