<svg width="80" height="80" viewBox="0 0 80 80" fill="none" xmlns="http://www.w3.org/2000/svg">
<rect width="80" height="80" fill="none"/>
<path d="M66.5511 3.0133C67.5749 3.37232 68.6653 3.58508 69.5828 4.10367C72.5082 5.76582 73.9709 8.34548 73.9709 11.723C73.9709 19.3689 73.9709 27.0281 73.9709 34.674C73.9709 39.6737 73.8778 44.6735 73.9975 49.6599C74.1172 54.6996 70.128 58.6888 65.0352 58.6489C54.5171 58.5558 43.9857 58.6223 33.4676 58.6223C28.2019 58.6223 24.5584 54.9788 24.5584 49.6998C24.5584 37.1473 24.6116 24.5947 24.5318 12.0421C24.4919 7.14873 27.896 3.63827 31.7655 3.10638C31.832 3.09308 31.8852 3.03989 31.9517 3C43.4671 3.0133 55.0091 3.0133 66.5511 3.0133ZM69.3302 30.8976C69.3302 24.5947 69.2637 18.2918 69.3568 12.0022C69.3967 9.1965 67.3489 7.61413 65.0086 7.62743C54.5038 7.69392 44.0123 7.65403 33.5075 7.65403C30.715 7.65403 29.1726 9.1965 29.1726 12.0022C29.1726 24.5548 29.1726 37.1074 29.1726 49.6466C29.1726 52.4524 30.715 53.9948 33.5075 53.9948C44.0123 53.9948 54.5038 53.9549 65.0086 54.0214C67.3622 54.0347 69.3967 52.4258 69.3701 49.6466C69.277 43.3969 69.3302 37.1473 69.3302 30.8976Z" fill="#0025cb"/>
<path d="M13.3887 77.1584C11.9393 76.7994 10.5298 76.3473 9.33304 75.3899C7.20548 73.6878 6.02203 71.4805 6.02203 68.7678C5.99544 54.7925 5.99544 40.8171 6.00873 26.8417C6.02203 22.3207 9.69206 18.624 14.2131 18.4778C14.8647 18.4645 15.5162 18.4512 16.1678 18.4778C17.3247 18.5309 18.2289 19.4086 18.322 20.5255C18.4283 21.7622 17.697 22.7994 16.5002 23.0121C15.8886 23.1185 15.2503 23.0919 14.6253 23.0919C12.2451 23.1318 10.6362 24.7407 10.6362 27.121C10.6362 40.8969 10.6362 54.6861 10.6362 68.462C10.6362 70.8688 12.285 72.5044 14.6785 72.5177C27.4173 72.5177 40.1693 72.5177 52.908 72.5177C55.3148 72.5177 56.9504 70.8821 56.977 68.4753C56.977 67.97 56.9504 67.4647 56.9903 66.9594C57.0701 65.7893 58.0009 64.8718 59.1444 64.8186C60.3412 64.7654 61.4581 65.5632 61.5645 66.7334C61.8704 69.9114 61.2321 72.7969 58.7322 75.0175C57.5488 76.068 56.1791 76.7196 54.6234 77.0121C54.4904 77.0387 54.3574 77.1052 54.2244 77.1451C40.6214 77.1584 27.005 77.1584 13.3887 77.1584Z" fill="#0025cb"/>
</svg>
