<svg width="80" height="80" viewBox="0 0 80 80" fill="none" xmlns="http://www.w3.org/2000/svg">
<rect width="80" height="80" fill="none"/>
<path d="M8.61593 69.7377C8.60451 69.7263 8.59309 69.7148 8.58167 69.7148C8.58167 69.7148 8.60451 69.7263 8.61593 69.7377Z" fill="#0025cb"/>
<path d="M8.57104 69.7048C8.04014 69.3147 7.52006 68.8922 7 68.4805C7.52006 68.903 8.04014 69.3147 8.57104 69.7048Z" fill="#0025cb"/>
<path d="M47.0666 78.6104C47.0774 67.9058 47.0774 56.4968 47.0666 45.7922C47.0666 45.1529 47.2725 45.0229 47.8575 45.0229C50.9238 45.0446 53.99 45.0337 57.067 45.0337C58.378 45.0337 58.3455 45.0337 58.5297 43.7769C59.1039 39.8873 59.6565 35.9976 60.3174 32.1188C60.4691 31.1978 60.2307 31.1003 59.429 31.1112C55.5827 31.1437 51.7255 31.122 47.8684 31.1328C47.4025 31.1328 47.0557 31.1653 47.0557 30.4828C47.0991 27.6007 47.0124 24.7187 47.0991 21.8367C47.2183 17.6437 49.3852 15.2817 53.4699 14.74C55.7127 14.4474 57.9771 14.6425 60.2199 14.5991C60.7291 14.5883 61 14.5558 61 13.9057C60.9675 10.3953 60.9783 6.89566 61 3.38522C61 2.87599 60.8483 2.64846 60.3391 2.58345C55.8644 2.03089 51.3897 1.42414 46.8824 2.00922C42.7544 2.54012 39.1248 4.14365 36.3403 7.33988C33.3391 10.7745 32.1797 14.9025 32.0714 19.3555C31.9847 22.9852 32.0389 26.6256 32.0714 30.2552C32.0822 30.9378 31.9306 31.1545 31.2046 31.1437C27.6942 31.1003 24.1946 31.1437 20.6841 31.1112C20.0666 31.1112 19.8174 31.2087 19.8282 31.9129C19.8607 36.0193 19.8607 40.1148 19.8282 44.2211C19.8282 44.8821 20.0016 45.0554 20.6625 45.0446C24.1079 45.0121 27.5533 45.0554 30.9988 45.0121C31.833 45.0012 32.0822 45.1854 32.0822 46.063C32.0497 56.5835 32.0606 67.104 32.0606 77.6353C32.0606 77.9495 32.0606 78.3071 32.0606 78.5996" fill="#0025cb"/>
</svg>
