<svg width="80" height="80" viewBox="0 0 80 80" fill="none" xmlns="http://www.w3.org/2000/svg">
<path d="M23.75 2H55.25C67.25 2 77 11.75 77 23.75V55.25C77 61.0185 74.7085 66.5507 70.6296 70.6296C66.5507 74.7085 61.0185 77 55.25 77H23.75C11.75 77 2 67.25 2 55.25V23.75C2 17.9815 4.29151 12.4493 8.37043 8.37043C12.4493 4.29151 17.9815 2 23.75 2ZM23 9.5C19.4196 9.5 15.9858 10.9223 13.4541 13.4541C10.9223 15.9858 9.5 19.4196 9.5 23V56C9.5 63.4625 15.5375 69.5 23 69.5H56C59.5804 69.5 63.0142 68.0777 65.5459 65.5459C68.0777 63.0142 69.5 59.5804 69.5 56V23C69.5 15.5375 63.4625 9.5 56 9.5H23ZM59.1875 15.125C60.4307 15.125 61.623 15.6189 62.5021 16.4979C63.3811 17.377 63.875 18.5693 63.875 19.8125C63.875 21.0557 63.3811 22.248 62.5021 23.1271C61.623 24.0061 60.4307 24.5 59.1875 24.5C57.9443 24.5 56.752 24.0061 55.8729 23.1271C54.9939 22.248 54.5 21.0557 54.5 19.8125C54.5 18.5693 54.9939 17.377 55.8729 16.4979C56.752 15.6189 57.9443 15.125 59.1875 15.125ZM39.5 20.75C44.4728 20.75 49.2419 22.7254 52.7583 26.2417C56.2746 29.7581 58.25 34.5272 58.25 39.5C58.25 44.4728 56.2746 49.2419 52.7583 52.7583C49.2419 56.2746 44.4728 58.25 39.5 58.25C34.5272 58.25 29.7581 56.2746 26.2417 52.7583C22.7254 49.2419 20.75 44.4728 20.75 39.5C20.75 34.5272 22.7254 29.7581 26.2417 26.2417C29.7581 22.7254 34.5272 20.75 39.5 20.75ZM39.5 28.25C36.5163 28.25 33.6548 29.4353 31.545 31.545C29.4353 33.6548 28.25 36.5163 28.25 39.5C28.25 42.4837 29.4353 45.3452 31.545 47.455C33.6548 49.5647 36.5163 50.75 39.5 50.75C42.4837 50.75 45.3452 49.5647 47.455 47.455C49.5647 45.3452 50.75 42.4837 50.75 39.5C50.75 36.5163 49.5647 33.6548 47.455 31.545C45.3452 29.4353 42.4837 28.25 39.5 28.25Z" fill="#0025CB"/>
</svg>
