<svg width="80" height="80" viewBox="0 0 80 80" fill="none" xmlns="http://www.w3.org/2000/svg">
<rect width="80" height="80" fill="none"/>
<path d="M17.1618 26.9035C13.9347 26.8883 10.7075 26.8883 7.49566 26.9035C5.18189 26.9187 4.34469 27.8016 4.32947 30.1458C4.32947 37.4982 4.32947 44.8505 4.32947 52.2028C4.32947 59.6008 4.32947 66.9836 4.32947 74.3815C4.32947 76.6192 5.24278 77.5021 7.49566 77.5021C10.6771 77.5021 13.8585 77.5021 17.0552 77.5021C19.369 77.5021 20.2823 76.6192 20.2823 74.3054C20.2823 59.5703 20.2823 44.82 20.2823 30.0849C20.2823 27.8168 19.3994 26.9187 17.1618 26.9035Z" fill="#0025cb"/>
<path d="M12.4732 2.00093C6.7649 1.92482 2.04601 6.52193 2.00034 12.215C1.95467 17.8777 6.50608 22.5052 12.1992 22.5661C17.8923 22.627 22.5351 18.106 22.5807 12.4281C22.6416 6.73504 18.1359 2.07704 12.4732 2.00093Z" fill="#0025cb"/>
<path d="M76.2845 41.6395C75.5386 37.4381 74.1534 33.4956 70.972 30.4511C67.6079 27.2393 63.4218 26.2346 58.9465 26.1585C52.8728 26.0519 47.3776 27.4219 43.435 32.7649C43.435 31.7603 43.4503 30.7404 43.435 29.7357C43.4046 27.772 42.5826 26.95 40.6189 26.9348C37.1635 26.9196 33.6928 26.9196 30.2374 26.9348C28.2737 26.9348 27.4669 27.772 27.4669 29.7509C27.4669 44.7296 27.4669 59.7082 27.4669 74.6869C27.4669 76.6353 28.3346 77.4877 30.283 77.4877C33.5406 77.503 36.8133 77.4877 40.0709 77.4877C42.7196 77.4877 43.3894 76.8027 43.3894 74.1236C43.3894 66.543 43.3741 58.9471 43.4046 51.3512C43.4198 48.4742 44.0591 45.7342 45.6879 43.3139C47.6668 40.3608 50.559 39.4931 53.9231 39.9802C56.9676 40.4217 58.8094 42.294 59.7684 45.1253C60.6209 47.6218 60.6665 50.2096 60.6665 52.8126C60.6513 60.0888 60.6513 67.365 60.6513 74.6412C60.6513 76.681 61.4733 77.4725 63.5283 77.4877C67.0294 77.4877 70.5306 77.4877 74.0317 77.4877C76.1932 77.4877 77 76.6657 77 74.489C77 66.3908 77 58.2926 76.9847 50.1943C76.9847 47.3326 76.8021 44.4708 76.2845 41.6395Z" fill="#0025cb"/>
</svg>
