<svg width="80" height="80" viewBox="0 0 80 80" fill="none" xmlns="http://www.w3.org/2000/svg">
<rect width="80" height="80" fill="none"/>
<g clip-path="url(#clip0_296_48)">
<path d="M41.9361 1C43.4288 2.24968 44.9053 3.51744 46.414 4.74904C56.788 13.2175 67.1681 21.678 77.5462 30.1405C77.6786 30.2489 77.799 30.3715 78.0016 30.5563C65.9644 40.4111 53.9633 50.2338 41.8398 60.1589C41.8398 54.015 41.8398 48.0117 41.8398 41.8336C40.0583 42.0566 38.3631 42.1691 36.71 42.4926C23.3106 45.1185 13.2715 52.3976 6.95402 64.5428C4.90167 68.4888 3.37897 72.712 1.60749 76.8046C1.43095 77.2144 1.20826 77.6042 1.00563 78.002C1.00563 72.0248 0.991588 59.3573 1.00563 59.1363C1.31659 53.9969 2.59053 49.3196 4.80337 44.6805C11.3616 30.93 22.1369 22.6022 37.1293 19.8216C38.65 19.5403 40.2008 19.4217 41.7857 19.2228C41.7857 13.1492 41.7857 7.07562 41.7857 1.00201C41.8358 1 41.886 1 41.9361 1Z" fill="#0025cb"/>
</g>
<defs>
<clipPath id="clip0_296_48">
<rect width="77" height="77" fill="none" transform="translate(1 1)"/>
</clipPath>
</defs>
</svg>
