<svg width="80" height="80" viewBox="0 0 80 80" fill="none" xmlns="http://www.w3.org/2000/svg">
<path d="M59.3622 13.9067C56.4849 10.6117 54.8993 6.38027 54.9005 2H41.8941V54.3556C41.7938 57.1888 40.6014 59.8724 38.5679 61.8413C36.5344 63.8102 33.8186 64.9107 30.9923 64.9111C25.0153 64.9111 20.0485 60.0133 20.0485 53.9333C20.0485 46.6711 27.0357 41.2244 34.2334 43.4622V30.12C19.7117 28.1778 7 39.4933 7 53.9333C7 67.9933 18.6173 78 30.9503 78C44.1671 78 54.9005 67.2333 54.9005 53.9333V27.3756C60.1746 31.1749 66.5068 33.2134 73 33.2022V20.1556C73 20.1556 65.0867 20.5356 59.3622 13.9067Z" fill="#0025CB"/>
</svg>
