<svg width="80" height="80" viewBox="0 0 80 80" fill="none" xmlns="http://www.w3.org/2000/svg">
<rect width="80" height="80" fill="none"/>
<path d="M76.7036 9.20956C73.7673 10.8875 70.8803 12.0102 67.8576 12.7751C67.0927 12.9725 66.5375 12.8985 65.896 12.2939C59.061 5.80441 47.9325 6.80375 42.3313 14.3913C39.6788 17.9815 38.7288 22.0282 39.3827 26.4204C39.5184 27.358 39.3457 27.5925 38.408 27.4321C37.2236 27.2223 36.0022 27.2223 34.8178 27.0249C24.664 25.3224 15.9907 20.7945 8.909 13.2933C8.20577 12.553 7.5272 11.7758 6.82396 10.9985C5.24476 13.355 4.39347 16.7478 4.6649 20.0172C5.0597 24.9276 7.29279 28.8756 11.4752 32.071C9.09407 32.0586 7.2311 31.5158 5.4545 30.6522C4.62788 30.245 4.49218 30.4301 4.55386 31.2814C4.8623 35.8833 6.79928 39.6339 10.2908 42.6195C12.1908 44.2358 14.3992 45.2474 17.0641 45.9877C14.6089 46.6416 12.4252 46.5799 10.0441 46.2961C12.7336 53.0818 17.5946 56.635 24.7627 57.3752C23.1218 58.7323 21.4686 59.707 19.7413 60.5953C14.1771 63.4699 8.23044 64.4199 2 64.0992C2.34545 64.4323 2.6909 64.642 3.04869 64.8517C9.31614 68.5037 16.0524 70.5517 23.3069 70.9218C31.8814 71.366 40.1476 69.9595 47.6118 65.6413C63.1941 56.6103 70.6953 42.7676 71.0284 24.9029C71.0407 24.0269 71.2875 23.5211 71.966 22.9906C74.5199 20.9919 76.8147 18.7341 78.5172 15.9335C78.4679 15.8718 78.4185 15.8101 78.3692 15.7484C75.7907 16.7108 73.1998 17.5867 70.3745 17.7471C73.2985 15.5634 75.4822 12.8985 76.7036 9.20956Z" fill="#0025cb"/>
</svg>
